<svg width="56" height="49" viewBox="0 0 56 49" fill="none" xmlns="http://www.w3.org/2000/svg">
<path d="M25.7013 44.2166C36.7844 45.8883 47.1385 38.3522 48.8278 27.3841C50.5171 16.4161 42.9019 6.16944 31.8187 4.49769C20.7356 2.82593 10.3815 10.3621 8.69224 21.3302C7.00295 32.2982 14.6182 42.5448 25.7013 44.2166Z" fill="#330099"/>
<path fill-rule="evenodd" clip-rule="evenodd" d="M11.6959 22.4667C11.6959 22.4667 12.0147 24.448 14.3295 24.7434C16.6444 25.0388 17.9029 23.9132 19.2631 24.0646C20.6234 24.2161 22.6241 24.4373 22.6372 25.0567C22.6503 25.6762 23.1681 27.0699 22.0417 27.8666C20.9152 28.6632 20.1831 28.6602 19.9564 29.7805C19.7296 30.9007 19.556 33.6131 18.4545 33.3664C17.353 33.1197 17.2742 30.6376 16.4345 29.5714C15.595 28.5051 14.1897 28.2931 12.4802 27.7668C10.7707 27.2404 9.09168 26.6918 9.09865 24.3572C9.10551 22.0225 9.29801 19.7156 9.91821 19.9165C10.5384 20.1175 11.4886 21.5227 11.6959 22.4668V22.4667Z" fill="#3300CC"/>
<path fill-rule="evenodd" clip-rule="evenodd" d="M44.1163 34.793C44.1163 34.793 42.9012 34.9319 42.289 34.6785C41.677 34.4251 40.4144 35.5771 39.7951 36.0744C39.1759 36.5716 38.1119 36.7869 38.4309 37.5332C38.7501 38.2794 38.267 38.4212 39.8307 38.3081C41.3945 38.195 41.4708 37.3473 42.6087 37.3579C43.7466 37.3685 44.3562 35.8764 44.645 35.4098C44.9339 34.9432 44.1162 34.7931 44.1162 34.7931L44.1163 34.793Z" fill="#3300CC"/>
<path fill-rule="evenodd" clip-rule="evenodd" d="M40.1681 29.9554C40.138 30.3267 39.4727 32.8844 38.5251 33.2247C37.5774 33.565 36.4454 33.3405 35.2947 34.2946C34.1439 35.2486 33.9145 35.8583 31.6387 35.8372C29.363 35.8162 25.9247 35.5929 25.0268 35.0817C24.129 34.5704 22.4473 33.5113 23.7709 32.3148C25.0946 31.1184 26.9361 29.7315 28.9915 29.7731C31.047 29.8147 31.9565 29.8981 34.1998 30.1291C36.4431 30.3601 37.8704 30.2532 38.6324 29.8848C39.3946 29.5165 40.3076 29.2247 40.1681 29.9553V29.9554Z" fill="#3300CC"/>
<path fill-rule="evenodd" clip-rule="evenodd" d="M42.857 38.8103C38.4588 43.0052 32.2059 45.1971 25.701 44.2159C17.0908 42.9172 10.5747 36.4427 8.88721 28.4756C8.95097 28.5639 11.5728 29.2596 12.4465 30.3673C13.3201 31.4753 12.6885 34.1139 13.8241 35.0958C14.9598 36.0777 18.0117 34.632 18.8162 35.3978C19.6208 36.1635 19.608 38.5309 20.6382 39.4388C21.6683 40.3468 21.5144 40.3563 23.1985 40.4367C24.8826 40.517 26.1787 39.8253 26.4927 39.6684C29.196 38.318 30.8936 38.0505 32.1449 41.3958C32.5177 42.3928 33.6475 42.0857 34.1592 41.8011C34.671 41.5164 35.4439 40.245 36.131 40.2471C36.8181 40.2495 39.1375 40.159 39.8914 39.5856C40.6451 39.0121 42.767 38.8428 42.857 38.8102V38.8103Z" fill="#DD2C00"/>
<path fill-rule="evenodd" clip-rule="evenodd" d="M31.8184 4.49802C42.9014 6.16976 50.5166 16.4162 48.8273 27.3842C48.5153 29.4109 47.9065 31.3199 47.0528 33.0758C46.0337 34.0703 46.309 32.5325 46.703 31.4927C47.0973 30.4522 47.8035 29.2851 48.1745 27.2567C48.5454 25.2285 47.2254 27.7214 46.6969 28.6839C46.1684 29.6463 44.8599 30.9251 44.1419 31.5984C43.4239 32.2717 43.2955 31.5865 42.8035 30.4123C42.3116 29.2381 43.3144 27.8552 43.5633 26.6192C43.8122 25.3831 44.6864 23.3149 44.5207 22.6819C44.3549 22.049 43.3775 21.1781 42.2782 21.099C41.1788 21.02 40.7726 22.8982 40.3472 23.7604C39.9219 24.6226 40.1419 24.7136 39.9913 25.5015C39.8407 26.2892 37.9701 26.4702 37.2778 26.5974C36.5856 26.7245 36.1877 26.8381 34.5235 26.8187C32.8592 26.7993 33.3722 27.4557 32.7682 27.7698C32.164 28.0838 29.5156 27.0475 28.6164 26.9987C27.7172 26.9499 27.0965 26.2038 26.6091 26.7093C26.1219 27.2147 24.0195 26.811 23.9574 26.4541C23.8954 26.0974 24.9301 25.6456 25.5996 24.9071C26.2692 24.1685 27.0715 24.5525 27.2755 24.1781C27.4795 23.8036 26.106 22.5963 25.5202 21.8423C24.9343 21.0883 24.5746 18.4866 24.203 18.4305C23.8313 18.3744 23.0048 18.4235 22.1173 18.8685C21.2297 19.3136 20.0394 20.205 19.2686 20.8414C18.4977 21.4778 18.4282 21.9304 17.6437 22.2752C16.8593 22.62 14.3506 22.3863 13.4749 21.9936C12.5995 21.601 12.6144 21.3138 12.3908 20.296C12.1673 19.2781 12.3934 17.4305 12.7557 17.1668C13.1181 16.9031 13.9249 16.7932 14.4675 16.4988C15.0102 16.2043 14.9872 15.5929 15.067 14.505C15.1469 13.417 15.7956 13.5728 16.6894 12.897C17.5832 12.2213 17.8631 11.1636 17.8631 11.1636C17.8631 11.1636 17.657 10.0324 17.1338 10.0115C16.6106 9.99053 15.9518 10.47 15.4948 10.7773C15.0379 11.0846 14.5967 11.4814 13.9839 11.8521C13.3727 12.2216 12.2862 12.6182 12.2798 12.6205C16.5931 6.69922 24.0256 3.3223 31.8184 4.49779V4.49802Z" fill="#FF6D00"/>
<path fill-rule="evenodd" clip-rule="evenodd" d="M31.8187 4.49807C40.7898 5.85132 47.4877 12.8229 48.8191 21.2474C48.625 20.9399 48.4203 20.5151 48.2729 19.9497C47.8977 18.5103 46.8812 17.7124 46.6068 17.6442C46.3323 17.5761 46.0177 17.7701 45.8388 18.2264C45.6601 18.6827 45.9403 19.329 45.6934 19.1709C45.4465 19.0129 45.494 18.7919 45.201 18.4926C44.908 18.1934 44.3078 18.4787 44.1964 18.2338C44.0848 17.9887 44.9227 17.8331 45.3404 17.5874C45.7581 17.3415 46.1287 16.2565 45.919 15.7684C45.7093 15.2802 44.6975 14.9801 43.9376 15.5099C43.1777 16.0397 42.0265 15.8525 42.7563 15.6942C43.4861 15.5358 44.3434 14.7254 44.6053 13.9057C44.8671 13.0859 43.2922 12.392 42.4059 11.4529C41.5196 10.5137 41.8815 11.1589 41.2393 11.2769C40.5972 11.3949 40.0315 12.2493 40.2728 12.7957C40.5143 13.3421 40.0155 13.9382 39.83 13.9102C39.6443 13.8822 39.1712 13.784 38.791 13.0822C38.4107 12.3805 37.96 12.3125 37.3025 11.6496C36.645 10.9865 36.9252 10.2235 36.3445 9.06191C35.7637 7.90035 34.4376 7.35136 33.6669 7.42304C32.8962 7.49471 32.3508 8.21789 31.8161 9.39921C31.2816 10.5805 30.2745 10.7776 29.9742 10.4369C29.6739 10.0963 29.9746 9.20192 30.4123 8.65043C30.8499 8.09895 31.3166 6.47781 31.259 6.14706C31.2015 5.81631 30.7272 5.01968 29.6034 4.74286C28.5148 4.47473 27.0361 4.35294 26.9438 4.34556C28.5353 4.2053 30.1689 4.24936 31.8188 4.49819L31.8187 4.49807Z" fill="#FFD740"/>
<path fill-rule="evenodd" clip-rule="evenodd" d="M49.0592 24.1151C49.0709 25.1921 48.9966 26.2842 48.8272 27.3836C48.5151 29.4102 47.9063 31.3192 47.0525 33.0751C46.0335 34.0697 46.3088 32.5319 46.7028 31.492C47.097 30.4515 47.8034 29.2843 48.1743 27.2561C48.5452 25.2279 47.2252 27.7207 46.6966 28.6832C46.1681 29.6456 44.8596 30.9244 44.1417 31.5978C43.4239 32.2711 43.2954 31.5859 42.8033 30.4118C42.3115 29.2375 43.3141 27.8547 43.5631 26.6186C43.812 25.3824 44.6861 23.3144 44.5206 22.6814C44.3548 22.0485 43.3773 21.1775 42.2779 21.0984C41.1785 21.0195 40.7723 22.8976 40.3469 23.7597C39.9215 24.6221 40.1417 24.7128 39.9911 25.5007C39.8404 26.2886 37.9699 26.4695 37.2775 26.5968C36.5852 26.7239 36.1873 26.8376 34.5231 26.8181C32.8589 26.7987 33.3719 27.4551 32.7678 27.7692C32.1636 28.0833 29.5152 27.047 28.616 26.9982C27.7168 26.9495 27.0961 26.2036 26.6088 26.7089C26.1215 27.2141 24.019 26.8104 23.957 26.4537C23.895 26.097 24.9299 25.6452 25.5993 24.9066C26.2688 24.1681 27.0712 24.5521 27.2752 24.1776C27.4792 23.8032 26.1056 22.5959 25.5197 21.8419C24.9338 21.0879 24.5742 18.4862 24.2025 18.4301C23.8308 18.374 23.0043 18.4231 22.1168 18.8681C21.2292 19.3132 20.0388 20.2046 19.2681 20.8409C18.4973 21.4773 18.4276 21.9299 17.6432 22.2748C16.8588 22.6197 14.3501 22.3859 13.4745 21.9933C12.5991 21.6008 12.6139 21.3135 12.3903 20.2956C12.1668 19.2778 12.3929 17.4302 12.7552 17.1665C13.1176 16.9028 13.9242 16.7929 14.467 16.4984C15.0096 16.204 14.9867 15.5926 15.0664 14.5046C15.1464 13.4167 15.7951 13.5725 16.6889 12.8967C17.5827 12.2209 17.8627 11.1633 17.8627 11.1633C17.8627 11.1633 17.6569 10.0322 17.1333 10.0112C16.6101 9.99022 15.9513 10.4697 15.4943 10.7771C15.0374 11.0844 14.5962 11.4812 13.9834 11.8519C13.3722 12.2214 12.2857 12.6179 12.2793 12.6202C14.7312 9.25431 18.1913 6.71117 22.1521 5.3584C22.1775 5.3815 23.447 6.55127 22.569 8.06679C21.6822 9.59756 21.0627 10.5915 21.9821 11.6364C22.902 12.6814 24.4575 12.5399 24.4575 12.5399L25.2567 13.2719C25.2567 13.2719 26.2062 13.3407 27.2473 12.746C28.2884 12.1513 30.1982 11.1356 31.0839 12.1436C31.8193 12.9803 31.6158 14.5812 30.8336 15.3545C28.9685 17.1979 29.8907 18.877 31.6384 19.5219C33.2556 20.1187 35.4947 19.9701 36.9082 19.6841C39.3411 19.1921 41.689 18.1531 42.6827 19.0076C43.2696 19.5123 43.4556 20.0816 44.1383 20.3101C44.8209 20.5384 44.9198 19.8956 44.9198 19.8956L45.3506 20.2697C45.3506 20.2697 46.0144 20.2756 46.0727 19.1033C46.1312 17.9307 47.4782 17.4627 47.8735 20.1804C48.2592 22.832 49.0219 24.0574 49.0588 24.1153L49.0592 24.1151Z" fill="#DD2C00"/>
<path fill-rule="evenodd" clip-rule="evenodd" d="M48.9729 26.1958C48.9358 26.5908 48.8883 26.9868 48.8272 27.3838C48.5151 29.4105 47.9064 31.3195 47.0525 33.0754C46.0335 34.0699 46.3088 32.5321 46.7028 31.4923C47.097 30.4518 47.8034 29.2845 48.1743 27.2563C48.5452 25.2281 47.2252 27.721 46.6966 28.6835C46.1681 29.6459 44.8596 30.9247 44.1417 31.5981C43.4239 32.2714 43.2954 31.5862 42.8033 30.412C42.3115 29.2377 43.3141 27.855 43.5631 26.6189C43.721 25.8344 44.1308 24.7148 44.3668 23.8396C44.3345 24.281 44.3247 24.8077 44.3809 25.3442C44.5236 26.7082 45.3667 27.3991 46.0354 27.2851C46.704 27.1712 47.4776 26.0259 47.9667 26.0192C48.1708 26.0163 48.5546 26.1014 48.9729 26.1957V26.1958ZM42.0253 21.1164C41.1129 21.316 40.7381 22.9673 40.3469 23.7601C39.9215 24.6225 40.1417 24.7132 39.9911 25.5011C39.8404 26.2889 37.9699 26.4699 37.2775 26.5972C36.5852 26.7242 36.1873 26.8379 34.5231 26.8185C32.8589 26.7991 33.3719 27.4555 32.7678 27.7696C32.1636 28.0837 29.5152 27.0474 28.616 26.9986C27.7168 26.9499 27.0961 26.2039 26.6088 26.7092C26.1215 27.2145 24.019 26.8108 23.957 26.4541C23.895 26.0974 24.9299 25.6455 25.5993 24.907C26.2688 24.1685 27.0712 24.5524 27.2752 24.178C27.4792 23.8036 26.1056 22.5963 25.5197 21.8423C24.9338 21.0883 24.5742 18.4865 24.2025 18.4305C23.8308 18.3744 23.0043 18.4234 22.1168 18.8685C21.2292 19.3135 20.0388 20.2049 19.2681 20.8413C18.4973 21.4777 18.4276 21.9303 17.6432 22.2752C16.8588 22.6201 14.3501 22.3863 13.4745 21.9937C12.5991 21.6012 12.6139 21.3139 12.3903 20.296C12.1668 19.2782 12.3929 17.4306 12.7552 17.1669C13.1176 16.9032 13.9242 16.7933 14.467 16.4988C15.0096 16.2044 14.9867 15.593 15.0664 14.505C15.1464 13.4171 15.7951 13.5729 16.6889 12.8971C17.5827 12.2213 17.8627 11.1637 17.8627 11.1637C17.8627 11.1637 17.6569 10.0326 17.1333 10.0116C16.6101 9.9906 15.9513 10.4701 15.4943 10.7775C15.0374 11.0848 14.5962 11.4816 13.9834 11.8522C13.3722 12.2218 12.2857 12.6183 12.2793 12.6205C14.1869 10.0019 16.7048 7.88132 19.5938 6.43164C19.5845 6.46641 19.2109 7.88775 19.1341 10.4748C19.0562 13.0942 17.5976 14.1093 18.191 15.5411C18.7843 16.9729 19.0944 17.0734 20.261 17.2494C21.4276 17.4254 24.4331 17.2881 25.2986 18.0092C26.1641 18.7304 26.0889 20.2763 27.4695 21.8806C28.204 22.734 28.9353 23.621 29.8561 24.3355C29.7351 24.4634 29.6553 24.6171 29.6283 24.7921C29.525 25.4635 30.2404 26.1913 31.2265 26.4179C32.1522 26.6305 32.9872 26.3257 33.1715 25.7322C35.668 26.1175 37.7444 25.7008 39.019 24.7503C40.3466 23.7601 40.4118 21.216 42.0241 21.1165H42.0249L42.0253 21.1164Z" fill="#9B0109"/>
<path d="M15.1832 21.3005C16.4649 21.6148 17.6343 21.0232 17.7951 19.9791C17.9559 18.9349 17.0472 17.8337 15.7655 17.5193C14.4838 17.205 13.3145 17.7966 13.1536 18.8408C12.9928 19.8849 13.9015 20.9862 15.1832 21.3005Z" fill="#DD2C00"/>
<path d="M32.1469 19.0065C33.2442 19.2756 34.2453 18.7691 34.383 17.8752C34.5206 16.9814 33.7427 16.0386 32.6455 15.7695C31.5482 15.5004 30.5471 16.0069 30.4094 16.9008C30.2717 17.7946 31.0496 18.7374 32.1469 19.0065Z" fill="#DD2C00"/>
<path d="M24.0597 13.2089C25.5034 13.563 26.8207 12.8965 27.0018 11.7204C27.1829 10.5442 26.1594 9.30376 24.7157 8.94969C23.2719 8.59562 21.9547 9.26205 21.7736 10.4382C21.5924 11.6143 22.6159 12.8548 24.0597 13.2089Z" fill="#DD2C00"/>
<path d="M31.1782 26.5293C32.0022 26.7314 32.754 26.3511 32.8574 25.6798C32.9608 25.0085 32.3766 24.3004 31.5526 24.0983C30.7286 23.8962 29.9767 24.2766 29.8733 24.9479C29.7699 25.6192 30.3541 26.3273 31.1782 26.5293Z" fill="#9B0109"/>
<path d="M42.0581 15.2305C42.8821 15.4326 43.6339 15.0522 43.7373 14.3809C43.8407 13.7096 43.2565 13.0016 42.4325 12.7995C41.6084 12.5974 40.8566 12.9778 40.7532 13.6491C40.6498 14.3204 41.234 15.0284 42.0581 15.2305Z" fill="#DD2C00"/>
<path d="M34.9884 11.9052C35.5809 12.0423 36.1161 11.7626 36.1838 11.2806C36.2514 10.7985 35.826 10.2965 35.2335 10.1594C34.641 10.0223 34.1058 10.3019 34.0381 10.784C33.9704 11.2661 34.3959 11.7681 34.9884 11.9052Z" fill="#DD2C00"/>
<path d="M44.4449 20.4198C45.0374 20.557 45.5726 20.2773 45.6403 19.7952C45.708 19.3131 45.2825 18.8112 44.69 18.6741C44.0975 18.5369 43.5623 18.8166 43.4946 19.2987C43.427 19.7808 43.8524 20.2827 44.4449 20.4198Z" fill="#740107"/>
<path d="M29.6515 7.61025C30.244 7.74736 30.7792 7.46771 30.8468 6.98563C30.9145 6.50355 30.4891 6.00159 29.8966 5.86448C29.3041 5.72736 28.7689 6.00702 28.7012 6.4891C28.6335 6.97118 29.059 7.47314 29.6515 7.61025Z" fill="#330099"/>
<path d="M38.9512 20.4789C39.2014 20.5368 39.4274 20.4187 39.456 20.2151C39.4846 20.0115 39.3049 19.7995 39.0547 19.7416C38.8044 19.6837 38.5784 19.8018 38.5498 20.0054C38.5212 20.209 38.7009 20.421 38.9512 20.4789Z" fill="#9B0109"/>
<path d="M23.8089 13.0998C24.9489 13.3794 25.989 12.8532 26.132 11.9245C26.2751 10.9958 25.4669 10.0163 24.3269 9.73669C23.1869 9.45711 22.1467 9.98334 22.0037 10.912C21.8607 11.8408 22.6689 12.8203 23.8089 13.0998Z" fill="#330099"/>
<path fill-rule="evenodd" clip-rule="evenodd" d="M24.8922 8.41766C26.4709 8.79556 27.9909 10.3266 27.1471 11.8253C27.1772 11.737 27.2 11.6452 27.2147 11.5497C27.3959 10.3735 26.2961 9.12143 24.7582 8.75318C23.469 8.44433 22.2813 8.85497 21.8242 9.68863C22.1649 8.68864 23.3135 8.03964 24.8922 8.41754V8.41766Z" fill="#FFD740"/>
<path d="M15.4641 20.6317C16.4961 20.8848 17.4377 20.4084 17.5672 19.5677C17.6967 18.727 16.9651 17.8403 15.9331 17.5872C14.9011 17.3341 13.9595 17.8104 13.83 18.6512C13.7005 19.4919 14.4321 20.3786 15.4641 20.6317Z" fill="#330099"/>
<path fill-rule="evenodd" clip-rule="evenodd" d="M17.4559 20.7249C17.0598 21.4542 16.0727 21.8183 15.008 21.5572C13.7264 21.2429 12.8176 20.1414 12.9784 19.0974C13.0223 18.8122 13.1415 18.561 13.3177 18.3525C13.237 18.5011 13.1808 18.665 13.1535 18.8418C12.9926 19.8859 13.9014 20.9872 15.1831 21.3016C16.1148 21.5302 16.987 21.2798 17.4559 20.7249Z" fill="#FFD740"/>
<path fill-rule="evenodd" clip-rule="evenodd" d="M33.4907 9.34102C33.4907 9.34102 32.3743 11.4816 33.8231 12.2907C35.272 13.0999 36.8008 12.6863 37.5378 13.3612C38.2748 14.0362 40.2595 15.1546 40.9688 15.7448C41.6782 16.335 42.8744 16.4081 43.673 15.9782C44.4716 15.5482 45.6252 15.7223 45.6391 16.248C45.6531 16.7736 44.7819 17.8503 43.5319 17.8631C42.2819 17.876 39.468 18.002 38.9077 18.2933C38.3474 18.5847 36.4851 19.5791 35.7871 19.1784C35.089 18.7778 34.8425 18.1769 35.6276 17.3958C36.4126 16.6148 36.3782 16.0457 35.8774 15.2454C35.3767 14.445 34.4548 14.3506 32.9822 14.1376C31.5097 13.9246 31.5466 12.7129 31.5186 11.6616C31.4907 10.6103 32.5326 9.12969 32.9401 8.94955C33.3477 8.76941 33.7391 8.69428 33.4904 9.3409L33.4907 9.34102Z" fill="#DD2C00"/>
<path fill-rule="evenodd" clip-rule="evenodd" d="M27.3076 5.36124C27.3076 5.36124 26.5316 5.99596 27.2466 6.98976C27.9618 7.98356 29.3939 8.54862 29.4134 9.30335C29.4328 10.0581 28.505 11.5022 28.1269 10.9619C27.749 10.4216 27.9246 9.10571 27.1286 8.63661C26.3326 8.16739 24.9804 7.96356 24.2888 7.69805C23.5973 7.43254 23.2493 6.5209 23.4097 6.00822C23.5701 5.49543 24.5995 5.3285 25.2642 5.24088C25.9289 5.15325 26.8968 4.68165 27.3076 5.36113V5.36124Z" fill="#DD2C00"/>
<path fill-rule="evenodd" clip-rule="evenodd" d="M37.6698 21.0125C37.6698 21.0125 35.144 22.9673 32.2157 21.3711C29.2874 19.7748 27.8753 19.0787 27.6269 19.2827C27.3784 19.4868 26.9435 20.549 27.4477 20.974C27.9519 21.399 29.1653 21.4479 30.0142 21.9249C30.8631 22.402 32.1926 23.8107 33.3579 24.5234C34.5232 25.2363 37.3219 24.5039 37.9285 23.7362C38.5351 22.9685 39.1362 21.18 38.8013 20.8878C38.4665 20.5956 37.5021 20.6918 37.6698 21.0125Z" fill="#FF6D00"/>
<path fill-rule="evenodd" clip-rule="evenodd" d="M24.7161 16.1934C24.7161 16.1934 23.1429 16.8958 21.6761 16.3792C20.8335 16.0824 20.1908 15.7095 19.8277 15.3081L19.8274 15.3078C19.4391 14.9641 19.1695 14.0616 19.7743 13.3945C20.3789 12.7273 20.9156 12.9511 20.9156 12.9511V12.9512C20.3829 12.8409 19.8208 13.4074 19.6768 14.0371C19.5903 14.415 19.782 14.7984 20.1918 15.1521L20.2098 15.1673L20.2188 15.1751L20.2279 15.1826L20.2463 15.1978L20.2572 15.2067L20.265 15.213L20.2927 15.2349L20.2969 15.2383L20.3033 15.2433L20.3227 15.2583L20.3375 15.2696L20.3425 15.2733L20.3428 15.2735L20.3794 15.3007L20.3828 15.3031L20.4034 15.3179L20.4224 15.3316L20.4242 15.3328L20.4452 15.3476L20.4666 15.3623V15.3625L20.4882 15.3771L20.5101 15.3918L20.5119 15.3931L20.5322 15.4064L20.5546 15.4209L20.5583 15.4233L20.5772 15.4353L20.6001 15.4499L20.6058 15.4535L20.61 15.4562L20.6465 15.4787L20.6543 15.4835L20.6701 15.4931L20.6939 15.5074L20.7039 15.5133L20.718 15.5215L20.7423 15.5357L20.7545 15.5428L20.7668 15.5497L20.7916 15.5638L20.8063 15.572L20.8167 15.5778L20.8591 15.6011L20.8675 15.6057L20.8934 15.6195L20.9129 15.6299L20.9194 15.6332L20.9604 15.6545L20.9677 15.6582L20.9722 15.6605L20.9989 15.674L21.0237 15.6864L21.026 15.6875L21.0806 15.7144L21.1362 15.7411L21.1386 15.7421L21.1643 15.7543L21.1926 15.7675L21.1974 15.7698L21.2573 15.7969L21.2791 15.8066L21.3083 15.8195L21.3181 15.8237L21.3675 15.845L21.38 15.8503L21.3976 15.8576L21.4428 15.8766L21.458 15.8828L21.4885 15.8953L21.5066 15.9025L21.5195 15.9076L21.5699 15.9278L21.5713 15.9282L21.5818 15.9323L21.6369 15.9535L21.6449 15.9566L21.7035 15.9785L21.7088 15.9805L21.7411 15.9924L21.7708 16.0032L21.7736 16.0042L21.8063 16.0159L21.8391 16.0275L21.9022 16.0488L21.913 16.0524C21.9551 16.0661 21.9975 16.0789 22.0398 16.0905L22.0539 16.0944L22.112 16.1098L22.1162 16.1109L22.1774 16.1258L22.1955 16.1298L22.243 16.1402L22.2579 16.1433L22.3183 16.1552L22.3299 16.1572L22.3843 16.1667L22.3963 16.1687L22.4521 16.1776L22.4598 16.1787L22.4727 16.1804L22.5201 16.1868L22.5345 16.1886C22.5539 16.191 22.5731 16.1934 22.5924 16.1954L22.5966 16.1959L22.6088 16.1971L22.66 16.202L22.6673 16.2027L22.7315 16.2078H22.7322L22.7931 16.2115L22.8081 16.2123L22.8583 16.2146L22.8666 16.2149L22.8692 16.2151L22.9326 16.2167H22.9337L22.9928 16.2174L22.9992 16.2176H23.0052L23.0634 16.2172H23.0673L23.1261 16.216H23.1299L23.1391 16.2158L23.193 16.2139L23.1979 16.2136L23.2572 16.2107H23.2587L23.3135 16.2072L23.3213 16.2067L23.3564 16.2041L23.3838 16.202L23.3988 16.2007L23.4411 16.1968L23.4455 16.1964L23.4828 16.1926L23.5065 16.1901L23.5243 16.188L23.5653 16.1831L23.5667 16.1829L23.6171 16.1765L23.6261 16.1754L23.6463 16.1726L23.6846 16.1671L23.6862 16.1668L23.7256 16.1609L23.7284 16.1604L23.7567 16.156L23.7646 16.1547L23.7987 16.149L23.8031 16.1483C23.8389 16.1421 23.8744 16.1356 23.9089 16.129L23.9158 16.1277L23.9524 16.1204L23.9624 16.1184L23.9885 16.113L24.0148 16.1075L24.0241 16.1055L24.0591 16.0979L24.0659 16.0964L24.0935 16.0902L24.116 16.0849L24.1274 16.0823L24.1607 16.0742L24.165 16.0733L24.1935 16.0662L24.2124 16.0615L24.2255 16.0581L24.257 16.05L24.2587 16.0496L24.2879 16.0418L24.3036 16.0377L24.3181 16.0336L24.3471 16.0256L24.3478 16.0254L24.3768 16.0172L24.3893 16.0135L24.4051 16.009L24.43 16.0016L24.4326 16.0007L24.4595 15.9927C24.7212 15.9128 24.8788 15.8425 24.8788 15.8425C25.0603 15.7627 25.1534 15.6746 25.1834 15.589C25.1615 15.7526 25.0727 16.0692 24.7161 16.1939V16.1934ZM25.1904 15.4872H25.1905V15.488L25.1902 15.4872H25.1904Z" fill="#FFD740"/>
<path fill-rule="evenodd" clip-rule="evenodd" d="M24.7002 15.5391C24.7002 15.5391 23.353 16.1406 22.0969 15.6983C20.8409 15.2559 20.1032 14.6158 20.2455 13.9935C20.3878 13.3713 21.0069 12.821 21.5138 13.1504C22.0205 13.4797 22.6167 13.9834 22.8949 14.4392C23.1732 14.895 23.8667 15.0685 24.2996 14.9729C24.7324 14.8772 25.3233 15.2652 24.7002 15.5392V15.5391Z" fill="#9B0109"/>
<path d="M39.1905 10.6278C39.783 10.765 40.3182 10.4853 40.3859 10.0032C40.4536 9.52114 40.0281 9.01918 39.4356 8.88206C38.8431 8.74495 38.3079 9.02459 38.2402 9.50668C38.1726 9.98876 38.598 10.4907 39.1905 10.6278Z" fill="#DD2C00"/>
<path d="M32.3093 18.5224C33.2326 18.7488 34.0749 18.3226 34.1908 17.5705C34.3066 16.8183 33.6521 16.0251 32.7288 15.7986C31.8056 15.5722 30.9632 15.9984 30.8474 16.7505C30.7315 17.5027 31.3861 18.2959 32.3093 18.5224Z" fill="#330099"/>
<path d="M31.1102 26.4119C31.6706 26.5494 32.1819 26.2907 32.2522 25.8341C32.3225 25.3776 31.9252 24.8961 31.3648 24.7586C30.8044 24.6212 30.2931 24.8799 30.2228 25.3364C30.1525 25.793 30.5498 26.2745 31.1102 26.4119Z" fill="#330099"/>
<path d="M41.8822 15.1595C42.4246 15.2925 42.9196 15.0422 42.9876 14.6003C43.0557 14.1583 42.6711 13.6923 42.1287 13.5592C41.5862 13.4262 41.0913 13.6766 41.0232 14.1185C40.9552 14.5604 41.3397 15.0265 41.8822 15.1595Z" fill="#330099"/>
<path d="M34.817 11.8201C35.2351 11.9169 35.6127 11.7196 35.6605 11.3794C35.7082 11.0392 35.408 10.685 34.9899 10.5883C34.5718 10.4915 34.1942 10.6888 34.1464 11.029C34.0987 11.3692 34.3989 11.7234 34.817 11.8201Z" fill="#330099"/>
<path d="M44.1363 20.048C44.5362 20.1405 44.8974 19.9518 44.9431 19.6264C44.9887 19.301 44.7016 18.9622 44.3017 18.8697C43.9018 18.7772 43.5406 18.9659 43.4949 19.2913C43.4493 19.6166 43.7364 19.9554 44.1363 20.048Z" fill="#330099"/>
<path fill-rule="evenodd" clip-rule="evenodd" d="M34.1439 5.69301C35.1574 5.80565 36.2727 6.40333 37.0113 6.7161C37.7498 7.02899 37.9475 8.3876 37.7491 8.7068C37.5507 9.026 36.4866 8.44927 35.9463 7.81741C35.4061 7.18556 35.1619 6.74587 34.1076 6.7211C31.4323 6.65824 32.7706 5.54038 34.1439 5.69301Z" fill="#DD2C00"/>
<path d="M43.7625 29.6877C44.1376 30.1618 44.7319 30.2755 45.0897 29.9415C45.4475 29.6076 45.4334 28.9526 45.0582 28.4785C44.6831 28.0044 44.0888 27.8908 43.731 28.2247C43.3732 28.5586 43.3873 29.2136 43.7625 29.6877Z" fill="#330099"/>
<path fill-rule="evenodd" clip-rule="evenodd" d="M45.3227 29.5223C45.3022 29.7734 45.2055 30.0024 45.0315 30.1648C44.6242 30.5448 43.9477 30.4155 43.5206 29.8758C43.0935 29.3361 43.0775 28.5903 43.4847 28.2103C43.7217 27.9892 44.0498 27.9405 44.3668 28.0447C44.1337 28.0058 43.9041 28.0623 43.7304 28.2245C43.3726 28.5584 43.3867 29.2134 43.7619 29.6875C44.1371 30.1616 44.7314 30.2753 45.0892 29.9413C45.2075 29.8308 45.2853 29.6851 45.3226 29.5223H45.3227Z" fill="#DD2C00"/>
<path d="M14.4021 35.5868C15.4341 35.8399 16.3757 35.3635 16.5052 34.5228C16.6347 33.6821 15.903 32.7953 14.871 32.5422C13.839 32.2892 12.8975 32.7655 12.768 33.6062C12.6385 34.447 13.3701 35.3337 14.4021 35.5868Z" fill="#DD2C00"/>
<path d="M14.101 31.8373C14.6964 31.9833 15.2396 31.7085 15.3143 31.2234C15.3891 30.7384 14.9669 30.2268 14.3715 30.0808C13.7761 29.9348 13.2329 30.2096 13.1582 30.6947C13.0835 31.1797 13.5056 31.6913 14.101 31.8373Z" fill="#DD2C00"/>
<path d="M36.2602 40.7905C36.8628 40.9383 37.4126 40.6601 37.4882 40.1692C37.5638 39.6783 37.1366 39.1605 36.534 39.0127C35.9314 38.8649 35.3816 39.1431 35.306 39.634C35.2304 40.1249 35.6576 40.6427 36.2602 40.7905Z" fill="#DD2C00"/>
<path d="M34.4856 40.9292C34.8427 40.7378 34.9846 40.3636 34.8025 40.0933C34.6205 39.823 34.1834 39.759 33.8263 39.9504C33.4692 40.1417 33.3273 40.516 33.5093 40.7863C33.6914 41.0565 34.1285 41.1205 34.4856 40.9292Z" fill="#DD2C00"/>
<path d="M45.6101 32.476C45.9672 32.2847 46.1091 31.9105 45.927 31.6402C45.745 31.3699 45.3079 31.3059 44.9508 31.4973C44.5937 31.6886 44.4518 32.0629 44.6338 32.3331C44.8159 32.6034 45.253 32.6674 45.6101 32.476Z" fill="#9B0109"/>
<path d="M38.9106 28.2903C39.6746 27.8809 39.9783 27.0802 39.5888 26.5019C39.1993 25.9237 38.2641 25.7868 37.5001 26.1962C36.7361 26.6056 36.4325 27.4063 36.822 27.9845C37.2115 28.5628 38.1466 28.6997 38.9106 28.2903Z" fill="#9B0109"/>
<path d="M36.0377 28.6961C36.3415 28.5333 36.4622 28.2149 36.3073 27.985C36.1524 27.7551 35.7806 27.7007 35.4768 27.8634C35.173 28.0262 35.0523 28.3446 35.2072 28.5745C35.3621 28.8045 35.7339 28.8589 36.0377 28.6961Z" fill="#9B0109"/>
<path d="M23.5656 20.6027C24.072 20.3313 24.2732 19.8006 24.0151 19.4174C23.7569 19.0341 23.1371 18.9434 22.6308 19.2147C22.1244 19.4861 21.9231 20.0168 22.1813 20.4C22.4394 20.7833 23.0592 20.874 23.5656 20.6027Z" fill="#9B0109"/>
<path d="M21.582 20.8741C21.7833 20.7662 21.8633 20.5552 21.7607 20.4028C21.6581 20.2504 21.4116 20.2143 21.2103 20.3222C21.0089 20.4301 20.9289 20.6411 21.0316 20.7935C21.1342 20.9459 21.3806 20.982 21.582 20.8741Z" fill="#9B0109"/>
<path d="M24.3524 21.7019C24.6689 21.5323 24.7946 21.2007 24.6333 20.9612C24.472 20.7217 24.0847 20.665 23.7683 20.8346C23.4518 21.0041 23.3261 21.3358 23.4874 21.5752C23.6487 21.8147 24.036 21.8714 24.3524 21.7019Z" fill="#9B0109"/>
<path d="M15.6677 13.7794C16.174 13.5081 16.3753 12.9774 16.1171 12.5941C15.859 12.2109 15.2392 12.1201 14.7328 12.3915C14.2264 12.6628 14.0252 13.1935 14.2833 13.5768C14.5415 13.96 15.1613 14.0508 15.6677 13.7794Z" fill="#9B0109"/>
<path d="M16.3628 11.9512C16.5641 11.8433 16.6441 11.6323 16.5415 11.4799C16.4388 11.3276 16.1924 11.2915 15.991 11.3994C15.7897 11.5073 15.7097 11.7183 15.8123 11.8707C15.915 12.023 16.1614 12.0591 16.3628 11.9512Z" fill="#9B0109"/>
<path d="M44.1706 23.2599C44.677 22.9885 44.8782 22.4579 44.62 22.0746C44.3619 21.6913 43.7421 21.6006 43.2357 21.872C42.7294 22.1433 42.5281 22.674 42.7863 23.0572C43.0444 23.4405 43.6642 23.5312 44.1706 23.2599Z" fill="#DD2C00"/>
<path d="M42.32 22.2675C42.5295 22.1552 42.6128 21.9356 42.5059 21.777C42.3991 21.6184 42.1427 21.5809 41.9331 21.6932C41.7236 21.8055 41.6403 22.0251 41.7471 22.1836C41.854 22.3422 42.1104 22.3798 42.32 22.2675Z" fill="#DD2C00"/>
<path d="M43.5543 24.4667C43.7639 24.3544 43.8472 24.1348 43.7403 23.9763C43.6335 23.8177 43.377 23.7801 43.1675 23.8924C42.958 24.0047 42.8747 24.2243 42.9815 24.3829C43.0883 24.5415 43.3448 24.579 43.5543 24.4667Z" fill="#DD2C00"/>
<path d="M26.4047 39.1049C27.0001 39.2509 27.5434 38.9761 27.6181 38.491C27.6928 38.006 27.2707 37.4944 26.6753 37.3484C26.0798 37.2024 25.5366 37.4772 25.4619 37.9622C25.3872 38.4473 25.8093 38.9589 26.4047 39.1049Z" fill="#DD2C00"/>
<path d="M33.8822 39.3471C34.4777 39.4931 35.0209 39.2183 35.0956 38.7332C35.1703 38.2482 34.7482 37.7366 34.1528 37.5906C33.5574 37.4445 33.0141 37.7194 32.9394 38.2044C32.8647 38.6895 33.2868 39.2011 33.8822 39.3471Z" fill="#DD2C00"/>
<path d="M11.1609 31.8144C11.6373 31.9313 12.072 31.7114 12.1318 31.3232C12.1916 30.9351 11.8538 30.5257 11.3774 30.4088C10.9009 30.292 10.4662 30.5119 10.4064 30.9001C10.3466 31.2882 10.6844 31.6976 11.1609 31.8144Z" fill="#330099"/>
<path d="M16.9733 38.3426C17.6402 38.5061 18.2486 38.1983 18.3323 37.655C18.4159 37.1117 17.9432 36.5388 17.2763 36.3752C16.6094 36.2117 16.001 36.5195 15.9173 37.0628C15.8337 37.606 16.3064 38.179 16.9733 38.3426Z" fill="#330099"/>
<path d="M28.7384 42.8349C29.8139 43.0987 30.7952 42.6022 30.9301 41.7261C31.0651 40.85 30.3026 39.9259 29.2271 39.6621C28.1516 39.3984 27.1704 39.8948 27.0354 40.771C26.9005 41.6471 27.663 42.5712 28.7384 42.8349Z" fill="#330099"/>
<path fill-rule="evenodd" clip-rule="evenodd" d="M30.9452 41.4767C30.9916 41.6755 31.0021 41.8786 30.9712 42.0795C30.8172 43.0791 29.6975 43.6456 28.4704 43.3447C27.2433 43.0439 26.3729 41.9892 26.5269 40.9896C26.6421 40.2419 27.2978 39.7366 28.1344 39.6553C27.5535 39.806 27.1219 40.2106 27.0357 40.7702C26.9007 41.6463 27.6635 42.5705 28.7389 42.8341C29.8143 43.0978 30.7956 42.6013 30.9305 41.7253C30.9433 41.6426 30.9481 41.5594 30.9452 41.4765V41.4767Z" fill="#9B0109"/>
<path fill-rule="evenodd" clip-rule="evenodd" d="M37.0299 22.3097C36.6374 22.583 35.9683 23.3828 34.834 23.0285C33.2551 22.5354 32.385 22.2833 31.8666 21.9501C31.3482 21.6168 31.3878 22.2404 32.3172 22.6355C33.2466 23.0307 33.6204 23.4229 34.4647 23.5769C35.3092 23.7311 36.0766 24.2093 36.9343 23.7482C37.9738 23.1893 37.828 21.7538 37.0299 22.3097Z" fill="#FFD740"/>
<path fill-rule="evenodd" clip-rule="evenodd" d="M28.9103 20.2685C28.6787 20.0993 27.8904 20.0206 27.8458 20.1347C27.801 20.2489 27.5893 20.0108 28.3021 20.6063C29.0151 21.2018 29.6877 20.9493 28.9103 20.2685Z" fill="#FFD740"/>
<path fill-rule="evenodd" clip-rule="evenodd" d="M18.3269 37.3704C18.3901 37.5387 18.4128 37.7153 18.3861 37.8891C18.2896 38.5153 17.5881 38.8702 16.8194 38.6817C16.0505 38.4932 15.5054 37.8326 15.6019 37.2062C15.6736 36.7403 16.0806 36.4244 16.6011 36.3711C16.2395 36.464 15.9708 36.7153 15.9172 37.0631C15.8335 37.6063 16.3064 38.1794 16.9733 38.3429C17.6401 38.5063 18.2486 38.1984 18.3322 37.6554C18.3468 37.5605 18.3443 37.4647 18.3269 37.3704Z" fill="#9B0109"/>
<path fill-rule="evenodd" clip-rule="evenodd" d="M30.8098 6.62392C30.8906 6.7931 30.9249 6.97503 30.8998 7.15445C30.8219 7.70868 30.2065 8.03039 29.5252 7.87275C28.8439 7.71499 28.3546 7.13779 28.4325 6.58344C28.5015 6.09112 28.9948 5.7824 29.5819 5.83002C29.1253 5.83609 28.7571 6.09505 28.7016 6.48938C28.6339 6.97146 29.0594 7.47342 29.6519 7.61058C30.2444 7.74773 30.7797 7.46794 30.8473 6.98586C30.8644 6.86454 30.8501 6.74179 30.8098 6.62392Z" fill="#DD2C00"/>
<path fill-rule="evenodd" clip-rule="evenodd" d="M26.1869 42.9707C26.1869 42.9707 25.9958 41.9216 25.5913 41.3773C25.1867 40.833 24.2412 41.3348 23.4355 41.1058C22.6298 40.8769 21.9818 41.2087 22.7288 41.6435C23.4757 42.0784 24.1548 42.0734 24.7039 42.559C25.2531 43.0445 26.4018 43.5131 26.1869 42.9706V42.9707Z" fill="#DD2C00"/>
<path fill-rule="evenodd" clip-rule="evenodd" d="M40.6141 40.6628C36.455 43.625 31.1671 45.0412 25.7011 44.2167C18.5715 43.1414 12.8778 38.5173 10.1724 32.4355C12.6547 36.553 13.9138 33.708 14.1787 36.5681C14.1983 36.7796 15.0666 38.5546 16.7131 39.3131C18.3597 40.0715 19.0476 39.9203 19.8353 40.2674C20.6228 40.6144 22.1736 42.2579 24.0017 43.0707C25.8298 43.8834 28.7931 44.196 29.6595 44.0315C30.526 43.8668 31.3283 43.2363 32.6473 42.9518C33.9662 42.6674 35.4326 42.835 36.4247 42.206C37.4168 41.5772 38.7382 41.296 39.7711 40.912C40.0043 40.8252 40.2985 40.7411 40.614 40.6628H40.6141Z" fill="#FFD740"/>
<path fill-rule="evenodd" clip-rule="evenodd" d="M11.9438 30.7512C12.1783 30.9597 12.3091 31.2431 12.2669 31.5173C12.1983 31.9622 11.6998 32.2144 11.1537 32.0805C10.6074 31.9466 10.2201 31.4772 10.2886 31.0321C10.3156 30.8571 10.409 30.7119 10.5458 30.6084C10.4729 30.6888 10.4235 30.7877 10.4061 30.9008C10.3464 31.2889 10.6842 31.6984 11.1607 31.8152C11.6372 31.932 12.0719 31.7121 12.1316 31.324C12.1624 31.1244 12.0881 30.9193 11.9438 30.7512Z" fill="#9B0109"/>
<path fill-rule="evenodd" clip-rule="evenodd" d="M12.2954 7.73129C13.5643 7.93012 14.8927 8.19789 16.2642 8.52638C15.2862 9.28217 14.3771 10.1262 13.5511 11.0492C12.9623 10.9324 12.3843 10.8287 11.8198 10.7403C2.79417 9.32623 0.469664 12.0769 7.63434 18.4447C8.07877 18.8399 8.54569 19.2348 9.0309 19.629C17.9442 26.8719 33.4169 33.8438 44.1802 35.5301C44.6365 35.6016 45.079 35.6638 45.5071 35.7169C54.4359 36.8228 54.1351 33.0636 48.6977 28.1241C48.7448 27.879 48.7891 27.6326 48.8274 27.3838C48.9824 26.3776 49.0583 25.3776 49.0612 24.3897C49.5334 24.776 49.9889 25.1633 50.4251 25.551C60.3258 34.3505 56.3975 40.528 43.7046 38.5391C43.543 38.5137 43.3798 38.4868 43.2163 38.4593C32.5181 36.6582 17.8467 30.173 8.50009 23.1072C7.45436 22.3166 6.4742 21.519 5.57488 20.7195C-4.32576 11.92 -0.397528 5.7425 12.2954 7.73141V7.73129Z" fill="url(#paint0_linear)"/>
<path fill-rule="evenodd" clip-rule="evenodd" d="M41.2437 34.9669C42.2536 35.193 43.2353 35.3827 44.1802 35.5307C44.3028 35.5498 44.4243 35.5683 44.5449 35.5862C44.2243 36.1707 43.6287 37.3679 42.6091 37.3584C41.8376 37.3511 41.554 37.7386 40.9639 38.024C40.1228 37.8419 39.2634 37.6355 38.3888 37.4056C38.2375 36.7607 39.2131 36.5423 39.7955 36.0749C40.1489 35.7911 40.7117 35.2942 41.2437 34.9668V34.9669Z" fill="#FF3D00"/>
<path fill-rule="evenodd" clip-rule="evenodd" d="M9.59458 20.0791C10.113 20.4874 10.6509 20.8944 11.2076 21.2995C11.437 21.6948 11.6188 22.1129 11.6964 22.4663C11.6964 22.4663 12.0152 24.4476 14.3301 24.7431C15.0968 24.8409 15.7477 24.7828 16.3247 24.6669C18.1598 25.7677 20.0957 26.8303 22.0855 27.8345C22.0713 27.8452 22.057 27.8558 22.0423 27.8663C20.9158 28.6629 20.1839 28.6599 19.9571 29.7802C19.9351 29.8888 19.9137 30.0122 19.8918 30.1466C15.9633 28.1212 12.2591 25.8772 9.10938 23.5608C9.14535 21.9893 9.2813 20.5636 9.5947 20.0792L9.59458 20.0791Z" fill="#FF3D00"/>
<path fill-rule="evenodd" clip-rule="evenodd" d="M13.5502 11.0494C12.9617 10.9326 12.3841 10.8289 11.8198 10.7407C5.47498 9.74661 2.44174 10.8107 3.68851 13.7425C3.6713 13.7022 3.65506 13.6622 3.63942 13.6225C2.58419 11.6647 1.61918 7.94725 9.04722 7.3879C9.71012 7.37933 11.702 7.63686 12.4144 7.75056L16.2629 8.52636C15.285 9.28216 14.3762 10.1264 13.55 11.0494H13.5502Z" fill="#330099"/>
<path fill-rule="evenodd" clip-rule="evenodd" d="M48.6992 28.1255C53.0621 32.0894 54.1166 35.2929 49.7472 35.8316C49.7472 35.8316 56.7874 35.2337 53.5987 28.8405C52.7676 27.7966 51.7135 26.6961 50.4253 25.5511C49.9891 25.1633 49.5337 24.7761 49.0622 24.3896C49.0593 25.3776 48.9827 26.3777 48.8277 27.3838C48.7893 27.6327 48.7465 27.88 48.6993 28.1254L48.6992 28.1255Z" fill="#330099"/>
<path d="M27.4452 27.8982C27.7617 27.7286 27.8874 27.397 27.7261 27.1575C27.5648 26.918 27.1775 26.8613 26.861 27.0309C26.5446 27.2004 26.4189 27.532 26.5802 27.7715C26.7415 28.011 27.1288 28.0677 27.4452 27.8982Z" fill="#9B0109"/>
<path d="M35.3961 27.6777C35.6057 27.5654 35.6889 27.3458 35.5821 27.1872C35.4753 27.0286 35.2188 26.991 35.0093 27.1033C34.7997 27.2156 34.7165 27.4352 34.8233 27.5938C34.9301 27.7524 35.1866 27.7899 35.3961 27.6777Z" fill="#9B0109"/>
<path fill-rule="evenodd" clip-rule="evenodd" d="M27.0099 30.1523C30.1667 31.5327 33.3602 32.7324 36.4181 33.6746C36.0494 33.7955 35.673 33.9817 35.2944 34.2955C34.4172 35.0228 34.0752 35.5498 32.9544 35.7501C29.9884 34.7301 26.9503 33.5058 23.9722 32.1359C24.8179 31.3905 25.8541 30.6036 27.0099 30.1523Z" fill="#FF3D00"/>
<path fill-rule="evenodd" clip-rule="evenodd" d="M16.4925 4.81401C17.0752 4.95689 17.3667 6.23929 17.2937 6.71399C17.2206 7.18868 16.689 7.45764 16.1063 7.31465C15.5237 7.17177 15.1106 6.67112 15.1837 6.19655C15.2567 5.72185 15.9099 4.67114 16.4925 4.81401Z" fill="#330099"/>
<path fill-rule="evenodd" clip-rule="evenodd" d="M14.0616 3.84953C14.7523 4.01896 14.2899 4.53283 14.2032 5.09551C14.1166 5.65819 14.3982 6.33528 13.7076 6.16586C13.0169 5.99656 12.8223 5.40304 12.9089 4.84036C12.9956 4.27768 13.3709 3.68023 14.0616 3.84953Z" fill="#330099"/>
<path fill-rule="evenodd" clip-rule="evenodd" d="M15.9845 3.8602C16.3163 3.62232 16.5047 3.56516 16.3359 3.28323C16.1671 3.00129 15.8523 2.81151 15.5205 3.04939C15.1888 3.28728 15.0944 3.75114 15.2632 4.03308C15.432 4.31501 15.6527 4.09808 15.9845 3.8602Z" fill="#330099"/>
<path fill-rule="evenodd" clip-rule="evenodd" d="M10.5454 11.8693C10.9445 11.9616 11.1405 11.9421 11.095 12.2668C11.0495 12.5914 10.8334 12.887 10.4345 12.7947C10.0355 12.7025 9.76725 12.3108 9.81261 11.9862C9.85809 11.6616 10.1463 11.7771 10.5453 11.8694L10.5454 11.8693Z" fill="#330099"/>
<path fill-rule="evenodd" clip-rule="evenodd" d="M11.6592 6.02753C12.0581 6.1198 12.2542 6.10051 12.2088 6.42507C12.1633 6.74963 11.9472 7.04526 11.5483 6.95298C11.1493 6.86071 10.881 6.469 10.9264 6.14444C10.9719 5.81988 11.2601 5.93526 11.6592 6.02765V6.02753Z" fill="#330099"/>
<path fill-rule="evenodd" clip-rule="evenodd" d="M43.8206 39.3746C44.4033 39.5174 44.6948 40.7998 44.6218 41.2745C44.5487 41.7492 44.0171 42.0182 43.4344 41.8752C42.8518 41.7323 42.4388 41.2317 42.5118 40.7571C42.5848 40.2824 43.2381 39.2317 43.8208 39.3746H43.8206Z" fill="#3300CC"/>
<path fill-rule="evenodd" clip-rule="evenodd" d="M52.0116 21.6508C52.8483 21.8561 53.2668 23.6976 53.1619 24.3791C53.057 25.0606 52.4008 24.7301 51.5642 24.5249C50.7276 24.3199 50.0271 24.3177 50.132 23.636C50.2369 22.9545 51.1749 21.4458 52.0115 21.6508H52.0116Z" fill="#330099"/>
<path fill-rule="evenodd" clip-rule="evenodd" d="M54.5183 25.8292C55.101 25.9721 55.645 25.9916 55.572 26.4663C55.4989 26.9409 54.9673 27.21 54.3846 27.067C53.802 26.9241 53.389 26.4234 53.462 25.9489C53.535 25.4742 53.9356 25.6865 54.5183 25.8293V25.8292Z" fill="#330099"/>
<path fill-rule="evenodd" clip-rule="evenodd" d="M50.4517 19.8849C50.8506 19.9772 51.0466 19.9578 51.0012 20.2824C50.9558 20.607 50.7397 20.9026 50.3407 20.8104C49.9418 20.7181 49.6735 20.3264 49.7189 20.0018C49.7643 19.6773 50.0526 19.7927 50.4517 19.885V19.8849Z" fill="#330099"/>
<path fill-rule="evenodd" clip-rule="evenodd" d="M55.3956 22.1318C56.0863 22.3012 55.6238 22.8151 55.5372 23.3777C55.4506 23.9404 55.7322 24.6175 55.0415 24.4481C54.3508 24.2788 54.1563 23.6853 54.2429 23.1226C54.3295 22.5599 54.7049 21.9625 55.3956 22.1318Z" fill="#330099"/>
<path fill-rule="evenodd" clip-rule="evenodd" d="M9.65678 13.2715C10.3475 13.441 10.2337 13.9548 10.1469 14.5174C10.0603 15.0801 9.91292 15.1466 9.22222 14.9773C8.53153 14.808 8.41747 14.8249 8.5041 14.2622C8.59072 13.6996 8.96608 13.1021 9.65678 13.2714V13.2715Z" fill="#330099"/>
<path fill-rule="evenodd" clip-rule="evenodd" d="M6.9541 24.7034C7.35317 24.7957 7.54916 24.7762 7.50368 25.1009C7.4582 25.4255 7.24213 25.7211 6.84318 25.6287C6.44423 25.5365 6.17594 25.1447 6.2213 24.8202C6.26678 24.4956 6.55504 24.6111 6.95398 24.7034H6.9541Z" fill="#330099"/>
<path fill-rule="evenodd" clip-rule="evenodd" d="M4.22419 22.5722C4.91488 22.7416 4.45253 23.2555 4.36579 23.8182C4.27917 24.3808 4.56081 25.0579 3.87012 24.8885C3.17942 24.7192 2.985 24.1257 3.0715 23.563C3.15812 23.0003 3.53349 22.4029 4.22419 22.5722Z" fill="#330099"/>
<path fill-rule="evenodd" clip-rule="evenodd" d="M6.28649 29.0145C6.6183 28.7766 6.8067 28.7195 6.63779 28.4376C6.469 28.1556 6.15415 27.9658 5.82233 28.2036C5.49052 28.4415 5.3962 28.9054 5.56499 29.1873C5.73378 29.4692 5.95443 29.2523 6.28637 29.0145H6.28649Z" fill="#330099"/>
<path fill-rule="evenodd" clip-rule="evenodd" d="M48.5471 40.9533C49.1298 41.0961 49.6738 41.1157 49.6008 41.5903C49.5278 42.0649 48.9962 42.334 48.4135 42.191C47.8308 42.0481 47.4178 41.5475 47.4908 41.0729C47.5638 40.5982 47.9645 40.8105 48.5471 40.9533Z" fill="#330099"/>
<path fill-rule="evenodd" clip-rule="evenodd" d="M45.3911 44.4103C45.7902 44.5026 45.9862 44.4833 45.9407 44.8079C45.8952 45.1325 45.6791 45.4281 45.2802 45.3358C44.8812 45.2435 44.613 44.8518 44.6583 44.5273C44.7038 44.2027 44.992 44.3181 45.391 44.4105L45.3911 44.4103Z" fill="#330099"/>
<path fill-rule="evenodd" clip-rule="evenodd" d="M32.9998 0.0189805C33.8364 0.224241 34.2551 2.06564 34.1502 2.74726C34.0453 3.42876 33.3891 3.09825 32.5525 2.89311C31.7158 2.68809 31.0154 2.6857 31.1203 2.0042C31.2252 1.32258 32.1631 -0.186042 32.9998 0.0189805Z" fill="#330099"/>
<path fill-rule="evenodd" clip-rule="evenodd" d="M7.8336 35.6796C8.5243 35.849 8.06195 36.3629 7.9752 36.9256C7.88846 37.4883 8.17023 38.1654 7.47953 37.9959C6.78883 37.8266 6.59429 37.2331 6.68091 36.6704C6.76754 36.1078 7.1429 35.5103 7.8336 35.6796Z" fill="#330099"/>
<path fill-rule="evenodd" clip-rule="evenodd" d="M28.875 47.3137C29.2739 47.4059 29.4701 47.3865 29.4246 47.7112C29.3791 48.0358 29.163 48.3314 28.7641 48.2391C28.3651 48.1468 28.0968 47.7551 28.1422 47.4306C28.1877 47.106 28.4759 47.2214 28.875 47.3138V47.3137Z" fill="#330099"/>
<path fill-rule="evenodd" clip-rule="evenodd" d="M20.3352 43.7093C21.1719 43.9146 21.5905 45.756 21.4855 46.4376C21.3806 47.1192 20.7246 46.7886 19.8879 46.5836C19.0513 46.3784 18.3508 46.3762 18.4558 45.6946C18.5607 45.013 19.4986 43.5043 20.3352 43.7094V43.7093Z" fill="#330099"/>
<path fill-rule="evenodd" clip-rule="evenodd" d="M50.8053 13.5458C51.496 13.7152 51.0335 14.2291 50.9469 14.7918C50.8603 15.3545 51.1419 16.0316 50.4512 15.8622C49.7605 15.6928 49.566 15.0993 49.6526 14.5366C49.7392 13.974 50.1146 13.3765 50.8053 13.5458Z" fill="#330099"/>
<path fill-rule="evenodd" clip-rule="evenodd" d="M24.6957 0.934687C25.2783 1.07756 25.8224 1.09709 25.7492 1.57178C25.6762 2.04636 25.1447 2.31532 24.5619 2.17244C23.9792 2.02957 23.5662 1.52892 23.6392 1.05434C23.7123 0.579649 24.1129 0.791933 24.6955 0.934806L24.6957 0.934687Z" fill="#330099"/>
<path fill-rule="evenodd" clip-rule="evenodd" d="M41.6377 5.35365C42.0366 5.44593 42.2327 5.42652 42.1873 5.7512C42.1418 6.07576 41.9257 6.37139 41.5268 6.27911C41.1278 6.18684 40.8595 5.79513 40.9049 5.47057C40.9504 5.14601 41.2386 5.2615 41.6377 5.35377V5.35365Z" fill="#330099"/>
<path fill-rule="evenodd" clip-rule="evenodd" d="M47.3235 8.88366C47.7225 8.97593 47.8112 9.67315 47.7659 9.99771C47.7204 10.3224 47.5043 10.6179 47.1054 10.5256C46.7064 10.4333 46.4381 10.0416 46.4835 9.71708C46.529 9.39252 46.9244 8.79127 47.3234 8.88354L47.3235 8.88366Z" fill="#330099"/>
<path fill-rule="evenodd" clip-rule="evenodd" d="M39.12 45.6974C39.7026 45.8403 40.2467 45.8598 40.1735 46.3345C40.1005 46.809 39.569 47.0781 38.9862 46.9351C38.4035 46.7923 37.9905 46.2916 38.0635 45.817C38.1366 45.3423 38.5372 45.5546 39.1199 45.6975L39.12 45.6974Z" fill="#330099"/>
<defs>
<linearGradient id="paint0_linear" x1="30.6265" y1="19.9139" x2="20.0107" y2="40.3578" gradientUnits="userSpaceOnUse">
<stop stop-color="#F50057"/>
<stop offset="1" stop-color="#FFC400"/>
</linearGradient>
</defs>
</svg>
