<svg width="615" height="217" viewBox="0 0 615 217" fill="none" xmlns="http://www.w3.org/2000/svg">
    <path d="M326.344 196.11C315.926 196.11 308.425 193.905 303.842 189.496C299.258 185.087 296.897 177.785 296.758 167.589C296.341 148.574 296.133 130.042 296.133 111.993C296.133 93.943 296.341 75.4111 296.758 56.3969C296.897 46.2009 299.258 38.8983 303.842 34.4892C308.425 30.0802 315.926 27.8756 326.344 27.8756C336.622 27.8756 343.984 30.0802 348.429 34.4892C353.012 38.8983 355.443 46.2009 355.721 56.3969C355.999 75.5489 356.138 94.1497 356.138 112.199C356.138 130.111 355.999 148.574 355.721 167.589C355.443 177.785 353.012 185.087 348.429 189.496C343.984 193.905 336.622 196.11 326.344 196.11ZM326.344 182.883C331.066 182.883 334.4 181.918 336.344 179.989C338.428 177.922 339.539 174.616 339.678 170.069C340.234 150.641 340.442 131.214 340.303 111.786C340.303 92.2207 340.095 72.931 339.678 53.9168C339.539 49.3699 338.428 46.132 336.344 44.203C334.261 42.1363 330.927 41.1029 326.344 41.1029C321.621 41.1029 318.148 42.1363 315.926 44.203C313.843 46.132 312.801 49.3699 312.801 53.9168C312.245 72.931 311.967 92.2207 311.967 111.786C311.967 131.214 312.245 150.641 312.801 170.069C312.801 174.616 313.843 177.922 315.926 179.989C318.148 181.918 321.621 182.883 326.344 182.883Z" fill="#330099"/>
    <path d="M375.688 194.663V29.3224H402.982C413.122 29.3224 420.484 31.5269 425.067 35.936C429.651 40.3451 432.151 47.6476 432.568 57.8436C432.985 66.6618 433.193 74.7222 433.193 82.0247C433.193 89.3273 432.985 96.6298 432.568 103.932C432.151 117.573 427.498 126.184 418.609 129.767L435.693 194.663H418.609L403.399 132.454H391.731V194.663H375.688ZM391.731 118.193H402.774C407.497 118.193 410.9 117.091 412.983 114.886C415.206 112.682 416.386 109.306 416.525 104.759C417.22 88.9139 417.22 72.9999 416.525 57.0169C416.386 52.4701 415.206 49.0943 412.983 46.8898C410.9 44.6853 407.566 43.583 402.982 43.583H391.731V118.193Z" fill="#330099"/>
    <path d="M450.564 194.663V29.3224H477.025C487.303 29.3224 494.804 31.5269 499.527 35.936C504.249 40.3451 506.68 47.6476 506.819 57.8436C506.958 64.0439 506.958 69.5553 506.819 74.3777C506.819 79.0624 506.749 83.6092 506.61 88.0183C506.333 93.943 505.152 98.6277 503.069 102.072C500.985 105.517 497.79 107.997 493.484 109.513V113.439C497.929 114.955 501.193 117.435 503.277 120.88C505.499 124.324 506.68 129.078 506.819 135.14C506.958 140.79 507.027 146.025 507.027 150.848C507.027 155.532 506.958 160.63 506.819 166.142C506.541 176.338 504.11 183.64 499.527 188.049C494.943 192.459 487.512 194.663 477.233 194.663H450.564ZM466.607 104.139H477.025C485.914 104.139 490.498 98.6277 490.776 87.605C491.054 77.409 491.054 67.2129 490.776 57.0169C490.498 48.061 485.914 43.583 477.025 43.583H466.607V104.139ZM466.607 180.402H477.233C486.123 180.402 490.637 175.58 490.776 165.935C491.193 155.877 491.193 145.819 490.776 135.76C490.776 129.56 489.595 125.151 487.234 122.533C485.012 119.778 481.47 118.4 476.608 118.4H466.607V180.402Z" fill="#330099"/>
    <path d="M524.626 194.663V29.3224H540.669V194.663H524.626Z" fill="#330099"/>
    <path d="M576.494 194.663V43.583H554.617V29.3224H614.414V43.583H592.537V194.663H576.494Z" fill="#330099"/>
    <path fill-rule="evenodd" clip-rule="evenodd" d="M216.589 126.724C235.94 144.499 240.617 158.865 221.237 161.281C221.237 161.281 252.463 158.6 238.32 129.93C234.634 125.249 229.958 120.314 224.244 115.179C222.31 113.44 220.29 111.704 218.199 109.971C218.186 114.401 217.846 118.886 217.159 123.398C216.988 124.514 216.798 125.623 216.589 126.723L216.589 126.724Z" fill="#330099"/>
    <path fill-rule="evenodd" clip-rule="evenodd" d="M231.277 97.6863C234.988 98.6068 236.845 106.865 236.379 109.921C235.914 112.977 233.004 111.495 229.293 110.575C225.582 109.656 222.475 109.645 222.941 106.589C223.406 103.533 227.566 96.7669 231.277 97.6863H231.277Z" fill="#330099"/>
    <path fill-rule="evenodd" clip-rule="evenodd" d="M242.397 116.417C244.981 117.058 247.394 117.146 247.07 119.274C246.746 121.402 244.388 122.609 241.804 121.968C239.22 121.327 237.388 119.082 237.712 116.954C238.036 114.825 239.813 115.777 242.397 116.418V116.417Z" fill="#330099"/>
    <path fill-rule="evenodd" clip-rule="evenodd" d="M224.362 89.7624C226.132 90.1762 227.001 90.0892 226.8 91.5451C226.598 93.0006 225.64 94.3263 223.87 93.9125C222.101 93.4987 220.911 91.7421 221.112 90.2867C221.314 88.8313 222.592 89.3491 224.362 89.7629V89.7624Z" fill="#330099"/>
    <path fill-rule="evenodd" clip-rule="evenodd" d="M246.286 99.8436C249.35 100.603 247.298 102.908 246.914 105.431C246.53 107.954 247.779 110.991 244.716 110.231C241.652 109.472 240.789 106.81 241.174 104.287C241.558 101.764 243.223 99.0843 246.286 99.8436Z" fill="#330099"/>
    <path fill-rule="evenodd" clip-rule="evenodd" d="M215.911 184.238C218.495 184.879 220.908 184.967 220.585 187.095C220.261 189.224 217.903 190.43 215.318 189.789C212.734 189.148 210.902 186.903 211.226 184.775C211.55 182.646 213.327 183.598 215.911 184.238Z" fill="#330099"/>
    <path fill-rule="evenodd" clip-rule="evenodd" d="M225.93 61.3383C228.993 62.0981 226.942 64.4024 226.558 66.9257C226.174 69.449 227.423 72.4854 224.359 71.7256C221.296 70.9664 220.433 68.3048 220.817 65.7815C221.201 63.2583 222.866 60.5791 225.93 61.3383Z" fill="#330099"/>
    <path fill-rule="evenodd" clip-rule="evenodd" d="M210.487 40.4332C212.257 40.847 212.651 43.9736 212.449 45.4291C212.248 46.885 211.289 48.2102 209.52 47.7964C207.75 47.3826 206.56 45.6261 206.762 44.1706C206.963 42.7152 208.717 40.0189 210.487 40.4327L210.487 40.4332Z" fill="#330099"/>
    <path d="M114.58 198.879C163.738 206.375 209.663 172.581 217.156 123.396C224.648 74.2105 190.872 28.2609 141.714 20.7641C92.5554 13.2673 46.6308 47.0623 39.1381 96.2472C31.6454 145.432 65.4219 191.382 114.58 198.879Z" fill="#330099"/>
    <path fill-rule="evenodd" clip-rule="evenodd" d="M52.4601 101.336C52.4601 101.336 53.8742 110.221 64.1411 111.546C74.4086 112.871 79.9908 107.823 86.0239 108.502C92.0571 109.181 100.931 110.173 100.989 112.951C101.048 115.729 103.344 121.979 98.348 125.551C93.3516 129.124 90.1045 129.111 89.0987 134.134C88.0928 139.158 87.3228 151.321 82.4375 150.215C77.5516 149.108 77.2021 137.978 73.4779 133.197C69.7543 128.415 63.5211 127.464 55.9388 125.104C48.3566 122.744 40.9093 120.283 40.9403 109.814C40.9707 99.3443 41.8245 88.9992 44.5753 89.9005C47.3262 90.8017 51.5407 97.103 52.4601 101.337V101.336Z" fill="#3300CC"/>
    <path fill-rule="evenodd" clip-rule="evenodd" d="M196.259 156.62C196.259 156.62 190.869 157.243 188.154 156.107C185.44 154.97 179.839 160.136 177.093 162.367C174.346 164.596 169.627 165.562 171.042 168.908C172.458 172.255 170.315 172.891 177.251 172.383C184.187 171.876 184.525 168.075 189.572 168.122C194.619 168.17 197.323 161.479 198.604 159.386C199.885 157.294 196.258 156.621 196.258 156.621L196.259 156.62Z" fill="#3300CC"/>
    <path fill-rule="evenodd" clip-rule="evenodd" d="M178.745 134.925C178.612 136.59 175.661 148.059 171.458 149.585C167.255 151.111 162.234 150.105 157.13 154.383C152.026 158.661 151.008 161.395 140.914 161.301C130.821 161.206 115.57 160.205 111.588 157.913C107.605 155.62 100.146 150.87 106.017 145.505C111.888 140.14 120.056 133.921 129.173 134.107C138.29 134.293 142.324 134.668 152.274 135.703C162.224 136.739 168.554 136.26 171.934 134.608C175.315 132.957 179.364 131.648 178.745 134.924V134.925Z" fill="#3300CC"/>
    <path fill-rule="evenodd" clip-rule="evenodd" d="M190.672 174.643C171.165 193.454 143.43 203.284 114.578 198.884C76.3883 193.06 47.4868 164.025 40.0022 128.298C40.285 128.694 51.9137 131.814 55.7889 136.781C59.6641 141.75 56.8626 153.583 61.8994 157.986C66.9368 162.389 80.4732 155.906 84.0416 159.34C87.6099 162.773 87.5533 173.39 92.1227 177.461C96.6916 181.533 96.0091 181.576 103.479 181.936C110.948 182.297 116.697 179.194 118.09 178.491C130.08 172.435 137.61 171.235 143.16 186.237C144.813 190.708 149.824 189.331 152.094 188.055C154.364 186.778 157.792 181.077 160.84 181.086C163.887 181.097 174.175 180.691 177.518 178.12C180.862 175.548 190.273 174.789 190.672 174.642V174.643Z" fill="#DD2C00"/>
    <path fill-rule="evenodd" clip-rule="evenodd" d="M141.711 20.7593C190.869 28.256 224.645 74.2052 217.153 123.39C215.769 132.478 213.068 141.039 209.282 148.913C204.762 153.373 205.983 146.477 207.731 141.814C209.479 137.148 212.612 131.914 214.257 122.818C215.903 113.723 210.048 124.902 207.703 129.218C205.359 133.534 199.556 139.268 196.371 142.288C193.186 145.307 192.617 142.234 190.435 136.969C188.253 131.703 192.701 125.502 193.805 119.959C194.909 114.416 198.786 105.141 198.051 102.303C197.316 99.4646 192.981 95.559 188.104 95.2045C183.228 94.85 181.427 103.272 179.54 107.139C177.653 111.006 178.629 111.414 177.961 114.947C177.293 118.479 168.997 119.291 165.926 119.861C162.856 120.431 161.091 120.941 153.709 120.854C146.328 120.767 148.603 123.71 145.924 125.119C143.244 126.527 131.497 121.88 127.509 121.661C123.521 121.442 120.768 118.096 118.606 120.363C116.445 122.63 107.12 120.819 106.844 119.219C106.57 117.619 111.159 115.593 114.128 112.281C117.098 108.969 120.657 110.691 121.562 109.012C122.466 107.333 116.374 101.919 113.776 98.5377C111.177 95.1564 109.582 83.4894 107.933 83.2379C106.285 82.9864 102.619 83.2064 98.6826 85.2022C94.7461 87.1979 89.4664 91.1954 86.0475 94.0491C82.6285 96.9029 82.3201 98.9328 78.8404 100.479C75.3612 102.025 64.2341 100.977 60.3503 99.2163C56.4672 97.4555 56.5333 96.1677 55.5418 91.6033C54.5504 87.0388 55.5531 78.7536 57.1603 77.5709C58.7676 76.3883 62.3461 75.8955 64.7527 74.5752C67.1599 73.2548 67.058 70.5131 67.4118 65.6342C67.7661 60.7553 70.6434 61.4542 74.6077 58.4237C78.572 55.3932 79.8137 50.6505 79.8137 50.6505C79.8137 50.6505 78.8996 45.5778 76.5789 45.4838C74.2581 45.3898 71.336 47.5399 69.3093 48.9179C67.2826 50.296 65.3258 52.0755 62.6076 53.7376C59.8968 55.3948 55.0776 57.1733 55.0493 57.1835C74.1808 30.6303 107.147 15.4869 141.711 20.7583V20.7593Z" fill="#FF6D00"/>
    <path fill-rule="evenodd" clip-rule="evenodd" d="M141.713 20.7679C181.504 26.8363 211.212 58.0996 217.117 95.8783C216.256 94.4992 215.348 92.5942 214.695 90.0586C213.03 83.6041 208.522 80.0258 207.305 79.7199C206.087 79.4145 204.692 80.2848 203.899 82.3307C203.106 84.3772 204.348 87.2753 203.253 86.5663C202.158 85.8578 202.369 84.8668 201.069 83.5246C199.77 82.1829 197.108 83.4621 196.613 82.3639C196.119 81.2651 199.835 80.5672 201.688 79.4652C203.54 78.3627 205.184 73.4972 204.254 71.3081C203.324 69.1191 198.836 67.7731 195.466 70.149C192.095 72.5249 186.989 71.6856 190.226 70.9755C193.463 70.2654 197.266 66.631 198.427 62.955C199.588 59.279 192.603 56.1674 188.672 51.9559C184.741 47.7444 186.346 50.6376 183.498 51.1668C180.65 51.6959 178.141 55.5272 179.211 57.9774C180.282 60.428 178.07 63.1008 177.247 62.9753C176.423 62.8498 174.325 62.4094 172.638 59.2625C170.952 56.1156 168.953 55.8107 166.036 52.8379C163.12 49.8645 164.363 46.4427 161.787 41.2338C159.211 36.025 153.329 33.5631 149.911 33.8845C146.492 34.2059 144.074 37.4489 141.702 42.7464C139.331 48.0439 134.864 48.9275 133.532 47.4C132.2 45.8725 133.534 41.8617 135.475 39.3886C137.417 36.9155 139.486 29.6458 139.231 28.1626C138.976 26.6794 136.872 23.1069 131.888 21.8656C127.059 20.6632 120.501 20.117 120.091 20.0839C127.15 19.455 134.396 19.6525 141.714 20.7684L141.713 20.7679Z" fill="#FFD740"/>
    <path fill-rule="evenodd" clip-rule="evenodd" d="M218.183 108.743C218.236 113.573 217.906 118.47 217.154 123.4C215.77 132.488 213.07 141.049 209.283 148.923C204.763 153.383 205.984 146.487 207.732 141.824C209.48 137.158 212.613 131.923 214.258 122.828C215.904 113.733 210.049 124.912 207.704 129.228C205.36 133.544 199.557 139.279 196.372 142.298C193.188 145.318 192.618 142.245 190.436 136.98C188.254 131.714 192.702 125.513 193.806 119.97C194.91 114.426 198.787 105.152 198.053 102.314C197.317 99.4754 192.982 95.5698 188.106 95.2148C183.229 94.8613 181.428 103.283 179.541 107.149C177.654 111.016 178.631 111.423 177.962 114.957C177.294 118.49 168.998 119.301 165.927 119.872C162.856 120.442 161.091 120.952 153.71 120.865C146.328 120.777 148.604 123.721 145.924 125.129C143.244 126.538 131.498 121.891 127.509 121.672C123.521 121.453 120.768 118.108 118.606 120.374C116.445 122.64 107.12 120.83 106.845 119.23C106.57 117.631 111.16 115.604 114.129 112.293C117.098 108.981 120.658 110.703 121.562 109.023C122.467 107.344 116.375 101.93 113.776 98.5491C111.177 95.1678 109.582 83.5007 107.933 83.2492C106.285 82.9978 102.619 83.2177 98.6826 85.2135C94.7461 87.2093 89.4659 91.2067 86.0475 94.0605C82.6285 96.9142 82.3196 98.9436 78.8404 100.49C75.3611 102.037 64.234 100.989 60.3503 99.2282C56.4677 97.4679 56.5333 96.1796 55.5418 91.6151C54.5504 87.0507 55.5531 78.7654 57.1603 77.5828C58.7676 76.4002 62.345 75.9074 64.7527 74.587C67.1593 73.2667 67.058 70.525 67.4112 65.6461C67.7661 60.7672 70.6434 61.4661 74.6077 58.4356C78.572 55.4051 79.8142 50.6624 79.8142 50.6624C79.8142 50.6624 78.9012 45.5902 76.5789 45.4957C74.2581 45.4017 71.336 47.5518 69.3093 48.9303C67.2826 50.3084 65.3258 52.0879 62.6076 53.75C59.8968 55.4072 55.0776 57.1852 55.0493 57.1953C65.9246 42.1016 81.2716 30.6972 98.8395 24.6309C98.9521 24.7344 104.583 29.9801 100.688 36.7763C96.7552 43.6409 94.0075 48.098 98.0855 52.7836C102.166 57.4697 109.065 56.8355 109.065 56.8355L112.61 60.118C112.61 60.118 116.821 60.4266 121.438 57.7597C126.056 55.0928 134.527 50.538 138.456 55.0581C141.717 58.8104 140.815 65.9894 137.345 69.4572C129.073 77.7238 133.163 85.2535 140.915 88.1452C148.088 90.8217 158.019 90.1554 164.289 88.8729C175.08 86.6663 185.493 82.0074 189.901 85.8393C192.504 88.1025 193.329 90.6551 196.357 91.6797C199.385 92.7038 199.823 89.8212 199.823 89.8212L201.734 91.4987C201.734 91.4987 204.678 91.5254 204.937 86.268C205.196 81.01 211.171 78.9112 212.924 91.0983C214.635 102.989 218.018 108.484 218.182 108.744L218.183 108.743Z" fill="#DD2C00"/>
    <path fill-rule="evenodd" clip-rule="evenodd" d="M217.801 118.071C217.636 119.842 217.425 121.618 217.154 123.398C215.77 132.487 213.07 141.047 209.283 148.922C204.763 153.381 205.984 146.485 207.732 141.822C209.48 137.156 212.613 131.922 214.258 122.827C215.904 113.731 210.049 124.91 207.704 129.227C205.36 133.542 199.557 139.277 196.372 142.297C193.188 145.316 192.618 142.243 190.436 136.978C188.254 131.712 192.702 125.511 193.806 119.968C194.506 116.45 196.324 111.43 197.371 107.505C197.227 109.484 197.184 111.846 197.433 114.252C198.066 120.368 201.806 123.467 204.772 122.956C207.737 122.445 211.168 117.309 213.338 117.279C214.243 117.266 215.945 117.648 217.801 118.07V118.071ZM186.985 95.2926C182.938 96.188 181.276 103.593 179.541 107.148C177.654 111.015 178.631 111.422 177.962 114.956C177.294 118.489 168.998 119.3 165.927 119.871C162.856 120.44 161.091 120.95 153.71 120.863C146.328 120.776 148.604 123.72 145.924 125.128C143.244 126.537 131.498 121.89 127.509 121.671C123.521 121.452 120.768 118.107 118.606 120.373C116.445 122.639 107.12 120.829 106.845 119.229C106.57 117.629 111.16 115.603 114.129 112.291C117.098 108.979 120.658 110.701 121.562 109.022C122.467 107.343 116.375 101.929 113.776 98.5479C111.177 95.1666 109.582 83.4995 107.933 83.2481C106.285 82.9966 102.619 83.2166 98.6826 85.2123C94.746 87.2081 89.4659 91.2055 86.0475 94.0593C82.6285 96.9131 82.3196 98.9425 78.8404 100.489C75.3611 102.036 64.234 100.987 60.3503 99.227C56.4677 97.4667 56.5333 96.1784 55.5418 91.614C54.5504 87.0495 55.5531 78.7643 57.1603 77.5816C58.7676 76.399 62.345 75.9062 64.7527 74.5859C67.1593 73.2655 67.058 70.5238 67.4112 65.6449C67.7661 60.766 70.6434 61.4649 74.6077 58.4344C78.5719 55.4039 79.8142 50.6612 79.8142 50.6612C79.8142 50.6612 78.9012 45.589 76.5789 45.4945C74.2581 45.4005 71.336 47.5506 69.3093 48.9292C67.2826 50.3072 65.3258 52.0867 62.6076 53.7488C59.8968 55.4061 55.0776 57.184 55.0493 57.1942C63.5104 45.4513 74.6781 35.9417 87.492 29.4408C87.4509 29.5967 85.794 35.9706 85.453 47.572C85.1077 59.3181 78.6381 63.8702 81.27 70.291C83.9018 76.7119 85.2769 77.1625 90.4514 77.9516C95.626 78.7408 108.956 78.1252 112.795 81.3591C116.634 84.593 116.301 91.5253 122.424 98.7198C125.682 102.547 128.926 106.525 133.009 109.729C132.473 110.302 132.119 110.991 131.999 111.776C131.541 114.787 134.714 118.051 139.088 119.067C143.194 120.02 146.898 118.653 147.715 115.992C158.788 117.72 167.998 115.851 173.651 111.589C179.539 107.148 179.828 95.7395 186.98 95.2932H186.983L186.985 95.2926Z" fill="#9B0109"/>
    <path d="M67.932 96.1224C73.6168 97.532 78.8036 94.8789 79.5169 90.1966C80.2302 85.5143 76.1999 80.5758 70.515 79.1663C64.8302 77.7567 59.6434 80.4098 58.9301 85.0921C58.2169 89.7744 62.2471 94.7129 67.932 96.1224Z" fill="#DD2C00"/>
    <path d="M143.172 85.8334C148.039 87.0401 152.479 84.7688 153.09 80.7602C153.7 76.7517 150.25 72.5239 145.383 71.3172C140.516 70.1104 136.076 72.3818 135.465 76.3903C134.855 80.3988 138.305 84.6266 143.172 85.8334Z" fill="#DD2C00"/>
    <path d="M107.3 59.8239C113.703 61.4117 119.546 58.4232 120.349 53.1489C121.153 47.8746 116.613 42.3118 110.209 40.724C103.806 39.1363 97.9634 42.1248 97.1599 47.3991C96.3565 52.6734 100.896 58.2362 107.3 59.8239Z" fill="#DD2C00"/>
    <path d="M138.871 119.568C142.526 120.474 145.861 118.768 146.319 115.758C146.778 112.747 144.187 109.572 140.532 108.666C136.877 107.76 133.542 109.466 133.084 112.476C132.625 115.486 135.216 118.661 138.871 119.568Z" fill="#9B0109"/>
    <path d="M187.132 68.8877C190.787 69.7939 194.122 68.0882 194.581 65.0778C195.039 62.0674 192.448 58.8924 188.793 57.9861C185.138 57.0799 181.803 58.7856 181.345 61.796C180.886 64.8064 183.477 67.9814 187.132 68.8877Z" fill="#DD2C00"/>
    <path d="M155.772 53.9855C158.4 54.6004 160.774 53.3463 161.074 51.1845C161.375 49.0226 159.487 46.7717 156.859 46.1568C154.231 45.5419 151.858 46.796 151.557 48.9578C151.257 51.1197 153.144 53.3706 155.772 53.9855Z" fill="#DD2C00"/>
    <path d="M197.715 92.1656C200.343 92.7804 202.717 91.5264 203.017 89.3645C203.318 87.2027 201.431 84.9517 198.803 84.3368C196.175 83.722 193.801 84.976 193.501 87.1379C193.2 89.2997 195.087 91.5507 197.715 92.1656Z" fill="#740107"/>
    <path d="M132.101 34.7201C134.729 35.335 137.102 34.0809 137.403 31.9191C137.703 29.7573 135.816 27.5063 133.188 26.8914C130.56 26.2765 128.186 27.5306 127.886 29.6924C127.585 31.8543 129.473 34.1052 132.101 34.7201Z" fill="#330099"/>
    <path d="M173.349 92.435C174.459 92.6947 175.462 92.165 175.589 91.252C175.715 90.339 174.918 89.3883 173.808 89.1286C172.698 88.869 171.696 89.3986 171.569 90.3116C171.442 91.2246 172.239 92.1753 173.349 92.435Z" fill="#9B0109"/>
    <path d="M106.189 59.3325C111.245 60.5863 115.858 58.2265 116.493 54.0618C117.127 49.8971 113.543 45.5046 108.486 44.2509C103.43 42.9972 98.8165 45.357 98.1821 49.5216C97.5476 53.6863 101.132 58.0788 106.189 59.3325Z" fill="#330099"/>
    <path fill-rule="evenodd" clip-rule="evenodd" d="M110.992 38.3504C117.994 40.0451 124.736 46.9107 120.993 53.6316C121.126 53.2354 121.228 52.8238 121.293 52.3956C122.096 47.121 117.218 41.5064 110.397 39.855C104.679 38.47 99.4109 40.3115 97.3837 44.0499C98.8949 39.5656 103.989 36.6552 110.992 38.3499V38.3504Z" fill="#FFD740"/>
    <path d="M69.1723 93.1173C73.7497 94.2522 77.9259 92.116 78.5003 88.3459C79.0746 84.5757 75.8295 80.5994 71.2521 79.4644C66.6748 78.3295 62.4985 80.4657 61.9242 84.2358C61.3499 88.0059 64.5949 91.9823 69.1723 93.1173Z" fill="#330099"/>
    <path fill-rule="evenodd" clip-rule="evenodd" d="M78.0125 93.5358C76.2558 96.8061 71.8775 98.4388 67.1554 97.2679C61.4708 95.8584 57.4398 90.9191 58.1532 86.2373C58.348 84.9585 58.8768 83.832 59.658 82.8971C59.3 83.5634 59.0508 84.2981 58.9297 85.0909C58.2162 89.7734 62.2472 94.7121 67.9319 96.1216C72.0643 97.1467 75.933 96.0239 78.0125 93.5358Z" fill="#FFD740"/>
    <path fill-rule="evenodd" clip-rule="evenodd" d="M149.132 42.4905C149.132 42.4905 144.18 52.0897 150.606 55.7182C157.032 59.3467 163.813 57.4919 167.082 60.5186C170.351 63.5454 179.154 68.561 182.3 71.2076C185.446 73.8542 190.752 74.182 194.294 72.254C197.836 70.3261 202.953 71.1067 203.015 73.4639C203.077 75.8211 199.213 80.6493 193.668 80.707C188.124 80.7646 175.643 81.3295 173.158 82.636C170.673 83.9425 162.413 88.4017 159.317 86.6051C156.221 84.8085 155.127 82.1138 158.609 78.6113C162.091 75.1089 161.938 72.5568 159.718 68.9678C157.497 65.3788 153.407 64.9554 146.876 64.0003C140.345 63.0451 140.509 57.6115 140.384 52.897C140.261 48.1825 144.882 41.5428 146.689 40.735C148.497 39.9272 150.233 39.5903 149.13 42.4899L149.132 42.4905Z" fill="#DD2C00"/>
    <path fill-rule="evenodd" clip-rule="evenodd" d="M121.71 24.6346C121.71 24.6346 118.268 27.4809 121.439 31.9375C124.611 36.3941 130.963 38.928 131.05 42.3125C131.136 45.697 127.02 52.1728 125.344 49.7499C123.668 47.327 124.446 41.4262 120.916 39.3226C117.385 37.2184 111.387 36.3044 108.32 35.1137C105.253 33.9231 103.709 29.8349 104.421 27.5359C105.132 25.2363 109.698 24.4878 112.646 24.0948C115.594 23.7019 119.887 21.587 121.71 24.6341V24.6346Z" fill="#DD2C00"/>
    <path fill-rule="evenodd" clip-rule="evenodd" d="M167.668 94.8245C167.668 94.8245 156.465 103.591 143.477 96.4327C130.488 89.2745 124.225 86.1527 123.123 87.0678C122.021 87.9829 120.092 92.746 122.329 94.6521C124.565 96.5581 129.947 96.777 133.712 98.9164C137.477 101.056 143.374 107.373 148.543 110.569C153.712 113.766 166.125 110.482 168.815 107.039C171.506 103.596 174.172 95.5757 172.687 94.2655C171.202 92.9553 166.924 93.3867 167.668 94.8245Z" fill="#FF6D00"/>
    <path fill-rule="evenodd" clip-rule="evenodd" d="M110.215 73.2101C110.215 73.2101 103.237 76.3602 96.7312 74.0436C92.9937 72.7125 90.1431 71.0403 88.5326 69.24L88.5315 69.2389C86.809 67.6975 85.6131 63.6504 88.2957 60.6589C90.9777 57.6669 93.3582 58.6706 93.3582 58.6706V58.6711C90.9953 58.1762 88.5022 60.7166 87.8634 63.5404C87.4798 65.2351 88.3298 66.9543 90.1479 68.5405L90.2274 68.6089L90.2674 68.6436L90.308 68.6772L90.3896 68.7456L90.4376 68.7856L90.4723 68.8139L90.595 68.9121L90.6137 68.9271L90.642 68.9495L90.7284 69.0168L90.7941 69.0675L90.816 69.0841L90.8176 69.0851L90.9798 69.2069L90.9947 69.2175L91.086 69.2843L91.1703 69.3457L91.1783 69.351L91.2717 69.4172L91.3667 69.4834V69.484L91.4622 69.5496L91.5593 69.6153L91.5673 69.6212L91.6575 69.681L91.7567 69.7461L91.7733 69.7568L91.8571 69.8107L91.9585 69.8759L91.9841 69.8924L92.0027 69.9042L92.1644 70.0051L92.1991 70.027L92.269 70.0697L92.3747 70.1337L92.419 70.1604L92.4814 70.1973L92.5892 70.2608L92.6436 70.2928L92.6981 70.3238L92.808 70.3868L92.8731 70.4236L92.9195 70.4498L93.1073 70.5539L93.1447 70.5747L93.2594 70.6367L93.3459 70.6831L93.3747 70.6981L93.5566 70.7936L93.5892 70.8102L93.6089 70.8203L93.7274 70.8812L93.8373 70.9367L93.8475 70.9415L94.0898 71.0622L94.3363 71.1818L94.3469 71.1866L94.4612 71.2411L94.5866 71.3003L94.6079 71.3105L94.8736 71.4322L94.9702 71.4755L95.0999 71.5337L95.1431 71.5523L95.3624 71.6479L95.4179 71.6714L95.4959 71.7045L95.6965 71.7894L95.7637 71.8172L95.8992 71.8732L95.9793 71.9058L96.0364 71.9287L96.26 72.019L96.2664 72.0211L96.3128 72.0393L96.5572 72.1343L96.593 72.1482L96.8528 72.2464L96.8763 72.2555L97.0193 72.3089L97.1512 72.3575L97.1634 72.3618L97.3086 72.4141L97.4542 72.4664L97.7339 72.562L97.7819 72.578C97.9687 72.6394 98.1565 72.6965 98.3443 72.7488L98.4068 72.7665L98.6645 72.8353L98.6832 72.8401L98.9548 72.9069L99.0348 72.925L99.2456 72.9715L99.3118 72.9854L99.5797 73.0388L99.6309 73.0478L99.8721 73.0905L99.9254 73.0996L100.173 73.1391L100.207 73.1445L100.264 73.1519L100.475 73.1808L100.539 73.1888C100.625 73.1995 100.71 73.2101 100.795 73.2192L100.814 73.2213L100.868 73.2267L101.095 73.2486L101.128 73.2518L101.412 73.2747H101.415L101.685 73.2913L101.752 73.295L101.975 73.3052L102.011 73.3068L102.023 73.3073L102.304 73.3148H102.309L102.571 73.318L102.599 73.3185H102.626L102.884 73.3169H102.901L103.162 73.3116H103.179L103.22 73.3105L103.459 73.302L103.481 73.3009L103.744 73.2876H103.75L103.994 73.2721L104.028 73.2699L104.184 73.2582L104.305 73.2486L104.372 73.2427L104.559 73.2256L104.579 73.2235L104.745 73.2064L104.85 73.1952L104.929 73.1861L105.111 73.1642L105.117 73.1632L105.34 73.1343L105.38 73.1295L105.47 73.1167L105.639 73.0921L105.647 73.0911L105.821 73.0644L105.834 73.0622L105.96 73.0425L105.994 73.0366L106.146 73.011L106.165 73.0078C106.324 72.98 106.482 72.9512 106.635 72.9213L106.665 72.9154L106.827 72.8829L106.872 72.8738L106.987 72.8497L107.104 72.8252L107.145 72.8161L107.301 72.7819L107.331 72.775L107.453 72.7472L107.553 72.7238L107.604 72.712L107.752 72.6757L107.77 72.6714L107.897 72.6399L107.98 72.6186L108.039 72.6036L108.178 72.5673L108.186 72.5652L108.316 72.5305L108.385 72.5118L108.45 72.4936L108.578 72.4579L108.581 72.4568L108.71 72.4199L108.765 72.4034L108.835 72.3831L108.946 72.35L108.958 72.3463L109.077 72.31C110.237 71.9517 110.936 71.6367 110.936 71.6367C111.741 71.279 112.154 70.8839 112.287 70.5C112.19 71.2336 111.796 72.6533 110.215 73.2123V73.2101ZM112.318 70.0435H112.319V70.0467L112.318 70.0435H112.318Z" fill="#FFD740"/>
    <path fill-rule="evenodd" clip-rule="evenodd" d="M110.139 70.2761C110.139 70.2761 104.163 72.9735 98.5925 70.99C93.0214 69.0065 89.7493 66.1356 90.3805 63.3454C91.0118 60.5552 93.7578 58.0874 96.006 59.5642C98.2536 61.041 100.898 63.3 102.132 65.3438C103.366 67.3877 106.442 68.1661 108.362 67.7374C110.282 67.3081 112.903 69.0481 110.139 70.2767V70.2761Z" fill="#9B0109"/>
    <path d="M174.414 48.2504C177.042 48.8653 179.416 47.6112 179.716 45.4494C180.017 43.2875 178.13 41.0366 175.502 40.4217C172.873 39.8068 170.5 41.0609 170.2 43.2227C169.899 45.3846 171.786 47.6355 174.414 48.2504Z" fill="#DD2C00"/>
    <path d="M143.891 83.6549C147.986 84.6703 151.722 82.7592 152.236 79.3863C152.75 76.0135 149.846 72.4561 145.751 71.4408C141.656 70.4254 137.92 72.3365 137.406 75.7094C136.893 79.0822 139.796 82.6396 143.891 83.6549Z" fill="#330099"/>
    <path d="M138.575 119.036C141.06 119.652 143.328 118.492 143.64 116.445C143.952 114.397 142.19 112.238 139.704 111.622C137.218 111.005 134.951 112.166 134.639 114.213C134.327 116.26 136.089 118.42 138.575 119.036Z" fill="#330099"/>
    <path d="M186.351 68.5773C188.757 69.1739 190.952 68.051 191.254 66.0694C191.556 64.0877 189.85 61.9976 187.444 61.4011C185.038 60.8045 182.843 61.9274 182.541 63.909C182.239 65.8907 183.945 67.9808 186.351 68.5773Z" fill="#330099"/>
    <path d="M155.011 53.5956C156.865 54.0295 158.54 53.1446 158.752 51.6191C158.964 50.0937 157.632 48.5053 155.778 48.0715C153.923 47.6376 152.248 48.5225 152.037 50.0479C151.825 51.5734 153.156 53.1617 155.011 53.5956Z" fill="#330099"/>
    <path d="M196.346 90.4963C198.12 90.9113 199.722 90.0649 199.924 88.6059C200.127 87.1468 198.853 85.6276 197.08 85.2126C195.306 84.7976 193.704 85.644 193.501 87.103C193.299 88.5621 194.572 90.0813 196.346 90.4963Z" fill="#330099"/>
    <path fill-rule="evenodd" clip-rule="evenodd" d="M152.026 26.1287C156.521 26.6338 161.467 29.314 164.743 30.7166C168.019 32.1198 168.896 38.2123 168.016 39.6437C167.136 41.0751 162.416 38.4888 160.02 35.6553C157.624 32.8219 156.541 30.8501 151.864 30.7391C139.998 30.4572 145.934 25.4442 152.026 26.1287Z" fill="#DD2C00"/>
    <path d="M194.691 133.725C196.355 135.851 198.99 136.36 200.577 134.863C202.164 133.366 202.102 130.428 200.438 128.302C198.774 126.176 196.138 125.667 194.551 127.164C192.964 128.661 193.027 131.599 194.691 133.725Z" fill="#330099"/>
    <path fill-rule="evenodd" clip-rule="evenodd" d="M201.61 132.983C201.52 134.109 201.091 135.136 200.319 135.864C198.512 137.568 195.512 136.988 193.617 134.568C191.723 132.148 191.652 128.804 193.458 127.099C194.51 126.108 195.965 125.889 197.371 126.357C196.337 126.182 195.318 126.436 194.548 127.163C192.961 128.66 193.023 131.598 194.688 133.724C196.352 135.85 198.988 136.359 200.575 134.862C201.1 134.366 201.444 133.713 201.61 132.983H201.61Z" fill="#DD2C00"/>
    <path d="M64.4622 160.183C69.0396 161.318 73.2158 159.181 73.7902 155.411C74.3645 151.641 71.1194 147.665 66.5421 146.53C61.9647 145.395 57.7884 147.531 57.2141 151.301C56.6398 155.071 59.8849 159.048 64.4622 160.183Z" fill="#DD2C00"/>
    <path d="M63.1324 143.369C65.7733 144.024 68.1828 142.792 68.5141 140.617C68.8455 138.441 66.9733 136.147 64.3324 135.493C61.6915 134.838 59.282 136.07 58.9507 138.245C58.6193 140.42 60.4916 142.715 63.1324 143.369Z" fill="#DD2C00"/>
    <path d="M161.419 183.51C164.092 184.173 166.531 182.925 166.866 180.724C167.201 178.522 165.306 176.201 162.634 175.538C159.961 174.875 157.522 176.123 157.187 178.324C156.851 180.525 158.746 182.847 161.419 183.51Z" fill="#DD2C00"/>
    <path d="M153.548 184.135C155.132 183.276 155.761 181.598 154.954 180.386C154.146 179.174 152.207 178.887 150.624 179.745C149.04 180.604 148.41 182.282 149.218 183.494C150.025 184.706 151.964 184.993 153.548 184.135Z" fill="#DD2C00"/>
    <path d="M202.884 146.228C204.468 145.37 205.098 143.692 204.29 142.48C203.483 141.268 201.544 140.981 199.96 141.839C198.376 142.697 197.747 144.375 198.554 145.588C199.362 146.8 201.301 147.086 202.884 146.228Z" fill="#9B0109"/>
    <path d="M173.17 127.457C176.558 125.621 177.905 122.03 176.177 119.437C174.45 116.844 170.302 116.23 166.913 118.066C163.524 119.902 162.178 123.492 163.905 126.085C165.633 128.679 169.781 129.292 173.17 127.457Z" fill="#9B0109"/>
    <path d="M160.429 129.277C161.776 128.547 162.311 127.119 161.625 126.088C160.938 125.057 159.288 124.813 157.941 125.543C156.594 126.273 156.058 127.7 156.745 128.731C157.432 129.763 159.081 130.007 160.429 129.277Z" fill="#9B0109"/>
    <path d="M105.109 92.9921C107.355 91.7753 108.247 89.3956 107.102 87.6769C105.957 85.9582 103.208 85.5513 100.962 86.7682C98.716 87.985 97.8235 90.3647 98.9685 92.0834C100.114 93.8021 102.863 94.209 105.109 92.9921Z" fill="#9B0109"/>
    <path d="M96.3113 94.2067C97.2043 93.7229 97.5592 92.7767 97.1039 92.0933C96.6487 91.4099 95.5556 91.2481 94.6626 91.732C93.7695 92.2158 93.4146 93.162 93.8699 93.8454C94.3252 94.5288 95.4182 94.6906 96.3113 94.2067Z" fill="#9B0109"/>
    <path d="M108.6 97.9102C110.003 97.1498 110.561 95.6627 109.846 94.5887C109.13 93.5148 107.412 93.2605 106.009 94.0209C104.605 94.7813 104.047 96.2683 104.763 97.3423C105.478 98.4163 107.196 98.6706 108.6 97.9102Z" fill="#9B0109"/>
    <path d="M70.0768 62.3862C72.3228 61.1693 73.2153 58.7896 72.0703 57.0709C70.9253 55.3522 68.1763 54.9454 65.9303 56.1622C63.6843 57.379 62.7917 59.7588 63.9368 61.4774C65.0818 63.1961 67.8308 63.603 70.0768 62.3862Z" fill="#9B0109"/>
    <path d="M73.1606 54.1896C74.0537 53.7058 74.4086 52.7596 73.9533 52.0762C73.498 51.3928 72.405 51.2311 71.5119 51.7149C70.6189 52.1987 70.264 53.1449 70.7193 53.8283C71.1745 54.5117 72.2676 54.6735 73.1606 54.1896Z" fill="#9B0109"/>
    <path d="M196.499 104.906C198.745 103.689 199.637 101.31 198.492 99.5908C197.347 97.8721 194.598 97.4653 192.352 98.6821C190.106 99.8989 189.214 102.279 190.359 103.997C191.504 105.716 194.253 106.123 196.499 104.906Z" fill="#DD2C00"/>
    <path d="M188.291 100.451C189.22 99.947 189.589 98.9623 189.116 98.2511C188.642 97.5399 187.504 97.3715 186.575 97.875C185.646 98.3786 185.276 99.3633 185.75 100.074C186.224 100.786 187.361 100.954 188.291 100.451Z" fill="#DD2C00"/>
    <path d="M193.769 110.319C194.698 109.815 195.068 108.83 194.594 108.119C194.12 107.408 192.983 107.24 192.053 107.743C191.124 108.247 190.754 109.231 191.228 109.943C191.702 110.654 192.84 110.822 193.769 110.319Z" fill="#DD2C00"/>
    <path d="M117.7 175.957C120.341 176.612 122.75 175.38 123.082 173.205C123.413 171.029 121.541 168.735 118.9 168.081C116.259 167.426 113.849 168.658 113.518 170.833C113.187 173.008 115.059 175.303 117.7 175.957Z" fill="#DD2C00"/>
    <path d="M150.868 177.039C153.509 177.694 155.919 176.462 156.25 174.286C156.581 172.111 154.709 169.817 152.068 169.162C149.427 168.508 147.018 169.74 146.687 171.915C146.355 174.09 148.228 176.384 150.868 177.039Z" fill="#DD2C00"/>
    <path d="M50.0861 143.267C52.1993 143.791 54.1274 142.805 54.3926 141.064C54.6577 139.323 53.1596 137.488 51.0463 136.964C48.933 136.44 47.0049 137.426 46.7397 139.166C46.4746 140.907 47.9728 142.743 50.0861 143.267Z" fill="#330099"/>
    <path d="M75.8669 172.535C78.8247 173.268 81.5234 171.888 81.8945 169.452C82.2656 167.015 80.1687 164.446 77.2108 163.713C74.253 162.979 71.5544 164.36 71.1832 166.796C70.8121 169.232 72.9091 171.801 75.8669 172.535Z" fill="#330099"/>
    <path d="M128.053 192.676C132.823 193.859 137.175 191.633 137.773 187.704C138.372 183.775 134.99 179.631 130.22 178.448C125.45 177.265 121.098 179.492 120.499 183.421C119.901 187.35 123.282 191.493 128.053 192.676Z" fill="#330099"/>
    <path fill-rule="evenodd" clip-rule="evenodd" d="M137.838 186.598C138.044 187.49 138.091 188.401 137.954 189.301C137.271 193.784 132.304 196.324 126.862 194.975C121.419 193.626 117.558 188.897 118.242 184.414C118.752 181.061 121.66 178.795 125.371 178.43C122.795 179.106 120.88 180.92 120.498 183.43C119.899 187.359 123.283 191.503 128.053 192.685C132.822 193.868 137.175 191.641 137.773 187.713C137.83 187.342 137.851 186.969 137.838 186.598V186.598Z" fill="#9B0109"/>
    <path fill-rule="evenodd" clip-rule="evenodd" d="M164.828 100.641C163.086 101.867 160.119 105.454 155.088 103.865C148.085 101.654 144.226 100.523 141.926 99.0291C139.627 97.5346 139.802 100.331 143.925 102.103C148.047 103.875 149.705 105.634 153.45 106.324C157.195 107.016 160.599 109.16 164.403 107.092C169.014 104.586 168.367 98.1486 164.828 100.641Z" fill="#FFD740"/>
    <path fill-rule="evenodd" clip-rule="evenodd" d="M128.816 91.4932C127.789 90.7346 124.293 90.3816 124.095 90.8931C123.896 91.4052 122.957 90.3373 126.119 93.008C129.281 95.6786 132.264 94.5462 128.816 91.4932Z" fill="#FFD740"/>
    <path fill-rule="evenodd" clip-rule="evenodd" d="M81.8741 168.182C82.1542 168.937 82.2551 169.729 82.1366 170.508C81.7086 173.316 78.5971 174.908 75.1877 174.062C71.7774 173.217 69.3595 170.254 69.7875 167.446C70.1055 165.356 71.9108 163.94 74.2192 163.701C72.6157 164.117 71.4236 165.244 71.1861 166.804C70.8147 169.24 72.9124 171.81 75.8703 172.543C78.8276 173.276 81.5267 171.895 81.8975 169.46C81.9621 169.034 81.9514 168.605 81.8741 168.182Z" fill="#9B0109"/>
    <path fill-rule="evenodd" clip-rule="evenodd" d="M137.237 30.2984C137.596 31.0571 137.748 31.873 137.637 32.6776C137.291 35.1629 134.562 36.6056 131.54 35.8987C128.518 35.1912 126.348 32.6028 126.693 30.1169C126.999 27.9092 129.187 26.5248 131.791 26.7383C129.766 26.7655 128.133 27.9268 127.887 29.6951C127.586 31.8569 129.474 34.1079 132.102 34.723C134.73 35.3381 137.104 34.0834 137.404 31.9215C137.48 31.3775 137.416 30.827 137.237 30.2984Z" fill="#DD2C00"/>
    <path fill-rule="evenodd" clip-rule="evenodd" d="M116.736 193.294C116.736 193.294 115.888 188.59 114.094 186.148C112.3 183.707 108.106 185.958 104.532 184.931C100.959 183.904 98.0846 185.392 101.398 187.342C104.711 189.293 107.723 189.27 110.158 191.448C112.594 193.625 117.689 195.726 116.736 193.293V193.294Z" fill="#DD2C00"/>
    <path fill-rule="evenodd" clip-rule="evenodd" d="M180.723 182.945C162.276 196.229 138.822 202.58 114.578 198.883C82.9557 194.06 57.7015 173.324 45.7019 146.052C56.7121 164.516 62.2965 151.757 63.4716 164.584C63.5585 165.532 67.4097 173.491 74.7128 176.893C82.016 180.294 85.0673 179.616 88.5609 181.172C92.054 182.729 98.9324 190.099 107.041 193.743C115.149 197.388 128.292 198.79 132.135 198.052C135.979 197.314 139.537 194.486 145.387 193.21C151.238 191.935 157.741 192.687 162.142 189.866C166.542 187.046 172.403 185.785 176.984 184.063C178.019 183.674 179.324 183.297 180.723 182.945H180.723Z" fill="#FFD740"/>
    <path fill-rule="evenodd" clip-rule="evenodd" d="M53.5606 138.493C54.6006 139.429 55.1807 140.699 54.9934 141.929C54.6892 143.924 52.4784 145.055 50.0563 144.454C47.6331 143.854 45.9154 141.749 46.219 139.753C46.3385 138.968 46.7531 138.317 47.3599 137.853C47.0365 138.213 46.8172 138.657 46.7403 139.164C46.4751 140.905 47.9735 142.741 50.0872 143.265C52.2004 143.789 54.1289 142.802 54.3935 141.062C54.5302 140.167 54.2004 139.247 53.5606 138.493Z" fill="#9B0109"/>
    <path fill-rule="evenodd" clip-rule="evenodd" d="M55.1213 35.263C60.7494 36.1546 66.6416 37.3554 72.7244 38.8285C68.3866 42.2178 64.3545 46.0027 60.6907 50.1416C58.0791 49.6178 55.5156 49.1528 53.0119 48.7566C12.9795 42.4153 2.66934 54.7503 34.4476 83.3061C36.4188 85.0782 38.4898 86.8492 40.6419 88.617C80.1759 121.097 148.804 152.361 196.544 159.923C198.568 160.244 200.53 160.523 202.429 160.761C242.032 165.721 240.698 148.863 216.581 126.712C216.789 125.613 216.986 124.508 217.156 123.392C217.843 118.88 218.18 114.396 218.193 109.966C220.287 111.698 222.307 113.435 224.242 115.173C268.156 154.634 250.732 182.336 194.434 173.417C193.718 173.303 192.993 173.182 192.268 173.059C144.817 164.982 79.7437 135.9 38.2876 104.214C33.6493 100.669 29.3019 97.0923 25.3131 93.5071C-18.6003 54.0466 -1.17702 26.3445 55.1213 35.2635V35.263Z" fill="url(#paint0_linear_137_6801)"/>
    <path fill-rule="evenodd" clip-rule="evenodd" d="M183.522 157.393C188.001 158.407 192.355 159.258 196.546 159.921C197.09 160.007 197.629 160.09 198.164 160.17C196.742 162.792 194.1 168.16 189.578 168.117C186.156 168.085 184.898 169.823 182.281 171.102C178.55 170.286 174.738 169.36 170.859 168.329C170.188 165.437 174.515 164.458 177.099 162.362C178.666 161.089 181.162 158.861 183.522 157.393V157.393Z" fill="#FF3D00"/>
    <path fill-rule="evenodd" clip-rule="evenodd" d="M43.1378 90.6404C45.4372 92.4712 47.823 94.2966 50.2921 96.113C51.3097 97.8856 52.116 99.7607 52.4602 101.345C52.4602 101.345 53.8743 110.23 64.1417 111.555C67.5425 111.994 70.4294 111.734 72.9887 111.214C81.128 116.15 89.7146 120.915 98.5402 125.418C98.4772 125.466 98.4137 125.514 98.3486 125.561C93.3523 129.133 90.1057 129.12 89.0998 134.144C89.0022 134.631 88.9072 135.184 88.8101 135.787C71.3857 126.704 54.956 116.641 40.9857 106.254C41.1453 99.2065 41.7483 92.8129 43.1383 90.6409L43.1378 90.6404Z" fill="#FF3D00"/>
    <path fill-rule="evenodd" clip-rule="evenodd" d="M60.6836 50.1494C58.0737 49.6256 55.5117 49.1606 53.0085 48.7649C24.8669 44.3073 11.4132 49.0789 16.9431 62.2265C16.8668 62.0455 16.7947 61.8661 16.7254 61.6883C12.045 52.9086 7.76477 36.2383 40.7112 33.7299C43.6514 33.6915 52.4861 34.8464 55.6462 35.3562L72.7158 38.8352C68.3785 42.2245 64.3475 46.0105 60.6831 50.1494H60.6836Z" fill="#330099"/>
    <path d="M122.318 125.701C123.722 124.941 124.279 123.454 123.564 122.38C122.848 121.306 121.131 121.051 119.727 121.812C118.324 122.572 117.766 124.059 118.481 125.133C119.197 126.207 120.915 126.461 122.318 125.701Z" fill="#9B0109"/>
    <path d="M157.584 124.71C158.513 124.206 158.883 123.221 158.409 122.51C157.935 121.799 156.797 121.631 155.868 122.134C154.939 122.638 154.569 123.622 155.043 124.334C155.517 125.045 156.654 125.213 157.584 124.71Z" fill="#9B0109"/>
    <path fill-rule="evenodd" clip-rule="evenodd" d="M120.043 136.47C134.045 142.661 148.209 148.04 161.772 152.266C160.137 152.808 158.468 153.643 156.788 155.05C152.898 158.311 151.381 160.675 146.409 161.573C133.254 156.999 119.779 151.509 106.57 145.365C110.321 142.023 114.917 138.494 120.043 136.47Z" fill="#FF3D00"/>
    <path fill-rule="evenodd" clip-rule="evenodd" d="M73.7369 22.1875C76.3213 22.8282 77.6142 28.579 77.2903 30.7077C76.9664 32.8364 74.6083 34.0425 72.024 33.4013C69.4397 32.7606 67.6077 30.5155 67.9316 28.3873C68.2556 26.2586 71.1526 21.5468 73.7369 22.1875Z" fill="#330099"/>
    <path fill-rule="evenodd" clip-rule="evenodd" d="M62.9571 17.8533C66.0206 18.6131 63.9694 20.9175 63.5852 23.4407C63.201 25.964 64.4502 29.0004 61.3867 28.2406C58.3231 27.4814 57.4603 24.8198 57.8445 22.2966C58.2287 19.7733 59.8936 17.0941 62.9571 17.8533Z" fill="#330099"/>
    <path fill-rule="evenodd" clip-rule="evenodd" d="M71.4838 17.9062C72.9555 16.8395 73.7912 16.5832 73.0425 15.3189C72.2939 14.0546 70.8973 13.2035 69.4256 14.2703C67.9544 15.337 67.5361 17.4172 68.2847 18.6815C69.0334 19.9458 70.0121 18.973 71.4838 17.9062Z" fill="#330099"/>
    <path fill-rule="evenodd" clip-rule="evenodd" d="M47.3591 53.8115C49.1291 54.2253 49.9984 54.1382 49.7967 55.5942C49.595 57.0497 48.6366 58.3754 46.8671 57.9616C45.0976 57.5478 43.9076 55.7912 44.1088 54.3358C44.3105 52.8803 45.5891 53.3982 47.3586 53.812L47.3591 53.8115Z" fill="#330099"/>
    <path fill-rule="evenodd" clip-rule="evenodd" d="M52.2962 27.6244C54.0657 28.0382 54.9355 27.9517 54.7338 29.4071C54.5321 30.8626 53.5737 32.1883 51.8042 31.7745C50.0347 31.3607 48.8448 29.6042 49.0459 28.1487C49.2476 26.6933 50.5262 27.2106 52.2962 27.625V27.6244Z" fill="#330099"/>
    <path fill-rule="evenodd" clip-rule="evenodd" d="M194.949 177.161C197.533 177.801 198.826 183.552 198.502 185.681C198.178 187.81 195.82 189.016 193.236 188.375C190.652 187.734 188.82 185.489 189.144 183.361C189.467 181.232 192.365 176.52 194.949 177.161H194.949Z" fill="#3300CC"/>
    <path fill-rule="evenodd" clip-rule="evenodd" d="M43.4151 60.1134C46.4786 60.8731 45.9738 63.1775 45.5891 65.7003C45.2049 68.2235 44.5512 68.522 41.4876 67.7628C38.4241 67.0036 37.9182 67.0794 38.3025 64.5561C38.6867 62.0328 40.3516 59.3536 43.4151 60.1129V60.1134Z" fill="#330099"/>
    <path fill-rule="evenodd" clip-rule="evenodd" d="M31.4317 111.375C33.2018 111.788 34.071 111.701 33.8693 113.157C33.6676 114.613 32.7092 115.938 30.9397 115.524C29.1702 115.11 27.9803 113.354 28.1814 111.898C28.3831 110.443 29.6617 110.961 31.4312 111.375H31.4317Z" fill="#330099"/>
    <path fill-rule="evenodd" clip-rule="evenodd" d="M19.3205 101.825C22.384 102.584 20.3333 104.889 19.9485 107.412C19.5643 109.935 20.8136 112.972 17.75 112.212C14.6865 111.453 13.8242 108.791 14.2078 106.268C14.592 103.744 16.2569 101.065 19.3205 101.825Z" fill="#330099"/>
    <path fill-rule="evenodd" clip-rule="evenodd" d="M28.4671 130.698C29.9389 129.632 30.7745 129.375 30.0253 128.111C29.2767 126.847 27.8802 125.996 26.4084 127.062C24.9367 128.129 24.5183 130.209 25.267 131.473C26.0157 132.737 26.9943 131.765 28.4666 130.698H28.4671Z" fill="#330099"/>
    <path fill-rule="evenodd" clip-rule="evenodd" d="M201.916 199.739C203.686 200.153 204.555 200.066 204.353 201.522C204.152 202.977 203.193 204.303 201.424 203.889C199.654 203.475 198.464 201.719 198.665 200.263C198.867 198.808 200.146 199.325 201.915 199.74L201.916 199.739Z" fill="#330099"/>
    <path fill-rule="evenodd" clip-rule="evenodd" d="M146.954 0.679476C150.665 1.59994 152.522 9.85746 152.056 12.9141C151.591 15.9702 148.681 14.4881 144.97 13.5682C141.259 12.6488 138.152 12.6381 138.618 9.58195C139.083 6.5253 143.243 -0.239923 146.954 0.679476Z" fill="#330099"/>
    <path fill-rule="evenodd" clip-rule="evenodd" d="M35.3319 160.6C38.3954 161.359 36.3447 163.664 35.96 166.187C35.5752 168.71 36.825 171.747 33.7614 170.987C30.6979 170.228 29.835 167.566 30.2192 165.043C30.6034 162.52 32.2684 159.84 35.3319 160.6Z" fill="#330099"/>
    <path fill-rule="evenodd" clip-rule="evenodd" d="M128.659 212.773C130.429 213.187 131.299 213.1 131.097 214.556C130.895 216.011 129.937 217.337 128.167 216.923C126.398 216.509 125.208 214.753 125.409 213.297C125.611 211.842 126.889 212.359 128.659 212.774V212.773Z" fill="#330099"/>
    <path fill-rule="evenodd" clip-rule="evenodd" d="M90.7836 196.608C94.4944 197.529 96.3514 205.786 95.8855 208.843C95.4202 211.899 92.5104 210.417 88.7996 209.497C85.0888 208.577 81.982 208.567 82.4473 205.511C82.9126 202.454 87.0728 195.689 90.7836 196.609V196.608Z" fill="#330099"/>
    <path fill-rule="evenodd" clip-rule="evenodd" d="M110.119 4.78579C112.703 5.42648 115.116 5.51405 114.792 7.64276C114.468 9.77094 112.111 10.9771 109.526 10.3364C106.941 9.69567 105.109 7.45055 105.433 5.32237C105.757 3.19366 107.534 4.14563 110.119 4.78632L110.119 4.78579Z" fill="#330099"/>
    <path fill-rule="evenodd" clip-rule="evenodd" d="M185.266 24.6004C187.036 25.0142 187.905 24.9272 187.704 26.3832C187.502 27.8386 186.544 29.1643 184.774 28.7505C183.005 28.3367 181.815 26.5802 182.016 25.1247C182.217 23.6693 183.496 24.1872 185.266 24.6009V24.6004Z" fill="#330099"/>
    <path fill-rule="evenodd" clip-rule="evenodd" d="M174.099 205.511C176.683 206.152 179.096 206.24 178.772 208.368C178.448 210.497 176.09 211.703 173.505 211.062C170.921 210.421 169.089 208.176 169.413 206.048C169.737 203.919 171.514 204.871 174.098 205.512L174.099 205.511Z" fill="#330099"/>
    <defs>
        <linearGradient id="paint0_linear_137_6801" x1="136.427" y1="89.8946" x2="88.5225" y2="181.142" gradientUnits="userSpaceOnUse">
            <stop stop-color="#F50057"/>
            <stop offset="1" stop-color="#FFC400"/>
        </linearGradient>
    </defs>
</svg>
