<?xml version="1.0" encoding="UTF-8"?>
<svg width="789px" height="177px" viewBox="0 0 789 177" version="1.1" xmlns="http://www.w3.org/2000/svg" xmlns:xlink="http://www.w3.org/1999/xlink">
    <title>Group 4</title>
    <defs>
        <linearGradient x1="54.6901425%" y1="46.6692684%" x2="35.4199753%" y2="67.7133469%" id="linearGradient-1">
            <stop stop-color="#F50057" offset="0%"></stop>
            <stop stop-color="#FFC400" offset="100%"></stop>
        </linearGradient>
        <filter id="filter-2">
            <feColorMatrix in="SourceGraphic" type="matrix" values="0 0 0 0 0.866667 0 0 0 0 0.172549 0 0 0 0 0.000000 0 0 0 1.000000 0"></feColorMatrix>
        </filter>
    </defs>
    <g id="Page-1" stroke="none" stroke-width="1" fill="none" fill-rule="evenodd">
        <g id="Group-4">
            <g id="_2172103285552" transform="translate(-0.000000, 0.000000)">
                <g id="Group" transform="translate(-0.000000, 0.000000)">
                    <ellipse id="Oval" fill="#330099" transform="translate(103.740546, 89.062070) rotate(8.666338) translate(-103.740546, -89.062070) " cx="103.740546" cy="89.06207" rx="73.2285805" ry="73.449638"></ellipse>
                    <path d="M42.1895707,82.1483317 C42.1895707,82.1483317 43.339602,89.3929334 51.689263,90.4730281 C60.039358,91.5531229 64.5791606,87.4373567 69.4856714,87.9911175 C74.3921822,88.5448783 81.6091709,89.3537522 81.656474,91.6188602 C81.7037772,93.8839682 83.5716016,98.9801347 79.5083024,101.893038 C75.4450033,104.805942 72.8042711,104.795058 71.98623,108.891234 C71.1681889,112.987409 70.5419643,122.905039 66.5689317,122.003001 C62.5954652,121.100963 62.3112122,112.025294 59.2825072,108.126765 C56.2542362,104.227802 51.1849851,103.45245 45.0186476,101.528218 C38.8523102,99.6035509 32.7957681,97.5974741 32.8208604,89.060764 C32.8456751,80.5240538 33.5400337,72.0887794 35.77717,72.8236443 C38.0143063,73.5585093 41.4418334,78.6964691 42.1895707,82.1487671 L42.1895707,82.1483317 Z" id="Path" fill="#3300CC"></path>
                    <path d="M159.134298,127.22237 C159.134298,127.22237 154.75116,127.73042 152.5431,126.804002 C150.335474,125.87715 145.780916,130.089563 143.547251,131.908005 C141.313587,133.726012 137.47552,134.513119 138.626419,137.241871 C139.777753,139.970623 138.034913,140.489121 143.675708,140.075541 C149.316502,139.661962 149.591642,136.562295 153.696169,136.601041 C157.800695,136.639787 159.999642,131.184024 161.041614,129.477901 C162.083585,127.771778 159.133864,127.222806 159.133864,127.222806 L159.134298,127.22237 Z" id="Path" fill="#3300CC"></path>
                    <path d="M144.891703,109.53337 C144.783209,110.891216 142.383333,120.24333 138.965353,121.48755 C135.546939,122.731771 131.463677,121.911143 127.312715,125.399574 C123.161754,128.888006 122.334165,131.117416 114.125112,131.040359 C105.916492,130.963303 93.5139474,130.147028 90.275199,128.27765 C87.0364505,126.408272 80.970361,122.53543 85.7449437,118.160632 C90.5195264,113.785835 97.1623674,108.714919 104.57638,108.866854 C111.990827,109.01879 115.271671,109.323968 123.363551,110.168541 C131.455432,111.013113 136.603666,110.622172 139.352458,109.27521 C142.101684,107.928683 145.395113,106.861648 144.891703,109.532935 L144.891703,109.53337 Z" id="Path" fill="#3300CC"></path>
                    <path d="M154.591891,141.912268 C138.727101,157.250833 116.171733,165.265562 92.7076236,161.677872 C61.6494017,156.929112 38.1449324,133.254967 32.0580122,104.123319 C32.2880185,104.446346 41.7451813,106.990076 44.8967009,111.04054 C48.0482206,115.091875 45.7698568,124.740024 49.8661379,128.330327 C53.9628531,131.92063 64.9714732,126.634217 67.8734578,129.434366 C70.7754423,132.23408 70.7294411,140.89051 74.445561,144.210463 C78.1612469,147.530415 77.6061941,147.565243 83.680963,147.859102 C89.755732,148.152961 94.4309346,145.623598 95.5636069,145.049811 C105.31457,140.11211 111.438378,139.133887 115.951708,151.366254 C117.296594,155.011846 121.372044,153.888651 123.217736,152.848173 C125.063862,151.80726 127.851711,147.158194 130.330137,147.16603 C132.808563,147.174737 141.175149,146.843874 143.89443,144.747245 C146.613278,142.650181 154.267279,142.031118 154.591891,141.911833 L154.591891,141.912268 Z" id="Path" fill="#DD2C00"></path>
                    <path d="M114.773903,16.4467037 C154.751594,22.5594044 182.22085,60.0257623 176.12742,100.13032 C175.001691,107.540789 172.805783,114.521135 169.726303,120.941626 C166.050542,124.578075 167.043475,118.95514 168.46474,115.152823 C169.886873,111.34833 172.434301,107.080628 173.772677,99.6640641 C175.110619,92.2479359 170.349055,101.363222 168.442607,104.882563 C166.536159,108.401469 161.816257,113.077526 159.2263,115.539411 C156.636343,118.001295 156.173293,115.495876 154.398773,111.202489 C152.624253,106.909101 156.241427,101.852551 157.139319,97.3327834 C158.037211,92.8130157 161.190467,85.2506111 160.592885,82.9363089 C159.994868,80.6220068 156.469263,77.4374469 152.503608,77.1483768 C148.537953,76.8593067 147.072857,83.7268982 145.538324,86.8796778 C144.004226,90.0324574 144.797964,90.3650622 144.254629,93.2461855 C143.711293,96.1264382 136.963865,96.7881649 134.466778,97.253115 C131.969691,97.7180651 130.534539,98.1333857 124.531376,98.0624242 C118.528212,97.9914627 120.378678,100.391528 118.199694,101.539972 C116.020276,102.688416 106.467205,98.8991602 103.223683,98.7206682 C99.9801609,98.5421761 97.7412888,95.8138594 95.9832598,97.6623407 C94.2256649,99.5103868 86.6419681,98.0341267 86.4180375,96.7293931 C86.1945408,95.4250949 89.9267178,93.7729548 92.3417834,91.0725003 C94.7568491,88.3720457 97.6510221,89.7760383 98.3870422,88.4068735 C99.1226282,87.0377086 94.1683803,82.6232948 92.0553606,79.8662452 C89.9419069,77.1091956 88.6443244,67.5960032 87.3037785,67.390955 C85.9632327,67.1859067 82.9818308,67.3652695 79.7804042,68.9925948 C76.5789775,70.6199202 72.2852381,73.8793597 69.5047663,76.2062869 C66.7242944,78.5332141 66.4734574,80.1884016 63.6435126,81.4491652 C60.8140017,82.7099287 51.7647745,81.8553435 48.6063112,80.4195706 C45.448282,78.9837978 45.5020948,77.9337419 44.6957709,74.2119644 C43.8894471,70.4901869 44.7048844,63.7344794 46.0120143,62.7701869 C47.3191442,61.8058943 50.2293742,61.4040694 52.1865973,60.3274575 C54.1442543,59.2508455 54.0613652,57.015341 54.34909,53.0371444 C54.6372488,49.0589478 56.977237,49.6288164 60.2012303,47.1577895 C63.4252236,44.6867626 64.4350813,40.8195793 64.4350813,40.8195793 C64.4350813,40.8195793 63.6916837,36.6833519 61.8043305,36.6067309 C59.9169773,36.5301099 57.5405353,38.2832504 55.8923018,39.4068798 C54.2440683,40.5305092 52.6526854,41.9815192 50.4420215,43.336753 C48.2374333,44.6880686 44.3182135,46.1382079 44.2952129,46.1464795 C59.854051,24.4953904 86.6641008,12.1476567 114.773903,16.445833 L114.773903,16.4467037 Z" id="Path" fill="#FF6D00"></path>
                    <path d="M114.773903,16.4462684 C147.134047,21.3944171 171.294251,46.8861333 176.097042,77.6903832 C175.396608,76.5658831 174.658418,75.0125667 174.1268,72.945106 C172.773235,67.6822018 169.106588,64.7645093 168.116693,64.5150558 C167.126798,64.2660375 165.991956,64.9756524 165.346636,66.6439003 C164.701751,68.3125836 165.712477,70.6756445 164.821962,70.0975043 C163.931447,69.5197995 164.102867,68.7117963 163.045706,67.6173351 C161.988979,66.5233093 159.823882,67.5663996 159.422022,66.6708918 C159.019729,65.7749486 162.041924,65.2059507 163.548682,64.3073955 C165.05544,63.4084049 166.39208,59.4410919 165.635663,57.6561711 C164.879246,55.8712504 161.229524,54.7737417 158.488544,56.7110338 C155.747564,58.6483259 151.594866,57.9639611 154.227353,57.3849502 C156.85984,56.8059394 159.952339,53.8425355 160.8971,50.8451746 C161.841428,47.8478138 156.160707,45.3106142 152.96362,41.8766007 C149.766534,38.4425873 151.071928,40.8017301 148.755374,41.2331585 C146.439254,41.664587 144.398708,44.7886337 145.26926,46.7864389 C146.140246,48.7846795 144.34099,50.9640242 143.671802,50.8617178 C143.00218,50.7594114 141.29536,50.4002505 139.924002,47.834318 C138.55221,45.2683856 136.926543,45.0198027 134.554875,42.5957932 C132.183206,40.1713483 133.193932,37.3812124 131.099139,33.1339716 C129.004346,28.8867309 124.22065,26.879348 121.440612,27.1414266 C118.660575,27.4035052 116.69337,30.0478001 114.764789,34.3673084 C112.836643,38.6868167 109.203846,39.4073152 108.120646,38.1617888 C107.037447,36.9162623 108.121948,33.6459392 109.700746,31.629414 C111.279544,29.6128889 112.962929,23.6852105 112.755055,22.4758178 C112.547616,21.2664252 110.83689,18.3535215 106.783138,17.3413408 C102.856541,16.3609404 97.5225658,15.9155809 97.1897077,15.8885895 C102.930317,15.3757512 108.822816,15.5368295 114.774337,16.4467037 L114.773903,16.4462684 Z" id="Path" fill="#FFD740"></path>
                    <path d="M176.964122,88.1787519 C177.006652,92.1168966 176.738456,96.109895 176.12742,100.129885 C175.001691,107.540354 172.805783,114.5207 169.725869,120.941191 C166.050108,124.57764 167.043041,118.954704 168.464306,115.152388 C169.886439,111.347894 172.434301,107.079757 173.772243,99.6636288 C175.110185,92.2475006 170.348621,101.362786 168.442173,104.882128 C166.535725,108.401034 161.815823,113.077091 159.2263,115.539411 C156.636777,118.001295 156.173293,115.495876 154.398339,111.202489 C152.624253,106.908666 156.240993,101.852551 157.138885,97.3327834 C158.036777,92.8125804 161.190033,85.2510464 160.592885,82.9363089 C159.994868,80.6220068 156.468829,77.4374469 152.503174,77.1479414 C148.537519,76.859742 147.072423,83.7268982 145.53789,86.8792425 C144.003358,90.0324574 144.797531,90.3641915 144.254195,93.2453148 C143.710859,96.1260028 136.963431,96.7877296 134.46591,97.253115 C131.968823,97.7176298 130.533671,98.1333857 124.530508,98.0624242 C118.527345,97.9914627 120.37781,100.391528 118.198826,101.539972 C116.019408,102.688416 106.466337,98.8991602 103.222815,98.7206682 C99.979293,98.5426114 97.7404208,95.8151654 95.9823919,97.6627761 C94.2247969,99.5103868 86.6406662,98.0341267 86.4171695,96.7298285 C86.1932389,95.4255303 89.9262838,93.7733902 92.3409155,91.0729356 C94.7559812,88.3724811 97.6505882,89.7764737 98.3861742,88.4073088 C99.1221942,87.038144 94.1675123,82.6237301 92.0540586,79.8666805 C89.9406049,77.1096309 88.6434565,67.5964385 87.3024766,67.3913903 C85.9619307,67.1863421 82.9805289,67.3657049 79.7791022,68.9930302 C76.5776756,70.6203555 72.2835022,73.879795 69.5034643,76.2067222 C66.7229925,78.5336495 66.4717215,80.1884016 63.6422106,81.4496005 C60.8126997,82.7107994 51.7634726,81.8557788 48.6050093,80.4204413 C45.447414,78.9851038 45.5007928,77.9346126 44.694469,74.2128351 C43.8881452,70.4910576 44.7035825,63.7353501 46.0107124,62.7710575 C47.3178422,61.806765 50.2272044,61.4049401 52.1852953,60.3283282 C54.1425184,59.2517162 54.0600633,57.0162117 54.3473541,53.0380151 C54.6359469,49.0598185 56.975935,49.6296871 60.1999284,47.1586602 C63.4239217,44.6876333 64.4342133,40.82045 64.4342133,40.82045 C64.4342133,40.82045 63.6916837,36.684658 61.8030286,36.6076016 C59.9156753,36.5309806 57.5392334,38.2841211 55.8909999,39.4081859 C54.2427664,40.5318153 52.6513835,41.9828253 50.4407196,43.338059 C48.2361314,44.6893747 44.3169116,46.1390786 44.293911,46.1473502 C53.1383024,33.8401037 65.6193965,24.5411018 79.9066906,19.5946945 C79.9982591,19.6791517 84.5775535,23.9564314 81.4104107,29.4979574 C78.2115879,35.0952078 75.9770555,38.7294806 79.2934853,42.5500818 C82.611651,46.3711183 88.2225016,45.8539266 88.2225016,45.8539266 L91.1053913,48.5304371 C91.1053913,48.5304371 94.5303147,48.7820674 98.2854922,46.6075115 C102.041104,44.4329556 108.930008,40.7190143 112.124925,44.404658 C114.777375,47.4642735 114.043524,53.3179429 111.221825,56.1455187 C104.494359,62.885989 107.82077,69.0256812 114.125112,71.383518 C119.958591,73.5659102 128.035282,73.0225977 133.134044,71.9768953 C141.909867,70.1776081 150.378871,66.3787743 153.963497,69.5032563 C156.080422,71.3486903 156.751346,73.430082 159.213715,74.265512 C161.676084,75.1005067 162.03281,72.7500708 162.03281,72.7500708 L163.586872,74.1179296 C163.586872,74.1179296 165.981106,74.1396969 166.191584,69.8528396 C166.402495,65.5655469 171.261269,63.8541997 172.687308,73.7914197 C174.078629,83.4870223 176.82959,87.9676088 176.96282,88.1796226 L176.964122,88.1787519 Z" id="Path" fill="#DD2C00"></path>
                    <path d="M176.652963,95.7864325 C176.519299,97.230477 176.347879,98.6784396 176.12742,100.13032 C175.001691,107.540789 172.805783,114.521135 169.725869,120.941626 C166.050108,124.578075 167.043041,118.95514 168.464306,115.152823 C169.886439,111.34833 172.434301,107.080192 173.772243,99.6640641 C175.110185,92.2479359 170.348621,101.363222 168.442173,104.882563 C166.535725,108.401469 161.815823,113.077526 159.2263,115.539846 C156.636777,118.001731 156.173293,115.496311 154.398339,111.202924 C152.624253,106.909101 156.240993,101.852986 157.138885,97.3332188 C157.708693,94.4647205 159.186809,90.371157 160.038266,87.1709247 C159.921527,88.7847543 159.886375,90.7107273 160.089041,92.6723988 C160.603734,97.6597287 163.645024,100.186045 166.057052,99.769418 C168.468646,99.3527913 171.259099,95.165193 173.023638,95.1403783 C173.759658,95.12993 175.144035,95.4412027 176.652963,95.7859972 L176.652963,95.7864325 Z M151.591828,77.2132434 C148.301003,77.9433196 146.94874,83.9811406 145.53789,86.8801132 C144.003358,90.0333281 144.797531,90.3650622 144.254195,93.2461855 C143.710859,96.1268735 136.963431,96.7886003 134.46591,97.2539857 C131.968823,97.7185004 130.533671,98.1342564 124.530508,98.0632949 C118.527345,97.9923334 120.37781,100.392399 118.198826,101.540843 C116.019408,102.689287 106.466337,98.9000309 103.222815,98.7215389 C99.979293,98.5434821 97.7404208,95.8160361 95.9823919,97.6636468 C94.2247969,99.5112575 86.6406662,98.0349974 86.4171695,96.7306992 C86.1932389,95.426401 89.9262838,93.7742609 92.3409155,91.0738063 C94.7559812,88.3733518 97.6505882,89.7773443 98.3861742,88.4081795 C99.1221942,87.0390147 94.1675123,82.6246008 92.0540586,79.8675512 C89.9406049,77.1105016 88.6434565,67.5973092 87.3024766,67.392261 C85.9619307,67.1872128 82.9805289,67.3665755 79.7791022,68.9939009 C76.5776756,70.6212262 72.2835022,73.8806657 69.5034643,76.2075929 C66.7229925,78.5345201 66.4717215,80.1892723 63.6422106,81.4504712 C60.8126997,82.7116701 51.7634726,81.8566495 48.6050093,80.421312 C45.447414,78.9859745 45.5007928,77.9354833 44.694469,74.2137058 C43.8881452,70.4919283 44.7035825,63.7362208 46.0107124,62.7719282 C47.3178422,61.8076357 50.2272044,61.4058108 52.1852953,60.3291988 C54.1425184,59.2525869 54.0600633,57.0170824 54.3473541,53.0388858 C54.6359469,49.0606892 56.975935,49.6305578 60.1999284,47.1595309 C63.4239217,44.688504 64.4342133,40.8213207 64.4342133,40.8213207 C64.4342133,40.8213207 63.6916837,36.6855287 61.8030286,36.6084723 C59.9156753,36.5318513 57.5392334,38.2849918 55.8909999,39.4090566 C54.2427664,40.532686 52.6513835,41.983696 50.4407196,43.3389297 C48.2361314,44.6902454 44.3169116,46.1399493 44.293911,46.1482209 C51.1750037,36.5732093 60.2572129,28.8192522 70.6782321,23.5184728 C70.6448161,23.645594 69.2973267,28.8427609 69.0200172,38.3024057 C68.739236,47.8800294 63.4777345,51.5917939 65.6180946,56.8272713 C67.7584546,62.0627487 68.8768058,62.4301812 73.0850523,63.0736234 C77.2932988,63.7170656 88.1344049,63.215111 91.2564143,65.852005 C94.3784237,68.4888989 94.1071899,74.1414383 99.0870423,80.0077328 C101.736454,83.1282968 104.374582,86.3716284 107.695786,88.984143 C107.259642,89.4517051 106.971483,90.0137375 106.874273,90.6536969 C106.501489,93.108616 109.082333,95.7698894 112.639184,96.5983538 C115.978181,97.3758827 118.990395,96.2613956 119.655243,94.0911931 C128.660205,95.4999745 136.150163,93.9762617 140.747685,90.5008903 C145.536588,86.8801132 145.771802,77.5776285 151.587489,77.2136788 L151.590527,77.2136788 L151.591828,77.2132434 Z" id="Shape" fill="#9B0109"></path>
                    <ellipse id="Oval" fill="#DD2C00" transform="translate(55.818092, 70.975598) rotate(8.824082) translate(-55.818092, -70.975598) " cx="55.8180922" cy="70.9755983" rx="8.6250348" ry="6.99224614"></ellipse>
                    <ellipse id="Oval" fill="#DD2C00" transform="translate(116.857412, 63.580802) rotate(8.824085) translate(-116.857412, -63.580802) " cx="116.857412" cy="63.5808021" rx="7.38391446" ry="5.98607104"></ellipse>
                    <ellipse id="Oval" fill="#DD2C00" transform="translate(87.970797, 40.511354) rotate(8.824051) translate(-87.970797, -40.511354) " cx="87.9707967" cy="40.511354" rx="9.71546028" ry="7.8762585"></ellipse>
                    <ellipse id="Oval" fill="#9B0109" transform="translate(113.139123, 92.561821) rotate(8.824063) translate(-113.139123, -92.561821) " cx="113.139123" cy="92.5618208" rx="5.54525824" ry="4.49550204"></ellipse>
                    <ellipse id="Oval" fill="#DD2C00" transform="translate(152.384265, 51.245693) rotate(8.824063) translate(-152.384265, -51.245693) " cx="152.384265" cy="51.2456934" rx="5.54525824" ry="4.49550204"></ellipse>
                    <ellipse id="Oval" fill="#DD2C00" transform="translate(126.650037, 40.339392) rotate(8.044009) translate(-126.650037, -40.339392) " cx="126.650037" cy="40.3393921" rx="3.97450026" ry="3.22218041"></ellipse>
                    <ellipse id="Oval" fill="#740107" transform="translate(160.760399, 71.473199) rotate(8.044009) translate(-160.760399, -71.473199) " cx="160.760399" cy="71.4731994" rx="3.97450026" ry="3.22218041"></ellipse>
                    <ellipse id="Oval" fill="#330099" transform="translate(107.399382, 24.635572) rotate(8.044009) translate(-107.399382, -24.635572) " cx="107.399382" cy="24.635572" rx="3.97450026" ry="3.22218041"></ellipse>
                    <ellipse id="Oval" fill="#9B0109" transform="translate(141.180922, 74.349059) rotate(8.044011) translate(-141.180922, -74.349059) " cx="141.180922" cy="74.3490586" rx="2.17000491" ry="2.1765985"></ellipse>
                    <ellipse id="Oval" fill="#330099" transform="translate(86.815124, 41.750350) rotate(8.824062) translate(-86.815124, -41.750350) " cx="86.8151237" cy="41.7503502" rx="7.67150416" ry="6.21924054"></ellipse>
                    <path d="M89.7900159,30.781359 C95.4846236,32.1631489 100.967452,37.7612699 97.9235579,43.2414121 C98.0320514,42.918385 98.1145064,42.5827328 98.1674513,42.2335849 C98.8210162,37.9327965 94.8540593,33.3546923 89.3065688,32.0081655 C84.6561028,30.8788766 80.3719108,32.3803868 78.7232433,35.4286832 C79.9522579,31.7722077 84.0954083,29.3991337 89.7900159,30.7809236 L89.7900159,30.781359 Z" id="Path" fill="#FFD740"></path>
                    <ellipse id="Oval" fill="#330099" transform="translate(56.626152, 69.872430) rotate(8.824072) translate(-56.626152, -69.872430) " cx="56.6261519" cy="69.8724302" rx="6.9447218" ry="5.63003642"></ellipse>
                    <path d="M62.966079,75.7800826 C61.5374364,78.4465801 57.9766792,79.7778698 54.1364427,78.8231549 C49.513317,77.67384 46.2350769,73.6464493 46.8153003,69.8288955 C46.9737008,68.7862406 47.4037691,67.8676594 48.0391071,67.1053676 C47.7479105,67.6486801 47.5452446,68.2477169 47.4467325,68.8942065 C46.8665092,72.7121956 50.1447493,76.739151 54.767875,77.8884659 C58.1285702,78.7243312 61.2748821,77.8087975 62.966079,75.7800826 L62.966079,75.7800826 Z" id="Path" fill="#FFD740"></path>
                    <path d="M120.805708,34.1574713 C120.805708,34.1574713 116.778429,41.9845667 122.004779,44.9431817 C127.231128,47.9017967 132.745637,46.3894029 135.404162,48.8573824 C138.062687,51.3253619 145.221523,55.4150072 147.780234,57.5730199 C150.338945,59.7310327 154.653949,59.9983355 157.534669,58.4262992 C160.415389,56.8542628 164.576332,57.4907395 164.626673,59.4127944 C164.677014,61.3348493 161.534608,65.271688 157.025618,65.3187055 C152.516627,65.3657229 142.366408,65.8263195 140.345391,66.8916125 C138.324373,67.9569054 131.606889,71.5929197 129.088971,70.1279786 C126.571054,68.6630375 125.681841,66.4658436 128.513522,63.6099703 C131.345202,60.7540971 131.221086,58.6731406 129.414886,55.7467412 C127.608686,52.8203419 124.283143,52.4751121 118.9713,51.6962771 C113.659891,50.9174422 113.793121,46.4869205 113.692005,42.6428106 C113.591323,38.7987007 117.349539,33.3847313 118.819409,32.7260519 C120.289713,32.0673726 121.701431,31.792669 120.804406,34.157036 L120.805708,34.1574713 Z" id="Path" fill="#DD2C00"></path>
                    <path d="M98.5020453,19.6060135 C98.5020453,19.6060135 95.7029126,21.9268459 98.2820204,25.5606834 C100.861562,29.1945209 106.02759,31.2606755 106.097893,34.0203372 C106.167763,36.7799989 102.820955,42.060317 101.457409,40.0847144 C100.094296,38.1091118 100.727464,33.2976619 97.8562919,31.5823966 C94.9851195,29.8666959 90.107251,29.1213827 87.6127681,28.1505599 C85.1182851,27.1797371 83.8632322,23.8462887 84.4417196,21.9716866 C85.020207,20.096649 88.7332891,19.4862932 91.1309958,19.1658782 C93.5287025,18.8454631 97.0200239,17.1210555 98.5020453,19.6055781 L98.5020453,19.6060135 Z" id="Path" fill="#DD2C00"></path>
                    <path d="M135.880231,76.8336212 C135.880231,76.8336212 126.76938,83.981576 116.206451,78.144885 C105.643522,72.308194 100.549969,69.7627229 99.6538125,70.5089068 C98.757656,71.2550908 97.1888398,75.1388172 99.0076251,76.6930043 C100.82641,78.2471914 105.203039,78.4256835 108.26516,80.1701171 C111.327281,81.9145506 116.123128,87.0655708 120.326601,89.6715551 C124.530074,92.2779748 134.625178,89.6001583 136.813276,86.7930439 C139.001373,83.9859294 141.169507,77.4461538 139.961758,76.3778134 C138.754008,75.309473 135.275272,75.661233 135.880231,76.8336212 L135.880231,76.8336212 Z" id="Path" fill="#FF6D00"></path>
                    <path d="M89.1546779,59.2116643 C89.1546779,59.2116643 83.4800331,61.7802088 78.1890213,59.8912402 C75.1494669,58.8059213 72.8311775,57.442416 71.5214437,55.9744275 L71.5205758,55.9735568 C70.1197075,54.7167113 69.1471716,51.4167846 71.3287593,48.977538 C73.5099129,46.537856 75.4458712,47.3563075 75.4458712,47.3563075 L75.4458712,47.3567429 C73.5242341,46.9531766 71.4967072,49.0245554 70.9772403,51.3271032 C70.6652129,52.7088931 71.3565336,54.110709 72.8350832,55.4041235 L72.8350832,55.4041235 L72.8997454,55.4598479 L72.9322934,55.4881454 L72.9652755,55.5155722 L73.0316735,55.5712966 L73.0707312,55.6039476 L73.0989395,55.6270209 L73.1987535,55.7071247 L73.2139426,55.7193144 L73.2369432,55.737599 L73.307247,55.7924526 L73.3606258,55.8338105 L73.3784188,55.8473063 L73.3797207,55.848177 L73.5116488,55.947436 L73.5238001,55.9561429 L73.5980096,56.0105612 L73.6665775,56.0606261 L73.6730872,56.0649796 L73.7490326,56.1189625 L73.82628,56.1729455 L73.82628,56.1733808 L73.9039614,56.2269285 L73.9829446,56.2804761 L73.9894542,56.2852649 L74.0627959,56.3340237 L74.143515,56.387136 L74.1569682,56.3958429 L74.2251022,56.4398129 L74.3075572,56.4929252 L74.328388,56.5064209 L74.3435771,56.5159986 L74.4750712,56.5982791 L74.5032795,56.6161283 L74.5601301,56.650956 L74.646057,56.7031976 L74.6820769,56.7249649 L74.7328518,56.7550038 L74.8205146,56.8068101 L74.8647799,56.8329308 L74.9090453,56.8581809 L74.9984439,56.9095518 L75.0513888,56.9395907 L75.0891445,56.9609227 L75.2419034,57.0458153 L75.2722816,57.0627938 L75.365586,57.113294 L75.4358898,57.1511692 L75.4593244,57.1633589 L75.6073096,57.2412859 L75.633782,57.2547816 L75.649839,57.2630532 L75.7461813,57.3126827 L75.8355799,57.3579588 L75.8438254,57.3618769 L76.0408496,57.4602652 L76.2413457,57.5577828 L76.2500251,57.5617009 L76.3428956,57.6061063 L76.4448795,57.6544297 L76.4622385,57.6627013 L76.6783575,57.7619603 L76.7569069,57.7972234 L76.8623626,57.8446762 L76.8975145,57.8599133 L77.0758778,57.9378403 L77.1210111,57.9569956 L77.1843713,57.9839871 L77.3475456,58.0532072 L77.4022263,58.0758452 L77.5124557,58.1215566 L77.5775518,58.1481127 L77.623987,58.1668326 L77.8058222,58.2404062 L77.8110299,58.2421476 L77.8487856,58.2569494 L78.0475457,58.334441 L78.076622,58.34576 L78.2879674,58.4258638 L78.3070622,58.4332647 L78.4233673,58.4767993 L78.5305589,58.5164159 L78.5405403,58.5198987 L78.6585812,58.5625626 L78.7770561,58.6052266 L79.0044585,58.6831536 L79.0435162,58.696214 C79.1954071,58.7462789 79.348166,58.7928609 79.5009249,58.8355249 L79.5516998,58.8498913 L79.7613093,58.906051 L79.7764984,58.9099691 L79.9973912,58.9643875 L80.0624873,58.9791892 L80.2339071,59.0170644 L80.2877198,59.0283834 L80.5055748,59.0719181 L80.5472363,59.079319 L80.7433926,59.1141467 L80.78679,59.1215476 L80.988154,59.1537632 L81.0159283,59.1581167 L81.0623635,59.1642115 L81.2333493,59.1877202 L81.2854262,59.1942504 C81.355296,59.2029574 81.4247319,59.2116643 81.4941677,59.2190652 L81.5093568,59.2208066 L81.5531882,59.22516 L81.7380612,59.2430092 L81.7645336,59.2456213 L81.9958418,59.2643412 L81.9984456,59.2643412 L82.2180365,59.277837 L82.2722832,59.2808844 L82.4532504,59.289156 L82.4831946,59.290462 L82.4927421,59.2908974 L82.7214464,59.2969922 L82.7253522,59.2969922 L82.9384334,59.2996043 L82.961434,59.3000396 L82.9831328,59.3000396 L83.1931762,59.2987336 L83.2070634,59.2987336 L83.4192767,59.2943801 L83.4331639,59.2943801 L83.4661459,59.2935094 L83.6605663,59.2865439 L83.6783592,59.2856732 L83.8923084,59.2747895 L83.8975161,59.2747895 L84.0954083,59.2621645 L84.1236166,59.2604231 L84.249903,59.2508455 L84.3488491,59.2430092 L84.4030959,59.2382204 L84.5554208,59.2242893 L84.5714778,59.222548 L84.7060098,59.2086169 L84.7915027,59.1994746 L84.8557308,59.1920737 L85.003716,59.1742245 L85.0084897,59.1733538 L85.1903248,59.1498451 L85.2228729,59.145927 L85.2957805,59.1354787 L85.4337843,59.1154527 L85.4398599,59.114582 L85.5817694,59.0928147 L85.5917509,59.0910733 L85.6941687,59.0749655 L85.722377,59.0701767 L85.8456257,59.04928 L85.8612487,59.046668 C85.990573,59.0240299 86.1185954,59.0005212 86.2431459,58.9761418 L86.2678824,58.971353 L86.3998106,58.9447969 L86.4358304,58.937396 L86.5300028,58.9178054 L86.6250431,58.8977794 L86.6584591,58.8903786 L86.7847456,58.8625164 L86.8094821,58.8568569 L86.9088621,58.8342189 L86.9900153,58.8150636 L87.0312428,58.805486 L87.1514536,58.7758824 L87.1666427,58.7723996 L87.2694946,58.7467142 L87.3376285,58.7293003 L87.3849317,58.7171106 L87.4986329,58.6875071 L87.5047085,58.6857657 L87.6101642,58.6574682 L87.6665809,58.642231 L87.7190917,58.6274292 L87.8236795,58.598261 L87.8262833,58.5973903 L87.9308711,58.5673514 L87.9760044,58.5538557 L88.032855,58.5373125 L88.1226876,58.510321 L88.132235,58.5072736 L88.2290112,58.47767 C89.1729048,58.1855525 89.7414109,57.9286981 89.7414109,57.9286981 C90.3962777,57.6370159 90.7321736,57.3148595 90.8402332,57.0018453 C90.7612499,57.6000114 90.440977,58.7575979 89.1546779,59.2134057 L89.1546779,59.2116643 Z" id="Shape" fill="#FFD740"></path>
                    <path d="M89.0969594,56.8207411 C89.0969594,56.8207411 84.2373178,59.0201118 79.7066286,57.4027995 C75.1759393,55.7854871 72.5148104,53.4446288 73.0282017,51.1695078 C73.541593,48.8943868 75.7748235,46.8822151 77.6031563,48.0863837 C79.431055,49.2905522 81.5813965,51.1325033 82.5851785,52.7990099 C83.5889605,54.4655164 86.0903871,55.1002516 87.6518257,54.7506684 C89.2132644,54.4006498 91.344511,55.8194441 89.0969594,56.8211765 L89.0969594,56.8207411 Z" id="Path" fill="#9B0109"></path>
                    <ellipse id="Oval" fill="#DD2C00" transform="translate(141.808317, 35.670301) rotate(8.044009) translate(-141.808317, -35.670301) " cx="141.808317" cy="35.6703005" rx="3.97450026" ry="3.22218041"></ellipse>
                    <ellipse id="Oval" fill="#330099" transform="translate(117.300066, 62.749726) rotate(8.824056) translate(-117.300066, -62.749726) " cx="117.300066" cy="62.7497256" rx="6.21292952" ry="5.03678326"></ellipse>
                    <ellipse id="Oval" fill="#330099" transform="translate(112.679110, 93.553540) rotate(8.824042) translate(-112.679110, -93.553540) " cx="112.67911" cy="93.5535402" rx="3.77126659" ry="3.05734279"></ellipse>
                    <ellipse id="Oval" fill="#330099" transform="translate(151.519789, 52.507763) rotate(8.824085) translate(-151.519789, -52.507763) " cx="151.519789" cy="52.507763" rx="3.65032452" ry="2.95929114"></ellipse>
                    <ellipse id="Oval" fill="#330099" transform="translate(125.901432, 40.966291) rotate(8.044007) translate(-125.901432, -40.966291) " cx="125.901432" cy="40.9662911" rx="2.80448647" ry="2.27363378"></ellipse>
                    <ellipse id="Oval" fill="#330099" transform="translate(159.503176, 71.153815) rotate(8.044006) translate(-159.503176, -71.153815) " cx="159.503176" cy="71.1538154" rx="2.68245021" ry="2.17659861"></ellipse>
                    <path d="M123.162188,20.8158415 C126.817985,21.2276793 130.840925,23.4131189 133.505091,24.5567743 C136.169258,25.700865 136.882278,30.6686042 136.166654,31.8357683 C135.451031,33.0029323 131.61253,30.8941137 129.663553,28.5837297 C127.715009,26.2733456 126.834042,24.6656109 123.031127,24.5750588 C113.380846,24.3451958 118.208374,20.2577273 123.162188,20.8158415 Z" id="Path" fill="#DD2C00"></path>
                    <ellipse id="Oval" fill="#330099" transform="translate(160.194062, 106.341409) rotate(49.719220) translate(-160.194062, -106.341409) " cx="160.194062" cy="106.341409" rx="3.98157058" ry="3.21647282"></ellipse>
                    <path d="M163.486624,107.948709 C163.412848,108.866854 163.063933,109.704026 162.436406,110.297839 C160.96697,111.687465 158.526734,111.214678 156.986126,109.241252 C155.445518,107.267827 155.3878,104.540816 156.856802,103.15119 C157.711731,102.342751 158.895178,102.164695 160.0387,102.545623 C159.197658,102.403264 158.369635,102.610054 157.742977,103.202996 C156.452338,104.424143 156.503113,106.818984 157.856678,108.552534 C159.210243,110.286084 161.353641,110.70184 162.64428,109.480693 C163.07131,109.076691 163.351658,108.543827 163.48619,107.948709 L163.486624,107.948709 Z" id="Path" fill="#DD2C00"></path>
                    <ellipse id="Oval" fill="#DD2C00" transform="translate(52.795897, 124.558485) rotate(8.824072) translate(-52.795897, -124.558485) " cx="52.7958969" cy="124.558485" rx="6.9447218" ry="5.63003642"></ellipse>
                    <ellipse id="Oval" fill="#DD2C00" transform="translate(51.352065, 113.202035) rotate(8.824033) translate(-51.352065, -113.202035) " cx="51.3520651" cy="113.202035" rx="4.00671599" ry="3.24821646"></ellipse>
                    <ellipse id="Oval" fill="#DD2C00" transform="translate(131.290522, 145.900043) rotate(8.824057) translate(-131.290522, -145.900043) " cx="131.290522" cy="145.900043" rx="4.05518544" ry="3.28750934"></ellipse>
                    <ellipse id="Oval" fill="#DD2C00" transform="translate(123.206453, 147.896162) rotate(-32.241247) translate(-123.206453, -147.896162) " cx="123.206453" cy="147.896162" rx="2.65473168" ry="2.17478296"></ellipse>
                    <ellipse id="Oval" fill="#9B0109" transform="translate(163.333865, 116.985252) rotate(-32.241247) translate(-163.333865, -116.985252) " cx="163.333865" cy="116.985252" rx="2.65473168" ry="2.17478296"></ellipse>
                    <ellipse id="Oval" fill="#9B0109" transform="translate(137.811850, 99.616176) rotate(-32.241268) translate(-137.811850, -99.616176) " cx="137.81185" cy="99.616176" rx="5.67981941" ry="4.59701166"></ellipse>
                    <ellipse id="Oval" fill="#9B0109" transform="translate(128.982214, 103.753549) rotate(-32.241257) translate(-128.982214, -103.753549) " cx="128.982214" cy="103.753549" rx="2.25839083" ry="2.17478203"></ellipse>
                    <ellipse id="Oval" fill="#9B0109" transform="translate(83.319029, 72.797959) rotate(-32.241277) translate(-83.319029, -72.797959) " cx="83.3190287" cy="72.7979589" rx="3.76445797" ry="3.04679426"></ellipse>
                    <ellipse id="Oval" fill="#9B0109" transform="translate(77.853569, 76.281063) rotate(-32.241305) translate(-77.853569, -76.281063) " cx="77.8535695" cy="76.2810633" rx="2.17182565" ry="2.17478184"></ellipse>
                    <ellipse id="Oval" fill="#9B0109" transform="translate(86.788651, 78.038992) rotate(-32.241253) translate(-86.788651, -78.038992) " cx="86.7886513" cy="78.0389925" rx="2.35237278" ry="2.17478224"></ellipse>
                    <ellipse id="Oval" fill="#9B0109" transform="translate(54.829065, 47.847814) rotate(-32.241277) translate(-54.829065, -47.847814) " cx="54.8290653" cy="47.8478138" rx="3.76445797" ry="3.04679426"></ellipse>
                    <ellipse id="Oval" fill="#9B0109" transform="translate(59.026473, 43.656630) rotate(-32.241305) translate(-59.026473, -43.656630) " cx="59.0264726" cy="43.6566295" rx="2.17182565" ry="2.17478184"></ellipse>
                    <ellipse id="Oval" fill="#DD2C00" transform="translate(157.643163, 82.513587) rotate(-32.241277) translate(-157.643163, -82.513587) " cx="157.643163" cy="82.5135875" rx="3.76445797" ry="3.04679426"></ellipse>
                    <ellipse id="Oval" fill="#DD2C00" transform="translate(152.569033, 81.284340) rotate(-32.241283) translate(-152.569033, -81.284340) " cx="152.569033" cy="81.2843396" rx="2.17182565" ry="2.17478184"></ellipse>
                    <ellipse id="Oval" fill="#DD2C00" transform="translate(157.022909, 89.328237) rotate(-32.241283) translate(-157.022909, -89.328237) " cx="157.022909" cy="89.3282375" rx="2.17182565" ry="2.17478184"></ellipse>
                    <ellipse id="Oval" fill="#DD2C00" transform="translate(95.733291, 139.776894) rotate(8.824033) translate(-95.733291, -139.776894) " cx="95.7332908" cy="139.776894" rx="4.00671599" ry="3.24821646"></ellipse>
                    <ellipse id="Oval" fill="#DD2C00" transform="translate(122.706515, 140.661518) rotate(8.824033) translate(-122.706515, -140.661518) " cx="122.706515" cy="140.661518" rx="4.00671599" ry="3.24821646"></ellipse>
                    <ellipse id="Oval" fill="#330099" transform="translate(40.648963, 113.762326) rotate(8.824068) translate(-40.648963, -113.762326) " cx="40.6489628" cy="113.762326" rx="3.20625277" ry="2.59928647"></ellipse>
                    <ellipse id="Oval" fill="#330099" transform="translate(61.771348, 136.603653) rotate(8.824054) translate(-61.771348, -136.603653) " cx="61.7713484" cy="136.603653" rx="4.48758422" ry="3.63805321"></ellipse>
                    <ellipse id="Oval" fill="#330099" transform="translate(104.546002, 150.824247) rotate(8.824091) translate(-104.546002, -150.824247) " cx="104.546002" cy="150.824247" rx="7.23731928" ry="5.86721398"></ellipse>
                    <path d="M111.623685,151.660983 C111.791199,152.388012 111.828955,153.130713 111.717423,153.865143 C111.161937,157.520312 107.12294,159.591691 102.696839,158.49157 C98.2703031,157.39145 95.1309348,153.53515 95.6864216,149.879981 C96.1017347,147.146004 98.4668934,145.298394 101.484749,145.001052 C99.3895222,145.552201 97.8324233,147.031508 97.5216979,149.077637 C97.034779,152.281352 99.7861745,155.660512 103.665469,156.624369 C107.544329,157.588662 111.084255,155.773267 111.57074,152.569987 C111.616742,152.267856 111.6341,151.963549 111.623685,151.660548 L111.623685,151.660983 Z" id="Path" fill="#9B0109"></path>
                    <path d="M133.572791,81.5741096 C132.156734,82.5736653 129.743404,85.4978879 125.651897,84.202732 C119.956421,82.3995267 116.817921,81.4778981 114.947926,80.2593631 C113.077932,79.0408282 113.22071,81.320738 116.573159,82.7656531 C119.925609,84.2105682 121.273966,85.6445997 124.319596,86.2079381 C127.36566,86.7717119 130.133981,88.5200636 133.227782,86.8339664 C136.977318,84.7904498 136.451341,79.5414767 133.572791,81.5741096 Z" id="Path" fill="#FFD740"></path>
                    <path d="M104.28475,74.3766996 C103.44935,73.5202117 100.605952,73.1218032 100.444947,73.6992243 C100.283509,74.2772482 99.5197145,73.0717761 102.091011,76.0866618 C104.662741,79.1015474 107.08909,77.8231443 104.28475,74.3766996 L104.28475,74.3766996 Z" id="Path" fill="#FFD740"></path>
                    <path d="M66.1080513,136.644575 C66.3358877,137.260155 66.4179088,137.905774 66.3215665,138.54138 C65.9735193,140.830868 63.4430165,142.128636 60.6703562,141.439482 C57.896828,140.750328 55.9304915,138.334591 56.2785387,136.044232 C56.5371873,134.340721 58.0053215,133.185747 59.8826933,132.990712 C58.5786013,133.330282 57.6091032,134.249299 57.4159847,135.520946 C57.1139388,137.507432 58.8198908,139.602755 61.2254091,140.200486 C63.6304933,140.798217 65.8255342,139.67241 66.1271461,137.686795 C66.179657,137.339824 66.1709775,136.98937 66.1080513,136.644575 L66.1080513,136.644575 Z" id="Path" fill="#9B0109"></path>
                    <path d="M111.134162,24.219816 C111.425793,24.8384435 111.549476,25.503653 111.458775,26.1597202 C111.177994,28.1862583 108.958216,29.3625646 106.500621,28.7861658 C104.043026,28.2093317 102.278054,26.0987717 102.558835,24.0717982 C102.807936,22.2716403 104.58723,21.1427868 106.705023,21.3169254 C105.058091,21.339128 103.729697,22.2860067 103.529635,23.7278745 C103.285307,25.4905926 104.820274,27.3260136 106.957596,27.8275328 C109.094918,28.329052 111.025669,27.3059876 111.269562,25.5432695 C111.331187,25.0996514 111.279544,24.6508091 111.134162,24.219816 L111.134162,24.219816 Z" id="Path" fill="#DD2C00"></path>
                    <path d="M94.4595769,157.12197 C94.4595769,157.12197 93.7704261,153.286132 92.3114053,151.295728 C90.8519505,149.305323 87.4413483,151.140309 84.535024,150.303137 C81.6286997,149.465966 79.2913154,150.679277 81.9858604,152.269162 C84.6799713,153.859483 87.1297549,153.841199 89.1104126,155.616542 C91.0915042,157.391885 95.2346546,159.105409 94.4595769,157.121535 L94.4595769,157.12197 Z" id="Path" fill="#DD2C00"></path>
                    <path d="M146.500445,148.682778 C131.497961,159.514199 112.423933,164.692646 92.7071896,161.677872 C66.9898866,157.745822 46.45163,140.837833 36.6928552,118.599897 C45.6470421,133.655486 50.1885807,123.252445 51.1441916,133.710775 C51.2149293,134.48395 54.3469202,140.974097 60.2862892,143.747689 C66.2256582,146.520847 68.7071219,145.967957 71.5483501,147.236992 C74.3891444,148.506027 79.98307,154.51555 86.577306,157.487226 C93.1715419,160.458901 103.860323,161.602121 106.985804,161.000472 C110.111285,160.398388 113.005459,158.092793 117.763116,157.05275 C122.520774,156.012707 127.81005,156.625675 131.3886,154.325739 C134.967584,152.026239 139.733921,150.998386 143.459588,149.593958 C144.301064,149.27659 145.362131,148.969236 146.500445,148.682778 L146.500445,148.682778 Z" id="Path" fill="#FFD740"></path>
                    <path d="M43.0835573,112.441485 C43.9293727,113.204212 44.4011026,114.240337 44.2487777,115.24294 C44.0014124,116.86983 42.2034579,117.791894 40.2336496,117.302129 C38.2629734,116.812799 36.8660109,115.096228 37.1129421,113.468903 C37.2101523,112.828943 37.5473502,112.29782 38.0407787,111.919504 C37.7777904,112.213363 37.599427,112.575136 37.5369348,112.988715 C37.3212497,114.407945 38.5398488,115.905102 40.2588201,116.332177 C41.9773574,116.759252 43.5457397,115.955167 43.7609908,114.535937 C43.8720882,113.806296 43.6038922,113.056194 43.0835573,112.441485 L43.0835573,112.441485 Z" id="Path" fill="#9B0109"></path>
                    <path d="M44.3511955,28.2711509 C48.92832,28.9981796 53.7202616,29.9772739 58.667132,31.178395 C55.1393568,33.9419748 51.8602488,37.0281464 48.8805828,40.4029527 C46.7567138,39.9758778 44.6719024,39.5966909 42.6356961,39.2736638 C10.0789618,34.103053 1.69414888,44.160864 27.5381723,67.4449379 C29.1412725,68.8898531 30.8255259,70.3338975 32.5757433,71.7753299 C64.7271458,98.2587655 120.539682,123.751788 159.364304,129.917601 C161.010368,130.179244 162.606524,130.406495 164.150604,130.600659 C196.357989,134.644593 195.273054,120.898962 175.659596,102.83774 C175.82928,101.941362 175.989416,101.04063 176.12742,100.130756 C176.686379,96.451642 176.960216,92.7951665 176.970632,89.182661 C178.67398,90.5953605 180.317006,92.0115428 181.890596,93.4290311 C217.603623,125.604623 203.433936,148.192577 157.648804,140.920114 C157.065977,140.827385 156.477074,140.728996 155.887304,140.628431 C117.297462,134.042509 64.3756268,110.329619 30.6610497,84.4931081 C26.8889471,81.6024072 23.3533604,78.6860207 20.1094043,75.7626688 C-15.6036233,43.5870772 -1.43393618,20.9991224 44.3511955,28.2715862 L44.3511955,28.2711509 Z" id="Path" fill="url(#linearGradient-1)"></path>
                    <path d="M148.771865,127.8558 C152.414643,128.682523 155.955872,129.37603 159.364304,129.917165 C159.806524,129.987256 160.244837,130.054735 160.679679,130.120037 C159.523138,132.257588 157.374967,136.634998 153.697037,136.60017 C150.913961,136.573614 149.891084,137.990667 147.762441,139.034192 C144.728529,138.368112 141.628652,137.613657 138.47366,136.773003 C137.928155,134.41473 141.447251,133.616305 143.548119,131.907134 C144.822701,130.869268 146.852832,129.052567 148.771865,127.855364 L148.771865,127.8558 Z" id="Path" fill="#FF3D00"></path>
                    <path d="M34.6080438,73.4196337 C36.4780381,74.912437 38.4183361,76.4008868 40.4263341,77.8819357 C41.2539226,79.3272862 41.9096575,80.8562232 42.1895707,82.1483317 C42.1895707,82.1483317 43.339602,89.3929334 51.689697,90.4734635 C54.4554137,90.8313183 56.8032134,90.6188692 58.884553,90.1948417 C65.5039594,94.2200557 72.487036,98.1055235 79.6645331,101.777236 C79.6133241,101.816417 79.5616812,101.855163 79.5087364,101.893474 C75.4454372,104.806377 72.805139,104.795494 71.9870979,108.891669 C71.9076807,109.288705 71.8304333,109.74016 71.75145,110.231666 C57.5808949,102.825551 44.2192674,94.6205745 32.8578264,86.1504724 C32.9875847,80.4043335 33.4779754,75.1910588 34.6084778,73.4200691 L34.6080438,73.4196337 Z" id="Path" fill="#FF3D00"></path>
                    <path d="M48.8771111,40.4025174 C46.7545439,39.9754424 44.6710344,39.5962556 42.6352621,39.2736638 C19.7487719,35.6389556 8.80741776,39.5296476 13.304691,50.2500559 C13.2426327,50.1024734 13.1840462,49.956197 13.1276296,49.8112266 C9.32124305,42.6523882 5.84033708,29.0595634 32.6343298,27.0143054 C35.0255269,26.9829605 42.2104015,27.924615 44.7803959,28.340371 L58.6623583,31.177089 C55.1350171,33.9406688 51.856777,37.027711 48.8766771,40.4025174 L48.8771111,40.4025174 Z" id="Path" fill="#330099"></path>
                    <path d="M175.664804,102.841658 C191.402439,117.335651 195.206222,129.049084 179.445152,131.019027 C179.445152,131.019027 204.840012,128.832717 193.337964,105.455914 C190.340071,101.638796 186.53759,97.614888 181.89103,93.4281604 C180.31744,92.0102367 178.674848,90.5944898 176.974104,89.1813549 C176.963688,92.7938605 176.687247,96.4507713 176.128288,100.12945 C175.98985,101.039759 175.835356,101.943974 175.665238,102.841223 L175.664804,102.841658 Z" id="Path" fill="#330099"></path>
                    <ellipse id="Oval" fill="#9B0109" transform="translate(97.946558, 100.694861) rotate(-32.241253) translate(-97.946558, -100.694861) " cx="97.9465585" cy="100.694861" rx="2.35237278" ry="2.17478224"></ellipse>
                    <ellipse id="Oval" fill="#9B0109" transform="translate(127.595562, 101.069969) rotate(-32.241283) translate(-127.595562, -101.069969) " cx="127.595562" cy="101.069969" rx="2.17182565" ry="2.17478184"></ellipse>
                    <path d="M97.4292614,110.24995 C108.816307,115.297358 120.335714,119.68391 131.366033,123.129242 C130.036337,123.571119 128.678432,124.252001 127.312715,125.399574 C124.148611,128.058671 122.914822,129.98595 118.87192,130.718203 C108.173157,126.988589 97.2144442,122.511921 86.4718503,117.502824 C89.5226879,114.777119 93.2600726,111.899914 97.4292614,110.24995 L97.4292614,110.24995 Z" id="Path" fill="#FF3D00"></path>
                    <g filter="url(#filter-2)" id="Group-2">
                        <g transform="translate(11.009388, 0.000000)">
                            <path d="M48.4809929,17.6029841 C50.5827293,18.1253999 51.6342485,22.8145174 51.3708262,24.5502441 C51.1074039,26.2859707 49.1896726,27.2694185 47.0879362,26.7465673 C44.9861998,26.2241515 43.4963668,24.3935193 43.7597891,22.658228 C44.0232113,20.9225014 46.3792565,17.0805683 48.4809929,17.6029841 L48.4809929,17.6029841 Z" id="Path" fill="#330099"></path>
                            <path d="M39.7129809,14.0753711 C42.204426,14.6948693 40.5362297,16.5738249 40.2237684,18.6312726 C39.9113071,20.6887203 40.9272404,23.1645361 38.4357952,22.5450379 C35.9443501,21.9259752 35.2426141,19.7557727 35.5550754,17.698325 C35.8675367,15.6408773 37.2215358,13.4563084 39.7129809,14.0753711 L39.7129809,14.0753711 Z" id="Path" fill="#330099"></path>
                            <path d="M46.6487544,14.1167291 C47.8456549,13.2469067 48.5252583,13.0379404 47.9163927,12.0070398 C47.307527,10.9761392 46.1718169,10.2821968 44.9749164,11.1520192 C43.77845,12.0218416 43.4382143,13.7179516 44.0470799,14.7488522 C44.6559455,15.7797528 45.4518539,14.9865514 46.6487544,14.1167291 Z" id="Path" fill="#330099"></path>
                            <path d="M27.028787,43.4484667 C28.4682789,43.8345805 29.1752227,43.7533721 29.0111805,45.1119947 C28.8471383,46.470119 28.0677209,47.707178 26.6286629,47.3210642 C25.1896049,46.9349503 24.2218427,45.2958347 24.3854509,43.9377103 C24.5494931,42.5795859 25.589295,43.062851 27.028353,43.4489649 L27.028787,43.4484667 Z" id="Path" fill="#330099"></path>
                            <path d="M31.0465189,22.0916778 C32.4855769,22.4777751 33.1929546,22.3970683 33.0289124,23.7551343 C32.8648702,25.1132003 32.0854528,26.3502062 30.6463948,25.9641089 C29.2073368,25.5780116 28.2395746,23.9389664 28.4031828,22.5809004 C28.567225,21.2228344 29.6070269,21.7055806 31.0465189,22.092176 L31.0465189,22.0916778 Z" id="Path" fill="#330099"></path>
                            <path d="M147.057334,143.973634 C149.15907,144.49605 150.210589,149.185168 149.947167,150.920894 C149.683745,152.656621 147.766013,153.640069 145.664277,153.117217 C143.56254,152.594802 142.072708,150.764169 142.33613,149.028878 C142.599552,147.293151 144.956031,143.451218 147.057768,143.973634 L147.057334,143.973634 Z" id="Path" fill="#3300CC"></path>
                            <path d="M176.604024,79.1683847 C179.621879,79.9189221 181.131675,86.6524269 180.75325,89.1443505 C180.374824,91.636274 178.00793,90.4277521 174.990074,89.67765 C171.972219,88.9279833 169.445622,88.9197117 169.824047,86.4273528 C170.202472,83.9354292 173.585734,78.418718 176.60359,79.1683847 L176.604024,79.1683847 Z" id="Path" fill="#330099"></path>
                            <path d="M185.645873,94.4438238 C187.74761,94.9662397 189.710041,95.0376365 189.446618,96.7733631 C189.183196,98.5086544 187.265465,99.4925376 185.163728,98.9696864 C183.061992,98.4472705 181.572159,96.6166384 181.835581,94.8813471 C182.099003,93.1456205 183.544137,93.9218433 185.645873,94.4442592 L185.645873,94.4438238 Z" id="Path" fill="#330099"></path>
                            <path d="M170.976682,72.7599134 C172.41574,73.1460272 173.122684,73.0648188 172.959076,74.4234414 C172.795033,75.7815657 172.015616,77.0186247 170.576558,76.6325109 C169.1375,76.246397 168.169738,74.6072814 168.333346,73.249157 C168.497388,71.8910326 169.53719,72.3742977 170.976682,72.7604116 L170.976682,72.7599134 Z" id="Path" fill="#330099"></path>
                            <path d="M188.809544,80.9245726 C191.300989,81.5440707 189.632793,83.4230264 189.320332,85.4804741 C189.007871,87.5379218 190.023804,90.0137375 187.532359,89.3942394 C185.040914,88.7751766 184.339178,86.6049742 184.651639,84.5475265 C184.9641,82.4900787 186.318099,80.3055098 188.809544,80.9245726 L188.809544,80.9245726 Z" id="Path" fill="#330099"></path>
                            <path d="M23.8243225,48.5273897 C26.3157676,49.1468878 25.9052281,51.0258434 25.5923328,53.0828558 C25.2798715,55.1403035 24.7482533,55.3836622 22.2568082,54.7645995 C19.7653631,54.1455367 19.3539556,54.2073559 19.666417,52.1499082 C19.9788783,50.0924605 21.3328774,47.9078916 23.8243225,48.5269543 L23.8243225,48.5273897 Z" id="Path" fill="#330099"></path>
                            <path d="M14.0750951,90.3797408 C15.5145871,90.76584 16.2215309,90.6846346 16.0574887,92.0432054 C15.8934465,93.4012779 15.114029,94.6382898 13.674971,94.2516924 C12.235913,93.8655933 11.2681509,92.2265402 11.4317591,90.8684676 C11.5958013,89.510395 12.6356032,89.9936417 14.0746612,90.3797408 L14.0750951,90.3797408 Z" id="Path" fill="#330099"></path>
                            <path d="M4.22735567,82.5379669 C6.71880077,83.157465 5.05103844,85.0364206 4.73814314,87.0938683 C4.42568181,89.151316 5.4416151,91.6271318 2.95017,91.0076336 C0.458724895,90.3885709 -0.242577193,88.2183684 0.0694501591,86.1609207 C0.381911485,84.103473 1.73591057,81.9189041 4.22735567,82.5379669 L4.22735567,82.5379669 Z" id="Path" fill="#330099"></path>
                            <path d="M11.667407,106.089344 C12.8643075,105.219521 13.5439109,105.010555 12.9346113,103.979654 C12.3257457,102.948754 11.1900356,102.254811 9.99313508,103.124198 C8.79623461,103.994021 8.45599895,105.690131 9.06486456,106.721031 C9.67373017,107.751932 10.4696386,106.958731 11.666973,106.089344 L11.667407,106.089344 Z" id="Path" fill="#330099"></path>
                            <path d="M164.106873,149.745023 C166.208609,150.267439 168.17104,150.338836 167.907618,152.074562 C167.644195,153.809854 165.726898,154.793737 163.624728,154.270886 C161.522991,153.74847 160.033158,151.917838 160.29658,150.182546 C160.560003,148.44682 162.005136,149.223043 164.106873,149.745023 L164.106873,149.745023 Z" id="Path" fill="#330099"></path>
                            <path d="M152.724167,162.435646 C154.163659,162.821743 154.870603,162.741036 154.70656,164.099102 C154.542518,165.457168 153.763101,166.694174 152.324043,166.308077 C150.884985,165.921979 149.917223,164.282934 150.080831,162.924868 C150.244873,161.566802 151.284675,162.049548 152.723733,162.436144 L152.724167,162.435646 Z" id="Path" fill="#330099"></path>
                            <path d="M108.025272,0.0694024992 C111.043128,0.819939921 112.553358,7.55300939 112.174932,10.0453683 C111.796507,12.5372918 109.429612,11.3287699 106.411757,10.5786678 C103.393901,9.82900107 100.867304,9.82029414 101.245729,7.32837058 C101.624155,4.83601168 105.007417,-0.68026423 108.025272,0.0694024992 L108.025272,0.0694024992 Z" id="Path" fill="#330099"></path>
                            <path d="M17.2478795,130.461784 C19.7393246,131.081282 18.0715623,132.960238 17.758667,135.017685 C17.4457717,137.075133 18.4621389,139.550949 15.9706938,138.931451 C13.4792487,138.312388 12.7775127,136.142185 13.089974,134.084738 C13.4024353,132.02729 14.7564344,129.842721 17.2478795,130.461784 L17.2478795,130.461784 Z" id="Path" fill="#330099"></path>
                            <path d="M93.1460376,173.055924 C94.5850956,173.442022 95.2924733,173.360817 95.1284311,174.719381 C94.9643889,176.077447 94.1849715,177.314453 92.7459135,176.928355 C91.3068555,176.542258 90.3390933,174.903213 90.5027015,173.545147 C90.6667437,172.187081 91.7065456,172.669827 93.1460376,173.056422 L93.1460376,173.055924 Z" id="Path" fill="#330099"></path>
                            <path d="M62.3429925,159.823295 C65.3608481,160.573833 66.8710779,167.306902 66.4922185,169.799261 C66.1137931,172.29162 63.7473325,171.082663 60.7294769,170.332996 C57.7116213,169.582894 55.1850243,169.574622 55.5634496,167.082699 C55.941875,164.59034 59.3251368,159.073629 62.3429925,159.823731 L62.3429925,159.823295 Z" id="Path" fill="#330099"></path>
                            <path d="M172.252566,49.5286867 C174.744011,50.1481848 173.075815,52.0271405 172.763353,54.0845882 C172.450892,56.1420359 173.466825,58.6178516 170.97538,57.9983535 C168.483935,57.3792907 167.782199,55.2090883 168.09466,53.1516406 C168.407122,51.0941928 169.761121,48.9096239 172.252566,49.5286867 L172.252566,49.5286867 Z" id="Path" fill="#330099"></path>
                            <path d="M78.0715145,3.41982941 C80.1732509,3.94224525 82.1356816,4.01364208 81.8718254,5.74936871 C81.6084031,7.48465999 79.6911057,8.46810781 77.5889353,7.94569197 C75.4871989,7.42327613 73.997366,5.59264396 74.2607882,3.85735268 C74.5242105,2.12162605 75.9693441,2.89784892 78.0710805,3.42026476 L78.0715145,3.41982941 Z" id="Path" fill="#330099"></path>
                            <path d="M139.184176,19.6267398 C140.623234,20.0128536 141.330612,19.9316452 141.16657,21.2902677 C141.002527,22.6483921 140.22311,23.8854511 138.784052,23.4993373 C137.344994,23.1132234 136.377232,21.4741078 136.54084,20.1159834 C136.704882,18.757859 137.744684,19.2411241 139.184176,19.627238 L139.184176,19.6267398 Z" id="Path" fill="#330099"></path>
                            <path d="M159.693356,32.4826932 C161.132414,32.8200868 161.452687,35.3694761 161.289079,36.5562307 C161.125037,37.7434207 160.345619,38.8239508 158.906561,38.4865573 C157.467503,38.1491637 156.499741,36.7168736 156.66335,35.530119 C156.827392,34.3433643 158.253864,32.1448643 159.692922,32.4822579 L159.693356,32.4826932 Z" id="Path" fill="#330099"></path>
                            <path d="M130.101967,167.091841 C132.203703,167.614257 134.166134,167.685654 133.902278,169.42138 C133.638856,171.156672 131.721558,172.140555 129.619388,171.617704 C127.517651,171.095288 126.027818,169.264656 126.291241,167.529364 C126.554663,165.793638 127.999797,166.569861 130.101533,167.092276 L130.101967,167.091841 Z" id="Path" fill="#330099"></path>
                        </g>
                    </g>
                </g>
            </g>
            <g id="Group-3" transform="translate(244.000000, 34.000000)" fill="#330099" fill-rule="nonzero" stroke="#000000" stroke-width="1.41">
                <polygon id="Path" points="423.456015 15.0467051 423.456015 1.5717637 358.739463 1.5717637 358.739463 109.05225 423.615925 109.05225 423.615925 95.5773086 372.402369 95.5773086 372.402369 15.0467051"></polygon>
                <rect id="Rectangle" x="384.729555" y="48.4197057" width="37.6211992" height="13.6297718"></rect>
                <polygon id="Path" points="544 109.05225 544 1.41693325 530.656914 1.41693325 530.656914 81.5674984 475.078753 1.40754958 464.628159 1.27617829 464.628159 109.05225 478.135858 109.05225 478.135858 29.5256984 533.234289 109.05225"></polygon>
                <path d="M289.568945,67.7265942 C306.288955,64.8082747 317.092292,52.0699509 317.092292,35.2731926 C317.092292,18.9690766 306.227813,1.42162508 282.368288,1.42162508 L243.392556,1.42162508 L243.392556,109.056942 L256.740345,109.056942 L256.740345,15.0513969 L282.372991,15.0513969 C296.303981,15.0513969 303.589297,25.2232885 303.589297,35.2731926 C303.589297,45.088505 296.948325,55.6545106 282.372991,55.6545106 L264.985121,55.6545106 L264.985121,61.561527 L304.529944,109.05225 L322.021286,109.05225 L287.51363,68.0878652 L289.568945,67.7265942 Z" id="Path"></path>
                <path d="M77.6034237,70.7199829 C73.6856266,54.5190872 56.6504993,50.2682875 40.4995807,48.2554916 C29.2776553,47.2139049 15.2667099,45.9095756 14.3919077,33.3120068 C14.0344616,29.0142888 15.0456577,25.1904457 17.3220248,22.2721263 C21.4655773,16.9562807 29.2964682,13.6673065 38.2608395,13.4749414 C48.0717935,13.3154191 58.9409761,17.5802943 61.7488091,27.4284496 L75.176553,26.8935807 C71.6867505,7.30987417 53.6874595,0.319044572 39.0744996,0.319044572 C25.7972593,0.319044572 13.3618986,5.7428023 6.62215882,14.4696097 C2.25755414,20.1279591 0.272787792,27.0155684 0.865395755,34.39582 L0.879505468,34.39582 C2.53034194,56.2644487 21.3621061,59.9803796 38.8769636,61.7445084 C49.2005706,62.7720196 62.0498163,64.0575816 64.199196,73.5210066 C64.5331258,75.017701 64.7024424,76.3736404 64.7024424,77.5606739 C64.7024424,89.5295372 51.5098604,96.6845809 38.7546795,96.6845809 C27.7114771,96.6845809 15.3795876,91.0637663 13.8369256,80.6244402 L13.7569706,80.629132 L13.6770155,79.4139475 L-8.52651283e-14,79.681382 L0.094064756,81.4267434 C2.02709549,99.9641715 21.3762158,110 38.5994726,110 C58.1461289,110 78.3653482,97.9232246 78.3653482,77.7201962 C78.3653482,75.688633 78.0878572,73.1409682 77.6034237,70.7199829 Z" id="Path"></path>
                <path d="M198.326132,87.1930049 L163.686785,-1.13686838e-13 L153.664185,-1.13686838e-13 L110.337959,109.047558 L124.908589,109.047558 C129.451917,97.1349968 157.417369,24.4256771 157.70897,23.674984 L158.837747,20.7378972 L184.244638,87.1883131 L198.326132,87.1930049 L198.326132,87.1930049 Z" id="Path"></path>
                <polygon id="Path" points="187.941382 96.876946 192.597588 109.05225 207.008308 109.05225 202.17338 96.876946"></polygon>
            </g>
        </g>
    </g>
</svg>