<svg width="35" height="29" viewBox="0 0 35 29" fill="none" xmlns="http://www.w3.org/2000/svg">
<path d="M9.3125 18.375C10.5625 19.25 12.625 19.625 15.5 19.5V3.375C15.5 1.75 14.375 1 12.125 1.125V0H21.875V1.125C19.875 1 18.75 1.6875 18.5 3.1875V19.5C21.375 19.375 23.3125 19.0625 24.3125 18.5625C25.4375 17.9375 26.3125 16.875 26.9375 15.375C27.5625 13.75 27.8125 8.625 27.6875 0H34.25V0.9375L31.0625 1.6875C30.9375 6.4375 30.6875 10.375 30.3125 13.5C30.0625 16.5 28.9375 18.4375 26.9375 19.3125C25.0625 20.1875 22.25 20.625 18.5 20.625V25.5C18.5 27 19.75 27.6875 22.25 27.5625V28.6875H11.75V27.5625C14 27.6875 15.25 27.0625 15.5 25.6875V20.8125C11.5 20.9375 8.6875 20.5 7.0625 19.5C5.4375 18.5 4.5 16.4375 4.25 13.3125C4 10.1875 3.8125 6.375 3.6875 1.875L0.125 0.9375V0H7.0625C7.0625 7.75 7.125 12.5625 7.25 14.4375C7.5 16.1875 8.1875 17.5 9.3125 18.375Z" fill="#121421"/>
</svg>
