<svg width="1440" height="6919" viewBox="0 0 1440 6919" fill="none" xmlns="http://www.w3.org/2000/svg">
    <g filter="url(#filter0_f)">
        <circle cx="1242" cy="4595" r="302" fill="#FFD5BB" fill-opacity="0.26"/>
    </g>
    <g filter="url(#filter1_f)">
        <circle cx="1242" cy="5727" r="302" fill="#FFD5BB" fill-opacity="0.26"/>
    </g>
    <g filter="url(#filter2_f)">
        <circle cx="1352" cy="4810" r="302" fill="#FF5B8E" fill-opacity="0.11"/>
    </g>
    <g filter="url(#filter3_f)">
        <circle cx="1352" cy="5942" r="302" fill="#FF5B8E" fill-opacity="0.11"/>
    </g>
    <path d="M-269.736 5332.98C-217.439 5052.1 14.0971 4497.31 619.136 4691.63C1375.44 4934.54 964.783 3948.42 1507.83 4086.93" stroke="url(#paint0_linear)" stroke-width="4"/>
    <path d="M-272.986 5240.87C-220.69 4959.99 -29.5644 4403.01 575.475 4597.33C1331.77 4840.24 945.741 3950.03 1488.79 4088.53" stroke="url(#paint1_linear)" stroke-width="4"/>
    <path d="M-270.867 5348.23C-218.565 5067.35 132.807 4616.58 738.131 4810.94C1494.79 5053.9 957.359 3954.39 1500.66 4092.94" stroke="url(#paint2_linear)" stroke-width="4"/>
    <path d="M-98.7356 7096.98C-46.4388 6816.1 185.097 6261.31 790.136 6455.63C1546.44 6698.54 1135.78 5712.42 1678.83 5850.93" stroke="url(#paint3_linear)" stroke-width="4"/>
    <path d="M-101.986 7004.87C-49.6897 6723.99 141.436 6167.01 746.475 6361.33C1502.77 6604.24 1116.74 5714.03 1659.79 5852.53" stroke="url(#paint4_linear)" stroke-width="4"/>
    <path d="M-99.8673 7112.23C-47.5653 6831.35 303.807 6380.58 909.131 6574.94C1665.79 6817.9 1128.36 5718.39 1671.66 5856.94" stroke="url(#paint5_linear)" stroke-width="4"/>
    <g filter="url(#filter4_f)">
        <circle cx="1570" cy="1968" r="1035" fill="url(#paint6_linear)" fill-opacity="0.6"/>
    </g>
    <rect x="139" y="1705" width="26" height="26" rx="13" fill="#F7E9FA"/>
    <rect x="90" y="1731" width="26" height="26" rx="13" fill="#F7E9FA"/>
    <rect x="139" y="1655" width="26" height="26" rx="13" fill="#F7E9FA"/>
    <rect x="90" y="1681" width="26" height="26" rx="13" fill="#F7E9FA"/>
    <rect x="139" y="1605" width="26" height="26" rx="13" fill="#F7E9FA"/>
    <rect x="90" y="1631" width="26" height="26" rx="13" fill="#F7E9FA"/>
    <path d="M234.255 1647.61C510.329 1574.03 1110.76 1544.49 1195.51 2174.3C1301.45 2961.55 2015.14 2166.74 2123.62 2716.57" stroke="url(#paint7_linear)" stroke-width="4"/>
    <path d="M316.011 1605.06C592.085 1531.49 1177.13 1464.52 1261.87 2094.32C1367.81 2881.58 2005.5 2150.24 2113.98 2700.07" stroke="url(#paint8_linear)" stroke-width="4"/>
    <path d="M220 1653.14C496.074 1579.58 1054.14 1702.95 1138.97 2333.03C1245.02 3120.63 2006.55 2162.61 2115.11 2712.68" stroke="url(#paint9_linear)" stroke-width="4"/>
    <g filter="url(#filter5_f)">
        <circle cx="1383" cy="-37" r="462" fill="#F0426F" fill-opacity="0.09"/>
    </g>
    <g filter="url(#filter6_f)">
        <circle cx="87" cy="5651" r="356" fill="#F0426F" fill-opacity="0.09"/>
    </g>
    <g filter="url(#filter7_f)">
        <circle cx="603.5" cy="6549.5" r="455.5" fill="#F0426F" fill-opacity="0.09"/>
    </g>
    <g filter="url(#filter8_f)">
        <circle cx="254" cy="-37" r="462" fill="#1FC3F7" fill-opacity="0.03"/>
    </g>
    <g filter="url(#filter9_f)">
        <circle cx="3" cy="2775" r="302" fill="#FFD5BB" fill-opacity="0.26"/>
    </g>
    <g filter="url(#filter10_f)">
        <circle cx="113" cy="2990" r="302" fill="#FF5B8E" fill-opacity="0.11"/>
    </g>
    <g filter="url(#filter11_f)">
        <circle cx="118" cy="541" r="500" fill="#9142E0" fill-opacity="0.13"/>
    </g>
    <path d="M1564.94 1623.14C1509.02 1342.96 1270.34 791.206 667.861 993.324C-85.2388 1245.97 312.65 254.631 -228.561 400.139" stroke="url(#paint10_linear)" stroke-width="4"/>
    <path d="M1567 1531C1511.08 1250.82 1312.78 696.347 710.302 898.465C-42.7984 1151.11 331.711 255.992 -209.5 401.5" stroke="url(#paint11_linear)" stroke-width="4"/>
    <path d="M1566.27 1638.37C1510.34 1358.19 1153.18 911.996 550.417 1114.16C-203.039 1366.86 320.15 260.51 -221.313 406.057" stroke="url(#paint12_linear)" stroke-width="4"/>
    <defs>
        <filter id="filter0_f" x="440" y="3793" width="1604" height="1604" filterUnits="userSpaceOnUse" color-interpolation-filters="sRGB">
            <feFlood flood-opacity="0" result="BackgroundImageFix"/>
            <feBlend mode="normal" in="SourceGraphic" in2="BackgroundImageFix" result="shape"/>
            <feGaussianBlur stdDeviation="250" result="effect1_foregroundBlur"/>
        </filter>
        <filter id="filter1_f" x="440" y="4925" width="1604" height="1604" filterUnits="userSpaceOnUse" color-interpolation-filters="sRGB">
            <feFlood flood-opacity="0" result="BackgroundImageFix"/>
            <feBlend mode="normal" in="SourceGraphic" in2="BackgroundImageFix" result="shape"/>
            <feGaussianBlur stdDeviation="250" result="effect1_foregroundBlur"/>
        </filter>
        <filter id="filter2_f" x="550" y="4008" width="1604" height="1604" filterUnits="userSpaceOnUse" color-interpolation-filters="sRGB">
            <feFlood flood-opacity="0" result="BackgroundImageFix"/>
            <feBlend mode="normal" in="SourceGraphic" in2="BackgroundImageFix" result="shape"/>
            <feGaussianBlur stdDeviation="250" result="effect1_foregroundBlur"/>
        </filter>
        <filter id="filter3_f" x="550" y="5140" width="1604" height="1604" filterUnits="userSpaceOnUse" color-interpolation-filters="sRGB">
            <feFlood flood-opacity="0" result="BackgroundImageFix"/>
            <feBlend mode="normal" in="SourceGraphic" in2="BackgroundImageFix" result="shape"/>
            <feGaussianBlur stdDeviation="250" result="effect1_foregroundBlur"/>
        </filter>
        <filter id="filter4_f" x="35" y="433" width="3070" height="3070" filterUnits="userSpaceOnUse" color-interpolation-filters="sRGB">
            <feFlood flood-opacity="0" result="BackgroundImageFix"/>
            <feBlend mode="normal" in="SourceGraphic" in2="BackgroundImageFix" result="shape"/>
            <feGaussianBlur stdDeviation="250" result="effect1_foregroundBlur"/>
        </filter>
        <filter id="filter5_f" x="421" y="-999" width="1924" height="1924" filterUnits="userSpaceOnUse" color-interpolation-filters="sRGB">
            <feFlood flood-opacity="0" result="BackgroundImageFix"/>
            <feBlend mode="normal" in="SourceGraphic" in2="BackgroundImageFix" result="shape"/>
            <feGaussianBlur stdDeviation="250" result="effect1_foregroundBlur"/>
        </filter>
        <filter id="filter6_f" x="-769" y="4795" width="1712" height="1712" filterUnits="userSpaceOnUse" color-interpolation-filters="sRGB">
            <feFlood flood-opacity="0" result="BackgroundImageFix"/>
            <feBlend mode="normal" in="SourceGraphic" in2="BackgroundImageFix" result="shape"/>
            <feGaussianBlur stdDeviation="250" result="effect1_foregroundBlur"/>
        </filter>
        <filter id="filter7_f" x="-352" y="5594" width="1911" height="1911" filterUnits="userSpaceOnUse" color-interpolation-filters="sRGB">
            <feFlood flood-opacity="0" result="BackgroundImageFix"/>
            <feBlend mode="normal" in="SourceGraphic" in2="BackgroundImageFix" result="shape"/>
            <feGaussianBlur stdDeviation="250" result="effect1_foregroundBlur"/>
        </filter>
        <filter id="filter8_f" x="-708" y="-999" width="1924" height="1924" filterUnits="userSpaceOnUse" color-interpolation-filters="sRGB">
            <feFlood flood-opacity="0" result="BackgroundImageFix"/>
            <feBlend mode="normal" in="SourceGraphic" in2="BackgroundImageFix" result="shape"/>
            <feGaussianBlur stdDeviation="250" result="effect1_foregroundBlur"/>
        </filter>
        <filter id="filter9_f" x="-799" y="1973" width="1604" height="1604" filterUnits="userSpaceOnUse" color-interpolation-filters="sRGB">
            <feFlood flood-opacity="0" result="BackgroundImageFix"/>
            <feBlend mode="normal" in="SourceGraphic" in2="BackgroundImageFix" result="shape"/>
            <feGaussianBlur stdDeviation="250" result="effect1_foregroundBlur"/>
        </filter>
        <filter id="filter10_f" x="-689" y="2188" width="1604" height="1604" filterUnits="userSpaceOnUse" color-interpolation-filters="sRGB">
            <feFlood flood-opacity="0" result="BackgroundImageFix"/>
            <feBlend mode="normal" in="SourceGraphic" in2="BackgroundImageFix" result="shape"/>
            <feGaussianBlur stdDeviation="250" result="effect1_foregroundBlur"/>
        </filter>
        <filter id="filter11_f" x="-882" y="-459" width="2000" height="2000" filterUnits="userSpaceOnUse" color-interpolation-filters="sRGB">
            <feFlood flood-opacity="0" result="BackgroundImageFix"/>
            <feBlend mode="normal" in="SourceGraphic" in2="BackgroundImageFix" result="shape"/>
            <feGaussianBlur stdDeviation="250" result="effect1_foregroundBlur"/>
        </filter>
        <linearGradient id="paint0_linear" x1="724.557" y1="3972.05" x2="513.936" y2="5445.03" gradientUnits="userSpaceOnUse">
            <stop stop-color="white"/>
            <stop offset="1" stop-color="white"/>
        </linearGradient>
        <linearGradient id="paint1_linear" x1="706.73" y1="3973.53" x2="509.514" y2="5352.76" gradientUnits="userSpaceOnUse">
            <stop stop-color="white"/>
            <stop offset="1" stop-color="white"/>
        </linearGradient>
        <linearGradient id="paint2_linear" x1="720.957" y1="3978.83" x2="509.198" y2="5459.77" gradientUnits="userSpaceOnUse">
            <stop stop-color="white"/>
            <stop offset="1" stop-color="white"/>
        </linearGradient>
        <linearGradient id="paint3_linear" x1="895.557" y1="5736.05" x2="684.936" y2="7209.03" gradientUnits="userSpaceOnUse">
            <stop stop-color="white"/>
            <stop offset="1" stop-color="white"/>
        </linearGradient>
        <linearGradient id="paint4_linear" x1="877.73" y1="5737.53" x2="680.514" y2="7116.76" gradientUnits="userSpaceOnUse">
            <stop stop-color="white"/>
            <stop offset="1" stop-color="white"/>
        </linearGradient>
        <linearGradient id="paint5_linear" x1="891.957" y1="5742.83" x2="680.198" y2="7223.77" gradientUnits="userSpaceOnUse">
            <stop stop-color="white"/>
            <stop offset="1" stop-color="white"/>
        </linearGradient>
        <linearGradient id="paint6_linear" x1="1650.5" y1="1255" x2="1570" y2="3003" gradientUnits="userSpaceOnUse">
            <stop stop-color="#FFEAFE" stop-opacity="0.9"/>
            <stop offset="1" stop-color="#EFEAFF"/>
        </linearGradient>
        <linearGradient id="paint7_linear" x1="1890.49" y1="1960.03" x2="470.093" y2="2403.31" gradientUnits="userSpaceOnUse">
            <stop stop-color="#FAD5FF"/>
            <stop offset="1" stop-color="#FFF5F5" stop-opacity="0"/>
        </linearGradient>
        <linearGradient id="paint8_linear" x1="1881.49" y1="1944.57" x2="551.495" y2="2359.63" gradientUnits="userSpaceOnUse">
            <stop stop-color="#FAD5FF"/>
            <stop offset="1" stop-color="#FFF5F5" stop-opacity="0"/>
        </linearGradient>
        <linearGradient id="paint9_linear" x1="1882.83" y1="1959.69" x2="454.752" y2="2405.36" gradientUnits="userSpaceOnUse">
            <stop stop-color="#FAD5FF"/>
            <stop offset="1" stop-color="#FFF5F5" stop-opacity="0"/>
        </linearGradient>
        <linearGradient id="paint10_linear" x1="553.16" y1="275.164" x2="782.778" y2="1745.3" gradientUnits="userSpaceOnUse">
            <stop stop-color="white"/>
            <stop offset="0.660142" stop-color="white"/>
            <stop offset="1" stop-color="#DE8BF2"/>
        </linearGradient>
        <linearGradient id="paint11_linear" x1="571.005" y1="276.41" x2="786.009" y2="1652.98" gradientUnits="userSpaceOnUse">
            <stop stop-color="white"/>
            <stop offset="0.660142" stop-color="white"/>
            <stop offset="1" stop-color="#DE8BF2"/>
        </linearGradient>
        <linearGradient id="paint12_linear" x1="556.848" y1="281.897" x2="787.706" y2="1759.98" gradientUnits="userSpaceOnUse">
            <stop stop-color="white"/>
            <stop offset="0.660142" stop-color="white"/>
            <stop offset="1" stop-color="#DE8BF2"/>
        </linearGradient>
    </defs>
</svg>
