<svg width="32" height="32" viewBox="0 0 32 32" fill="none" xmlns="http://www.w3.org/2000/svg">
<rect x="0.5" y="0.5" width="31" height="31" rx="9.5" fill="#F5F2FF"/>
<path d="M16.0002 8.66699C14.7629 8.6684 13.5768 9.16052 12.7019 10.0354C11.827 10.9103 11.3349 12.0964 11.3335 13.3337C11.3335 16.829 15.2775 22.785 15.4455 23.037C15.5064 23.1283 15.5889 23.2032 15.6856 23.2549C15.7824 23.3067 15.8904 23.3338 16.0002 23.3338C16.1099 23.3338 16.2179 23.3067 16.3147 23.2549C16.4115 23.2032 16.4939 23.1283 16.5548 23.037C16.7228 22.785 20.6668 16.829 20.6668 13.3337C20.6654 12.0964 20.1733 10.9103 19.2984 10.0354C18.4236 9.16052 17.2374 8.6684 16.0002 8.66699ZM16.0002 15.3337C15.6046 15.3337 15.2179 15.2164 14.889 14.9966C14.5601 14.7768 14.3038 14.4645 14.1524 14.099C14.001 13.7336 13.9614 13.3314 14.0386 12.9435C14.1158 12.5555 14.3062 12.1992 14.5859 11.9194C14.8657 11.6397 15.222 11.4493 15.61 11.3721C15.9979 11.2949 16.4001 11.3345 16.7655 11.4859C17.131 11.6373 17.4433 11.8936 17.6631 12.2225C17.8829 12.5514 18.0002 12.9381 18.0002 13.3337C18.0002 13.8641 17.7894 14.3728 17.4144 14.7479C17.0393 15.1229 16.5306 15.3337 16.0002 15.3337Z" fill="#1E0451"/>
<rect x="0.5" y="0.5" width="31" height="31" rx="9.5" stroke="url(#paint0_linear)"/>
<defs>
<linearGradient id="paint0_linear" x1="-1.09446" y1="-1.6612" x2="17.2505" y2="10.1299" gradientUnits="userSpaceOnUse">
<stop stop-color="#410FAC"/>
<stop offset="0.358047" stop-color="#D364E1" stop-opacity="0.69"/>
<stop offset="1" stop-color="#D364E1" stop-opacity="0"/>
</linearGradient>
</defs>
</svg>
