<svg width="32" height="32" viewBox="0 0 32 32" fill="none" xmlns="http://www.w3.org/2000/svg">
<rect x="0.5" y="0.5" width="31" height="31" rx="9.5" fill="#F5F2FF"/>
<g clip-path="url(#clip0)">
<g clip-path="url(#clip1)">
<path d="M22.7777 10.4463H16.33V11.8683C16.33 12.0506 16.1823 12.1983 16 12.1983C15.8177 12.1983 15.6703 12.0506 15.6703 11.8683V10.4463H9.22233C8.54833 10.4463 8 10.9943 8 11.6683V20.213C8 20.887 8.54833 21.4353 9.22233 21.4353H22.7777C23.4517 21.4353 24 20.887 24 20.213V11.6683C24 10.9943 23.4517 10.4463 22.7777 10.4463ZM12.717 12.3696C13.4987 12.3696 14.1347 13.006 14.1347 13.788C14.1347 14.5693 13.4987 15.2046 12.717 15.2046C11.9353 15.2046 11.2993 14.5693 11.2993 13.788C11.2993 13.0063 11.9357 12.3696 12.717 12.3696ZM15.9177 19.4583H9.51633C9.471 19.4583 9.434 19.4216 9.434 19.376C9.434 17.5656 10.907 16.093 12.7173 16.093C14.5277 16.093 16 17.5656 16 19.376C16 19.4216 15.963 19.4583 15.9177 19.4583ZM21.547 17.382H17.3907C17.2083 17.382 17.061 17.2343 17.061 17.052C17.061 16.8696 17.2083 16.7223 17.3907 16.7223H21.547C21.7293 16.7223 21.8767 16.8696 21.8767 17.052C21.8767 17.2343 21.7293 17.382 21.547 17.382ZM21.547 14.807H17.3907C17.2083 14.807 17.061 14.6596 17.061 14.477C17.061 14.2946 17.2083 14.1473 17.3907 14.1473H21.547C21.7293 14.1473 21.8767 14.2946 21.8767 14.477C21.8767 14.6596 21.7293 14.807 21.547 14.807Z" fill="#1E0451"/>
<path d="M16.3301 8.89412C16.3301 8.71179 16.1824 8.56445 16.0001 8.56445C15.8177 8.56445 15.6704 8.71179 15.6704 8.89412V10.4458H16.3301V8.89412Z" fill="#1E0451"/>
</g>
</g>
<rect x="0.5" y="0.5" width="31" height="31" rx="9.5" stroke="url(#paint0_linear)"/>
<defs>
<linearGradient id="paint0_linear" x1="-1.09446" y1="-1.6612" x2="17.2505" y2="10.1299" gradientUnits="userSpaceOnUse">
<stop stop-color="#410FAC"/>
<stop offset="0.358047" stop-color="#D364E1" stop-opacity="0.69"/>
<stop offset="1" stop-color="#D364E1" stop-opacity="0"/>
</linearGradient>
<clipPath id="clip0">
<rect width="16" height="16" fill="white" transform="translate(8 8)"/>
</clipPath>
<clipPath id="clip1">
<rect width="16" height="16" fill="white" transform="translate(8 7)"/>
</clipPath>
</defs>
</svg>
