<svg width="32" height="32" viewBox="0 0 32 32" fill="none" xmlns="http://www.w3.org/2000/svg">
<rect x="0.5" y="0.5" width="31" height="31" rx="9.5" fill="#F5F2FF"/>
<g clip-path="url(#clip0)">
<path d="M20.4801 8.85156H15.5676C15.2566 8.85156 14.958 8.97534 14.7381 9.19534L8.34363 15.5886C7.88546 16.0468 7.88546 16.7895 8.34363 17.2482L13.2562 22.1608C13.7144 22.6189 14.4571 22.6189 14.9152 22.1608L21.3096 15.7675C21.5296 15.5469 21.6534 15.2483 21.6534 14.9368V10.0249C21.6534 9.37661 21.1284 8.85156 20.4801 8.85156ZM18.4269 12.9581C17.9411 12.9581 17.5469 12.5638 17.5469 12.0781C17.5469 11.5924 17.9411 11.1981 18.4269 11.1981C18.9126 11.1981 19.3068 11.5924 19.3068 12.0781C19.3068 12.5638 18.9126 12.9581 18.4269 12.9581Z" fill="#1E0451"/>
<path d="M22.8267 10.0244L22.8262 15.4855C22.8262 15.7559 22.7188 16.0158 22.527 16.2071L16.0293 22.7047L16.129 22.8045C16.5872 23.2626 17.3299 23.2626 17.7881 22.8045L23.6557 16.938C23.8763 16.718 24 16.4194 24 16.1085V11.1977C24 10.5495 23.475 10.0244 22.8267 10.0244Z" fill="#1E0451"/>
</g>
<rect x="0.5" y="0.5" width="31" height="31" rx="9.5" stroke="url(#paint0_linear)"/>
<defs>
<linearGradient id="paint0_linear" x1="-1.09446" y1="-1.6612" x2="17.2505" y2="10.1299" gradientUnits="userSpaceOnUse">
<stop stop-color="#410FAC"/>
<stop offset="0.358047" stop-color="#D364E1" stop-opacity="0.69"/>
<stop offset="1" stop-color="#D364E1" stop-opacity="0"/>
</linearGradient>
<clipPath id="clip0">
<rect width="16" height="16" fill="white" transform="translate(8 8)"/>
</clipPath>
</defs>
</svg>
