<svg width="32" height="32" viewBox="0 0 32 32" fill="none" xmlns="http://www.w3.org/2000/svg">
<rect x="0.5" y="0.5" width="31" height="31" rx="9.5" fill="#F5F2FF"/>
<path d="M21.6596 10.3404C18.5387 7.21986 13.4613 7.21986 10.3404 10.3404C7.21986 13.461 7.21986 18.5385 10.3404 21.6592C11.9008 23.2195 13.9504 23.9997 16 23.9997C18.0495 23.9997 20.0991 23.2195 21.6596 21.6592C24.7801 18.5387 24.7801 13.4612 21.6596 10.3404ZM19.6583 13.2153C19.6583 13.5037 19.4244 13.7374 19.1362 13.7374C18.848 13.7374 18.6141 13.5037 18.6141 13.2153V12.6895H13.969L16.4041 15.6674C16.5615 15.8596 16.5615 16.1354 16.4041 16.3276L13.969 19.3027H18.6141V18.7843C18.6141 18.4959 18.848 18.2623 19.1362 18.2623C19.4244 18.2623 19.6583 18.4959 19.6583 18.7843V19.8285C19.6583 20.1169 19.4208 20.3469 19.1325 20.3469H12.8674C12.6658 20.3469 12.482 20.2325 12.3956 20.0503C12.3093 19.868 12.3354 19.653 12.4632 19.497L15.3252 15.9994L12.4632 12.5017C12.3354 12.3457 12.3093 12.128 12.3956 11.9456C12.4819 11.7634 12.6659 11.6453 12.8674 11.6453H19.1326C19.4208 11.6453 19.6583 11.8827 19.6583 12.1711V13.2153H19.6583Z" fill="#1E0451"/>
<rect x="0.5" y="0.5" width="31" height="31" rx="9.5" stroke="url(#paint0_linear)"/>
<defs>
<linearGradient id="paint0_linear" x1="-1.09446" y1="-1.6612" x2="17.2505" y2="10.1299" gradientUnits="userSpaceOnUse">
<stop stop-color="#410FAC"/>
<stop offset="0.358047" stop-color="#D364E1" stop-opacity="0.69"/>
<stop offset="1" stop-color="#D364E1" stop-opacity="0"/>
</linearGradient>
</defs>
</svg>
