<svg width="32" height="32" viewBox="0 0 32 32" fill="none" xmlns="http://www.w3.org/2000/svg">
<rect x="0.5" y="0.5" width="31" height="31" rx="9.5" fill="#F5F2FF"/>
<g clip-path="url(#clip0)">
<path d="M16.9501 20.8644L16.3501 19.2845H11.2359L10.6346 20.8988C10.3995 21.528 10.1997 21.9522 10.0338 22.1731C9.86832 22.3936 9.59626 22.5036 9.2189 22.5036C8.89827 22.5036 8.61547 22.3871 8.36876 22.1525C8.12292 21.9178 8 21.6518 8 21.3539C8 21.1833 8.02794 21.0049 8.0851 20.8231C8.14269 20.6396 8.23725 20.3843 8.36876 20.0594L11.5871 11.889C11.6786 11.6543 11.7886 11.3723 11.9172 11.0431C12.047 10.7139 12.1841 10.4414 12.3293 10.2239C12.4759 10.0065 12.6667 9.83067 12.9057 9.69571C13.1425 9.56162 13.4348 9.49414 13.7846 9.49414C14.1396 9.49414 14.4366 9.56119 14.6721 9.69571C14.9111 9.83024 15.1011 10.0034 15.2481 10.2153C15.3938 10.4268 15.5167 10.6542 15.6164 10.8974C15.7161 11.1407 15.8438 11.4652 15.9985 11.8722L19.286 19.991C19.5435 20.6091 19.6715 21.0574 19.6715 21.3384C19.6715 21.6311 19.5503 21.8989 19.3062 22.1409C19.0629 22.3837 18.7698 22.5066 18.4256 22.5066C18.2257 22.5066 18.0546 22.4705 17.9119 22.3992C17.7684 22.3278 17.6485 22.2294 17.5509 22.1069C17.4525 21.984 17.3485 21.7945 17.2376 21.5413C17.1263 21.283 17.0304 21.0582 16.9501 20.8644ZM11.9043 17.3714H15.6633L13.7661 12.1786L11.9043 17.3714ZM23.7017 20.5773L21.1844 14.4209C21.0671 14.1127 20.9687 13.8669 20.8913 13.6821C20.8148 13.4977 20.7211 13.3258 20.6102 13.165C20.4985 13.0047 20.3523 12.8736 20.1718 12.7726C19.9922 12.6712 19.7674 12.6205 19.4979 12.6213C19.2318 12.6226 19.0101 12.6742 18.8304 12.7765C18.649 12.8792 18.5046 13.0137 18.3942 13.1792C18.2833 13.3451 18.1806 13.5527 18.0826 13.8028C18.0198 13.9636 17.9661 14.1033 17.915 14.2348L18.8347 16.508L19.4897 14.662L20.9437 18.5989L19.6827 18.6045L20.2444 19.9897C20.2535 20.0134 20.2604 20.0327 20.2702 20.0559L21.4707 20.0508L21.9301 21.2486C21.9929 21.3965 22.0651 21.5662 22.1515 21.7592C22.2361 21.9522 22.3174 22.0957 22.3921 22.189C22.4661 22.2823 22.5576 22.3558 22.6668 22.4099C22.7751 22.4636 22.9062 22.4907 23.0579 22.4907C23.3175 22.4899 23.5406 22.3957 23.7245 22.2118C23.9102 22.0257 24.0009 21.8233 24 21.6015C23.9979 21.3866 23.899 21.0462 23.7017 20.5773Z" fill="#1E0451"/>
</g>
<rect x="0.5" y="0.5" width="31" height="31" rx="9.5" stroke="url(#paint0_linear)"/>
<defs>
<linearGradient id="paint0_linear" x1="-1.09446" y1="-1.6612" x2="17.2505" y2="10.1299" gradientUnits="userSpaceOnUse">
<stop stop-color="#410FAC"/>
<stop offset="0.358047" stop-color="#D364E1" stop-opacity="0.69"/>
<stop offset="1" stop-color="#D364E1" stop-opacity="0"/>
</linearGradient>
<clipPath id="clip0">
<rect width="16" height="16" fill="white" transform="translate(8 8)"/>
</clipPath>
</defs>
</svg>
